{
copyright = "Copyright (c) 2018 by Vladimir Nikolic. All rights reserved.";
designer = "Vladimir Nikolic";
designerURL = "http://www.coroflot.com/vladimirnikolic";
familyName = "Olga One";
customParameters = (
{
name = glyphOrder;
value = (
.notdef,
space,
E,
F,
G,
H,
I.1,
J,
K,
L.1,
N,
O,
P,
Q,
R,
S,
T,
U,
W,
Y,
Z,
a,
b,
c,
d,
e,
f,
g,
h,
i,
j,
k,
l,
m,
n,
o,
p,
q,
r,
s,
t,
u,
v,
w,
x,
y,
z,
D.1,
comma,
zero,
one,
two,
three,
four,
five,
six,
seven,
eight,
nine,
semicolon,
question,
B,
C.1,
A,
percent,
slash.1,
hyphenminus.1,
equal,
less,
euro,
greater,
brevemod,
Abreve,
caronmod,
Ecaron,
grave,
acute,
Nacute,
Lslash,
Ncaron,
Oacute,
doubleacutemod,
Odoubleacute,
ellipsis,
dieresis,
Edieresis,
ogonekmod,
Eogonek,
Eacute,
Ccaron,
cedilla,
Ccedilla,
trademark,
Udieresis,
Udoubleacute,
Uacute,
Rcaron,
Adieresis,
Lacute,
Cacute,
udoubleacute,
udieresis,
uacute,
rcaron,
odoubleacute,
oacute,
ncaron,
nacute,
ecaron,
edieresis,
eogonek,
eacute,
ccaron,
cacute,
lacute,
adieresis,
abreve,
Racute,
racute,
Aacute,
aacute,
Zcaron,
Zacute,
Tcaron,
Sacute,
sacute,
tcaron,
zcaron,
zacute,
lslash,
iacute,
Iacute,
Dcaron,
endash,
dcroat,
Dcroat,
odieresis,
Odieresis,
multiply,
emdash,
divide,
yacute,
Yacute,
scaron,
degree,
registered,
bullet,
section,
copyright,
periodcentered,
dcaron,
quotesinglbase,
Scaron,
plusminus,
gravecomb,
acutecomb,
circumflexcomb,
tildecomb,
macroncomb,
brevecomb,
dotaccentcomb,
dieresiscomb,
ringcomb,
doubleacutecomb,
caroncomb,
commaaccentcomb,
cedillacomb,
ogonekcomb,
zdotaccent,
uring,
Ocircumflex,
ocircumflex,
Icircumflex,
icircumflex,
acircumflex,
Acircumflex,
Scedilla,
scedilla,
Uring,
germandbls,
Germandbls,
Zdotaccent,
AE,
ae,
aring,
Aring,
agrave,
Agrave,
egrave,
Egrave,
ecircumflex,
Ecircumflex,
igrave,
Igrave,
idieresis,
Eth,
ograve,
Ograve,
oslash,
Oslash,
ugrave,
Ugrave,
ucircumflex,
Ucircumflex,
ydieresis,
Ydieresis,
oe,
OE,
cent,
exclamdown,
yen,
Idieresis,
questiondown,
Thorn,
thorn,
onesuperior,
ordmasculine,
ordfeminine,

glyphs = (
{
glyphname = E;
layers = (
{
layerId = "9F8883BC-B634-401D-A38E-6E78924B331A";
paths = (
{
nodes = (
"517 0 LINE",
"517 150 LINE",
"360 150 LINE SMOOTH",
"250 150 OFFCURVE",
"164 239 OFFCURVE",
"164 347 CURVE SMOOTH",
"164 456 OFFCURVE",
"251 544 OFFCURVE",
"360 544 CURVE SMOOTH",
"517 544 LINE",
"517 694 LINE",
"360 694 LINE SMOOTH",
"168 694 OFFCURVE",
"14 538 OFFCURVE",
"14 347 CURVE SMOOTH",
"14 161 OFFCURVE",
"162 0 OFFCURVE",
"360 0 CURVE SMOOTH"
);
},
{
nodes = (
"517 272 LINE",
"517 422 LINE",
"211 422 LINE",
"200 391 OFFCURVE",
"195 369 OFFCURVE",
"195 347 CURVE SMOOTH",
"195 328 OFFCURVE",
"200 304 OFFCURVE",
"213 272 CURVE"
);
}
);
width = 570;
}
);
unicode = 0045;
},
{
glyphname = F;
layers = (
{
layerId = "9F8883BC-B634-401D-A38E-6E78924B331A";
paths = (
{
nodes = (
"515 543 LINE",
"515 693 LINE",
"231 693 LINE",
"231 543 LINE"
);
},
{
nodes = (
"195 0 LINE",
"195 271 LINE",
"460 271 LINE",
"460 421 LINE",
"195 421 LINE",
"195 693 LINE",
"45 693 LINE",
"45 0 LINE"
);
}
);
width = 549;
}
);
unicode = 0046;
},
{
glyphname = G;
layers = (
{
layerId = "9F8883BC-B634-401D-A38E-6E78924B331A";
paths = (
{
nodes = (
"550 0 LINE",
"550 150 LINE",
"366 150 LINE SMOOTH",
"257 150 OFFCURVE",
"169 237 OFFCURVE",
"169 347 CURVE SMOOTH",
"169 456 OFFCURVE",
"256 544 OFFCURVE",
"366 544 CURVE SMOOTH",
"550 544 LINE",
"550 694 LINE",
"366 694 LINE SMOOTH",
"181 694 OFFCURVE",
"20 547 OFFCURVE",
"20 347 CURVE SMOOTH",
"20 161 OFFCURVE",
"168 0 OFFCURVE",
"366 0 CURVE SMOOTH"
);
},
{
nodes = (
"550 181 LINE",
"550 422 LINE",
"216 422 LINE",
"205 391 OFFCURVE",
"200 369 OFFCURVE",
"200 347 CURVE SMOOTH",
"200 328 OFFCURVE",
"205 304 OFFCURVE",
"218 272 CURVE",
"399 272 LINE",
"399 181 LINE"
);
}
);
width = 599;
}
);
unicode = 0047;
},
{
glyphname = H;
layers = (
{
layerId = "9F8883BC-B634-401D-A38E-6E78924B331A";
paths = (
{
nodes = (
"596 0 LINE",
"596 694 LINE",
"446 694 LINE",
"446 422 LINE",
"65 422 LINE",
"65 0 LINE",
"216 0 LINE",
"216 272 LINE",
"446 272 LINE",
"446 0 LINE"
);
},
{
nodes = (
"216 454 LINE",
"216 694 LINE",
"65 694 LINE",
"65 454 LINE"
);
}
);
width = 665;
}
);
unicode = 0048;
},
{
glyphname = I.1;
layers = (
{
layerId = "9F8883BC-B634-401D-A38E-6E78924B331A";
paths = (
{
nodes = (
"207 0 LINE",
"207 693 LINE",
"57 693 LINE",
"57 0 LINE"
);
}
);
width = 260;
}
);
},
{
glyphname = J;
layers = (
{
layerId = "9F8883BC-B634-401D-A38E-6E78924B331A";
paths = (
{
nodes = (
"7 0 LINE",
"149 0 OFFCURVE",
"266 104 OFFCURVE",
"266 238 CURVE SMOOTH",
"266 693 LINE",
"115 693 LINE",
"115 238 LINE SMOOTH",
"115 190 OFFCURVE",
"67 150 OFFCURVE",
"7 150 CURVE"
);
}
);
width = 301;
}
);
unicode = 004A;
},
{
glyphname = K;
layers = (
{
layerId = "9F8883BC-B634-401D-A38E-6E78924B331A";
paths = (
{
nodes = (
"617 0 LINE",
"545 106 OFFCURVE",
"458 239 OFFCURVE",
"385 347 CURVE",
"617 694 LINE",
"437 694 LINE",
"206 347 LINE",
"437 0 LINE"
);
},
{
nodes = (
"196 0 LINE",
"196 694 LINE",
"47 694 LINE",
"47 0 LINE"
);
}
);
width = 636;
}
);
unicode = 004B;
},
{
glyphname = L.1;
layers = (
{
layerId = "9F8883BC-B634-401D-A38E-6E78924B331A";
paths = (
{
nodes = (
"433 0 LINE",
"433 150 LINE",
"194 150 LINE",
"194 693 LINE",
"44 693 LINE",
"44 0 LINE"
);
}
);
width = 437;
}
);
},
{
glyphname = N;
layers = (
{
layerId = "9F8883BC-B634-401D-A38E-6E78924B331A";
paths = (
{
nodes = (
"632 81 LINE",
"632 693 LINE",
"482 693 LINE",
"482 306 LINE"
);
},
{
nodes = (
"650 0 LINE",
"187 693 LINE",
"47 693 LINE",
"47 0 LINE",
"197 0 LINE",
"197 410 LINE",
"471 0 LINE"
);
}
);
width = 696;
}
);
unicode = 004E;
},
{
glyphname = O;
layers = (
{
layerId = "9F8883BC-B634-401D-A38E-6E78924B331A";
paths = (
{
nodes = (
"504 0 OFFCURVE",
"633 132 OFFCURVE",
"633 292 CURVE SMOOTH",
"633 401 LINE SMOOTH",
"633 520 OFFCURVE",
"562 624 OFFCURVE",
"455 670 CURVE SMOOTH",
"404 692 OFFCURVE",
"371 693 OFFCURVE",
"311 693 CURVE SMOOTH",
"152 693 OFFCURVE",
"18 565 OFFCURVE",
"18 401 CURVE SMOOTH",
"18 292 LINE SMOOTH",
"18 173 OFFCURVE",
"88 70 OFFCURVE",
"198 23 CURVE SMOOTH",
"249 1 OFFCURVE",
"282 0 OFFCURVE",
"341 0 CURVE SMOOTH"
);
},
{
nodes = (
"311 150 LINE SMOOTH",
"230 150 OFFCURVE",
"169 215 OFFCURVE",
"169 292 CURVE SMOOTH",
"169 401 LINE SMOOTH",
"169 481 OFFCURVE",
"231 544 OFFCURVE",
"311 544 CURVE SMOOTH",
"341 544 LINE SMOOTH",
"421 544 OFFCURVE",
"483 480 OFFCURVE",
"483 401 CURVE SMOOTH",
"483 292 LINE SMOOTH",
"483 211 OFFCURVE",
"418 150 OFFCURVE",
"341 150 CURVE SMOOTH"
);
}
);
width = 671;
}
);
unicode = 004F;
},
{
glyphname = P;
layers = (
{
layerId = "9F8883BC-B634-401D-A38E-6E78924B331A";
paths = (
{
nodes = (
"185 0 LINE",
"185 217 LINE",
"295 217 LINE SMOOTH",
"426 217 OFFCURVE",
"532 323 OFFCURVE",
"532 455 CURVE SMOOTH",
"532 585 OFFCURVE",
"429 693 OFFCURVE",
"295 693 CURVE SMOOTH",
"35 693 LINE",
"35 544 LINE",
"295 544 LINE SMOOTH",
"343 544 OFFCURVE",
"382 505 OFFCURVE",
"382 455 CURVE SMOOTH",
"382 407 OFFCURVE",
"343 368 OFFCURVE",
"295 368 CURVE SMOOTH",
"35 368 LINE",
"35 0 LINE"
);
}
);
width = 565;
}
);
unicode = 0050;
},
{
glyphname = Q;
layers = (
{
layerId = "9F8883BC-B634-401D-A38E-6E78924B331A";
paths = (
{
nodes = (
"431 0 OFFCURVE",
"495 31 OFFCURVE",
"561 101 CURVE",
"461 276 LINE",
"288 276 LINE",
"359 151 LINE",
"350 150 LINE",
"311 150 LINE SMOOTH",
"230 150 OFFCURVE",
"169 215 OFFCURVE",
"169 292 CURVE SMOOTH",
"169 402 LINE SMOOTH",
"169 483 OFFCURVE",
"234 544 OFFCURVE",
"311 544 CURVE SMOOTH",
"341 544 LINE SMOOTH",
"422 544 OFFCURVE",
"483 479 OFFCURVE",
"483 402 CURVE",
"481 303 LINE",
"582 128 LINE",
"611 175 OFFCURVE",
"633 234 OFFCURVE",
"633 292 CURVE SMOOTH",
"633 402 LINE SMOOTH",
"633 525 OFFCURVE",
"557 627 OFFCURVE",
"455 671 CURVE SMOOTH",
"403 693 OFFCURVE",
"370 694 OFFCURVE",
"311 694 CURVE SMOOTH",
"152 694 OFFCURVE",
"18 564 OFFCURVE",
"18 402 CURVE SMOOTH",
"18 292 LINE SMOOTH",
"18 171 OFFCURVE",
"92 68 OFFCURVE",
"198 23 CURVE SMOOTH",
"249 1 OFFCURVE",
"282 0 OFFCURVE",
"341 0 CURVE SMOOTH"
);
}
);
width = 674;
}
);
unicode = 0051;
},
{
glyphname = R;
layers = (
{
layerId = "9F8883BC-B634-401D-A38E-6E78924B331A";
paths = (
{
nodes = (
"553 0 LINE",
"412 246 LINE",
"503 294 OFFCURVE",
"538 373 OFFCURVE",
"538 452 CURVE SMOOTH",
"538 576 OFFCURVE",
"447 693 OFFCURVE",
"299 693 CURVE SMOOTH",
"35 693 LINE",
"35 544 LINE",
"299 544 LINE SMOOTH",
"349 544 OFFCURVE",
"387 504 OFFCURVE",
"387 455 CURVE SMOOTH",
"387 405 OFFCURVE",
"348 368 OFFCURVE",
"299 368 CURVE SMOOTH",
"35 368 LINE",
"35 0 LINE",
"186 0 LINE",
"186 217 LINE",
"254 217 LINE",
"379 0 LINE"
);
}
);
width = 575;
}
);
unicode = 0052;
},
{
glyphname = S;
layers = (
{
layerId = "9F8883BC-B634-401D-A38E-6E78924B331A";
paths = (
{
nodes = (
"306 0 LINE SMOOTH",
"437 0 OFFCURVE",
"544 104 OFFCURVE",
"544 238 CURVE SMOOTH",
"544 368 LINE",
"393 368 LINE",
"393 238 LINE SMOOTH",
"393 188 OFFCURVE",
"354 150 OFFCURVE",
"306 150 CURVE SMOOTH",
"30 150 LINE",
"30 0 LINE"
);
},
{
nodes = (
"180 326 LINE",
"180 456 LINE SMOOTH",
"180 503 OFFCURVE",
"217 544 OFFCURVE",
"268 544 CURVE SMOOTH",
"544 544 LINE",
"544 694 LINE",
"268 694 LINE SMOOTH",
"138 694 OFFCURVE",
"30 590 OFFCURVE",
"30 456 CURVE SMOOTH",
"30 326 LINE"
);
}
);
width = 609;
}
);
unicode = 0053;
},
{
glyphname = T;
layers = (
{
layerId = "9F8883BC-B634-401D-A38E-6E78924B331A";
paths = (
{
nodes = (
"530 544 LINE",
"530 694 LINE",
"11 694 LINE",
"11 544 LINE"
);
},
{
nodes = (
"345 0 LINE",
"345 510 LINE",
"196 510 LINE",
"196 0 LINE"
);
}
);
width = 538;
}
);
unicode = 0054;
},
{
glyphname = U;
layers = (
{
layerId = "9F8883BC-B634-401D-A38E-6E78924B331A";
paths = (
{
nodes = (
"497 0 OFFCURVE",
"630 129 OFFCURVE",
"630 292 CURVE SMOOTH",
"630 693 LINE",
"480 693 LINE",
"480 292 LINE SMOOTH",
"480 211 OFFCURVE",
"415 150 OFFCURVE",
"338 150 CURVE SMOOTH",
"254 150 OFFCURVE",
"191 211 OFFCURVE",
"191 292 CURVE SMOOTH",
"191 693 LINE",
"40 693 LINE",
"40 292 LINE SMOOTH",
"40 127 OFFCURVE",
"171 0 OFFCURVE",
"338 0 CURVE SMOOTH"
);
}
);
width = 708;
}
);
unicode = 0055;
},
{
glyphname = W;
layers = (
{
layerId = "9F8883BC-B634-401D-A38E-6E78924B331A";
paths = (
{
nodes = (
"783 60 LINE",
"1045 693 LINE",
"882 693 LINE",
"701 252 LINE"
);
},
{
nodes = (
"772 0 LINE",
"483 693 LINE",
"322 693 LINE",
"355 611 OFFCURVE",
"400 500 OFFCURVE",
"439 412 CURVE",
"376 257 LINE",
"456 63 LINE",
"520 217 LINE",
"610 0 LINE"
);
},
{
nodes = (
"618 449 LINE",
"718 693 LINE",
"557 693 LINE",
"537 642 LINE"
);
},
{
nodes = (
"446 0 LINE",
"157 693 LINE",
"-4 693 LINE",
"285 0 LINE"
);
}
);
width = 1051;
}
);
unicode = 0057;
},
{
glyphname = Y;
layers = (
{
layerId = "9F8883BC-B634-401D-A38E-6E78924B331A";
paths = (
{
nodes = (
"373 415 LINE",
"570 693 LINE",
"390 693 LINE",
"283 550 LINE"
);
},
{
nodes = (
"356 0 LINE",
"356 385 LINE",
"150 693 LINE",
"-29 693 LINE",
"207 340 LINE",
"207 0 LINE"
);
}
);
width = 548;
}
);
unicode = 0059;
},
{
glyphname = Z;
layers = (
{
layerId = "9F8883BC-B634-401D-A38E-6E78924B331A";
paths = (
{
nodes = (
"548 0 LINE",
"548 150 LINE",
"221 150 LINE",
"524 515 LINE",
"330 515 LINE",
"18 137 LINE",
"18 0 LINE"
);
},
{
nodes = (
"548 544 LINE",
"548 694 LINE",
"18 694 LINE",
"18 544 LINE"
);
}
);
width = 602;
}
);
unicode = 005A;
},
{
glyphname = a;
layers = (
{
layerId = "9F8883BC-B634-401D-A38E-6E78924B331A";
paths = (
{
nodes = (
"576 0 LINE",
"275 725 LINE",
"-28 0 LINE",
"134 0 LINE",
"275 337 LINE",
"306 262 OFFCURVE",
"325 217 OFFCURVE",
"354 150 CURVE",
"237 150 LINE",
"175 0 LINE"
);
}
);
width = 573;
}
);
unicode = 0061;
},
{
glyphname = b;
layers = (
{
layerId = "9F8883BC-B634-401D-A38E-6E78924B331A";
paths = (
{
nodes = (
"196 150 LINE",
"196 272 LINE",
"330 272 LINE SMOOTH",
"366 272 OFFCURVE",
"391 244 OFFCURVE",
"391 211 CURVE SMOOTH",
"391 177 OFFCURVE",
"366 150 OFFCURVE",
"330 150 CURVE SMOOTH"
);
},
{
nodes = (
"330 0 LINE SMOOTH",
"464 0 OFFCURVE",
"540 111 OFFCURVE",
"540 213 CURVE SMOOTH",
"540 258 OFFCURVE",
"528 307 OFFCURVE",
"492 348 CURVE",
"528 387 OFFCURVE",
"541 433 OFFCURVE",
"541 480 CURVE SMOOTH",
"541 584 OFFCURVE",
"460 693 OFFCURVE",
"330 693 CURVE SMOOTH",
"46 693 LINE",
"46 544 LINE",
"330 544 LINE SMOOTH",
"366 544 OFFCURVE",
"391 516 OFFCURVE",
"391 482 CURVE SMOOTH",
"391 449 OFFCURVE",
"366 421 OFFCURVE",
"330 421 CURVE SMOOTH",
"46 421 LINE",
"46 0 LINE"
);
}
);
width = 599;
}
);
unicode = 0062;
},
{
glyphname = c;
layers = (
{
layerId = "9F8883BC-B634-401D-A38E-6E78924B331A";
paths = (
{
nodes = (
"502 0 LINE",
"502 150 LINE",
"350 150 LINE SMOOTH",
"241 150 OFFCURVE",
"153 237 OFFCURVE",
"153 346 CURVE SMOOTH",
"153 455 OFFCURVE",
"240 543 OFFCURVE",
"350 543 CURVE SMOOTH",
"502 543 LINE",
"502 693 LINE",
"350 693 LINE SMOOTH",
"158 693 OFFCURVE",
"3 539 OFFCURVE",
"3 346 CURVE SMOOTH",
"3 161 OFFCURVE",
"150 0 OFFCURVE",
"350 0 CURVE SMOOTH"
);
}
);
width = 554;
}
);
unicode = 0063;
},
{
glyphname = d;
layers = (
{
layerId = "9F8883BC-B634-401D-A38E-6E78924B331A";
paths = (
{
nodes = (
"258 0 LINE SMOOTH",
"444 0 OFFCURVE",
"605 150 OFFCURVE",
"605 347 CURVE SMOOTH",
"605 539 OFFCURVE",
"450 694 OFFCURVE",
"258 694 CURVE SMOOTH",
"47 694 LINE",
"47 544 LINE",
"258 544 LINE SMOOTH",
"367 544 OFFCURVE",
"455 457 OFFCURVE",
"455 347 CURVE SMOOTH",
"455 238 OFFCURVE",
"368 150 OFFCURVE",
"258 150 CURVE SMOOTH",
"196 150 LINE",
"196 512 LINE",
"47 512 LINE",
"47 0 LINE"
);
}
);
width = 637;
}
);
unicode = 0064;
},
{
glyphname = e;
layers = (
{
layerId = "9F8883BC-B634-401D-A38E-6E78924B331A";
paths = (
{
nodes = (
"517 0 LINE",
"517 150 LINE",
"360 150 LINE SMOOTH",
"250 150 OFFCURVE",
"164 239 OFFCURVE",
"164 347 CURVE SMOOTH",
"164 456 OFFCURVE",
"251 544 OFFCURVE",
"360 544 CURVE SMOOTH",
"517 544 LINE",
"517 694 LINE",
"360 694 LINE SMOOTH",
"168 694 OFFCURVE",
"14 538 OFFCURVE",
"14 347 CURVE SMOOTH",
"14 161 OFFCURVE",
"162 0 OFFCURVE",
"360 0 CURVE SMOOTH"
);
},
{
nodes = (
"517 272 LINE",
"517 422 LINE",
"211 422 LINE",
"200 391 OFFCURVE",
"195 369 OFFCURVE",
"195 347 CURVE SMOOTH",
"195 328 OFFCURVE",
"200 304 OFFCURVE",
"213 272 CURVE"
);
}
);
width = 570;
}
);
unicode = 0065;
},
{
glyphname = f;
layers = (
{
layerId = "9F8883BC-B634-401D-A38E-6E78924B331A";
paths = (
{
nodes = (
"515 543 LINE",
"515 693 LINE",
"231 693 LINE",
"231 543 LINE"
);
},
{
nodes = (
"195 0 LINE",
"195 271 LINE",
"460 271 LINE",
"460 421 LINE",
"195 421 LINE",
"195 693 LINE",
"45 693 LINE",
"45 0 LINE"
);
}
);
width = 549;
}
);
unicode = 0066;
},
{
glyphname = g;
layers = (
{
layerId = "9F8883BC-B634-401D-A38E-6E78924B331A";
paths = (
{
nodes = (
"550 0 LINE",
"550 150 LINE",
"366 150 LINE SMOOTH",
"257 150 OFFCURVE",
"169 237 OFFCURVE",
"169 347 CURVE SMOOTH",
"169 456 OFFCURVE",
"256 544 OFFCURVE",
"366 544 CURVE SMOOTH",
"550 544 LINE",
"550 694 LINE",
"366 694 LINE SMOOTH",
"181 694 OFFCURVE",
"20 547 OFFCURVE",
"20 347 CURVE SMOOTH",
"20 161 OFFCURVE",
"168 0 OFFCURVE",
"366 0 CURVE SMOOTH"
);
},
{
nodes = (
"550 181 LINE",
"550 422 LINE",
"216 422 LINE",
"205 391 OFFCURVE",
"200 369 OFFCURVE",
"200 347 CURVE SMOOTH",
"200 328 OFFCURVE",
"205 304 OFFCURVE",
"218 272 CURVE",
"399 272 LINE",
"399 181 LINE"
);
}
);
width = 599;
}
);
unicode = 0067;
},
{
glyphname = h;
layers = (
{
layerId = "9F8883BC-B634-401D-A38E-6E78924B331A";
paths = (
{
nodes = (
"596 0 LINE",
"596 694 LINE",
"446 694 LINE",
"446 422 LINE",
"65 422 LINE",
"65 0 LINE",
"216 0 LINE",
"216 272 LINE",
"446 272 LINE",
"446 0 LINE"
);
},
{
nodes = (
"216 454 LINE",
"216 694 LINE",
"65 694 LINE",
"65 454 LINE"
);
}
);
width = 665;
}
);
unicode = 0068;
},
{
glyphname = i;
layers = (
{
layerId = "9F8883BC-B634-401D-A38E-6E78924B331A";
paths = (
{
nodes = (
"207 0 LINE",
"207 693 LINE",
"57 693 LINE",
"57 0 LINE"
);
}
);
width = 260;
}
);
unicode = 0069;
},
{
glyphname = j;
layers = (
{
layerId = "9F8883BC-B634-401D-A38E-6E78924B331A";
paths = (
{
nodes = (
"7 0 LINE",
"149 0 OFFCURVE",
"266 104 OFFCURVE",
"266 238 CURVE SMOOTH",
"266 693 LINE",
"115 693 LINE",
"115 238 LINE SMOOTH",
"115 190 OFFCURVE",
"67 150 OFFCURVE",
"7 150 CURVE"
);
}
);
width = 301;
}
);
unicode = 006A;
},
{
glyphname = k;
layers = (
{
layerId = "9F8883BC-B634-401D-A38E-6E78924B331A";
paths = (
{
nodes = (
"617 0 LINE",
"545 106 OFFCURVE",
"458 239 OFFCURVE",
"385 347 CURVE",
"617 694 LINE",
"437 694 LINE",
"206 347 LINE",
"437 0 LINE"
);
},
{
nodes = (
"196 0 LINE",
"196 694 LINE",
"47 694 LINE",
"47 0 LINE"
);
}
);
width = 636;
}
);
unicode = 006B;
},
{
glyphname = l;
layers = (
{
layerId = "9F8883BC-B634-401D-A38E-6E78924B331A";
paths = (
{
nodes = (
"433 0 LINE",
"433 150 LINE",
"194 150 LINE",
"194 693 LINE",
"44 693 LINE",
"44 0 LINE"
);
}
);
width = 437;
}
);
unicode = 006C;
},
{
glyphname = m;
layers = (
{
layerId = "9F8883BC-B634-401D-A38E-6E78924B331A";
paths = (
{
nodes = (
"733 0 LINE",
"733 694 LINE",
"591 694 LINE",
"406 250 LINE",
"486 55 LINE",
"584 287 LINE",
"584 0 LINE"
);
},
{
nodes = (
"480 0 LINE",
"192 694 LINE",
"49 694 LINE",
"49 0 LINE",
"199 0 LINE",
"199 287 LINE",
"320 0 LINE"
);
}
);
width = 801;
}
);
unicode = 006D;
},
{
glyphname = n;
layers = (
{
layerId = "9F8883BC-B634-401D-A38E-6E78924B331A";
paths = (
{
nodes = (
"632 81 LINE",
"632 693 LINE",
"482 693 LINE",
"482 306 LINE"
);
},
{
nodes = (
"650 0 LINE",
"187 693 LINE",
"47 693 LINE",
"47 0 LINE",
"197 0 LINE",
"197 410 LINE",
"471 0 LINE"
);
}
);
width = 696;
}
);
unicode = 006E;
},
{
glyphname = o;
layers = (
{
layerId = "9F8883BC-B634-401D-A38E-6E78924B331A";
paths = (
{
nodes = (
"504 0 OFFCURVE",
"633 132 OFFCURVE",
"633 292 CURVE SMOOTH",
"633 401 LINE SMOOTH",
"633 520 OFFCURVE",
"562 624 OFFCURVE",
"455 670 CURVE SMOOTH",
"404 692 OFFCURVE",
"371 693 OFFCURVE",
"311 693 CURVE SMOOTH",
"152 693 OFFCURVE",
"18 565 OFFCURVE",
"18 401 CURVE SMOOTH",
"18 292 LINE SMOOTH",
"18 173 OFFCURVE",
"88 70 OFFCURVE",
"198 23 CURVE SMOOTH",
"249 1 OFFCURVE",
"282 0 OFFCURVE",
"341 0 CURVE SMOOTH"
);
},
{
nodes = (
"311 150 LINE SMOOTH",
"230 150 OFFCURVE",
"169 215 OFFCURVE",
"169 292 CURVE SMOOTH",
"169 401 LINE SMOOTH",
"169 481 OFFCURVE",
"231 544 OFFCURVE",
"311 544 CURVE SMOOTH",
"341 544 LINE SMOOTH",
"421 544 OFFCURVE",
"483 480 OFFCURVE",
"483 401 CURVE SMOOTH",
"483 292 LINE SMOOTH",
"483 211 OFFCURVE",
"418 150 OFFCURVE",
"341 150 CURVE SMOOTH"
);
}
);
width = 671;
}
);
unicode = 006F;
},
{
glyphname = p;
layers = (
{
layerId = "9F8883BC-B634-401D-A38E-6E78924B331A";
paths = (
{
nodes = (
"185 0 LINE",
"185 217 LINE",
"295 217 LINE SMOOTH",
"426 217 OFFCURVE",
"532 323 OFFCURVE",
"532 455 CURVE SMOOTH",
"532 585 OFFCURVE",
"429 693 OFFCURVE",
"295 693 CURVE SMOOTH",
"35 693 LINE",
"35 544 LINE",
"295 544 LINE SMOOTH",
"343 544 OFFCURVE",
"382 505 OFFCURVE",
"382 455 CURVE SMOOTH",
"382 407 OFFCURVE",
"343 368 OFFCURVE",
"295 368 CURVE SMOOTH",
"35 368 LINE",
"35 0 LINE"
);
}
);
width = 565;
}
);
unicode = 0070;
},
{
glyphname = q;
layers = (
{
layerId = "9F8883BC-B634-401D-A38E-6E78924B331A";
paths = (
{
nodes = (
"431 0 OFFCURVE",
"495 31 OFFCURVE",
"561 101 CURVE",
"461 276 LINE",
"288 276 LINE",
"359 151 LINE",
"350 150 LINE",
"311 150 LINE SMOOTH",
"230 150 OFFCURVE",
"169 215 OFFCURVE",
"169 292 CURVE SMOOTH",
"169 402 LINE SMOOTH",
"169 483 OFFCURVE",
"234 544 OFFCURVE",
"311 544 CURVE SMOOTH",
"341 544 LINE SMOOTH",
"422 544 OFFCURVE",
"483 479 OFFCURVE",
"483 402 CURVE",
"481 303 LINE",
"582 128 LINE",
"611 175 OFFCURVE",
"633 234 OFFCURVE",
"633 292 CURVE SMOOTH",
"633 402 LINE SMOOTH",
"633 525 OFFCURVE",
"557 627 OFFCURVE",
"455 671 CURVE SMOOTH",
"403 693 OFFCURVE",
"370 694 OFFCURVE",
"311 694 CURVE SMOOTH",
"152 694 OFFCURVE",
"18 564 OFFCURVE",
"18 402 CURVE SMOOTH",
"18 292 LINE SMOOTH",
"18 171 OFFCURVE",
"92 68 OFFCURVE",
"198 23 CURVE SMOOTH",
"249 1 OFFCURVE",
"282 0 OFFCURVE",
"341 0 CURVE SMOOTH"
);
}
);
width = 674;
}
);
unicode = 0071;
},
{
glyphname = r;
layers = (
{
layerId = "9F8883BC-B634-401D-A38E-6E78924B331A";
paths = (
{
nodes = (
"553 0 LINE",
"412 246 LINE",
"503 294 OFFCURVE",
"538 373 OFFCURVE",
"538 452 CURVE SMOOTH",
"538 576 OFFCURVE",
"447 693 OFFCURVE",
"299 693 CURVE SMOOTH",
"35 693 LINE",
"35 544 LINE",
"299 544 LINE SMOOTH",
"349 544 OFFCURVE",
"387 504 OFFCURVE",
"387 455 CURVE SMOOTH",
"387 405 OFFCURVE",
"348 368 OFFCURVE",
"299 368 CURVE SMOOTH",
"35 368 LINE",
"35 0 LINE",
"186 0 LINE",
"186 217 LINE",
"254 217 LINE",
"379 0 LINE"
);
}
);
width = 575;
}
);
unicode = 0072;
},
{
glyphname = s;
layers = (
{
layerId = "9F8883BC-B634-401D-A38E-6E78924B331A";
paths = (
{
nodes = (
"306 0 LINE SMOOTH",
"437 0 OFFCURVE",
"544 104 OFFCURVE",
"544 238 CURVE SMOOTH",
"544 368 LINE",
"393 368 LINE",
"393 238 LINE SMOOTH",
"393 188 OFFCURVE",
"354 150 OFFCURVE",
"306 150 CURVE SMOOTH",
"30 150 LINE",
"30 0 LINE"
);
},
{
nodes = (
"180 326 LINE",
"180 456 LINE SMOOTH",
"180 503 OFFCURVE",
"217 544 OFFCURVE",
"268 544 CURVE SMOOTH",
"544 544 LINE",
"544 694 LINE",
"268 694 LINE SMOOTH",
"138 694 OFFCURVE",
"30 590 OFFCURVE",
"30 456 CURVE SMOOTH",
"30 326 LINE"
);
}
);
width = 609;
}
);
unicode = 0073;
},
{
glyphname = t;
layers = (
{
layerId = "9F8883BC-B634-401D-A38E-6E78924B331A";
paths = (
{
nodes = (
"530 544 LINE",
"530 694 LINE",
"11 694 LINE",
"11 544 LINE"
);
},
{
nodes = (
"345 0 LINE",
"345 510 LINE",
"196 510 LINE",
"196 0 LINE"
);
}
);
width = 538;
}
);
unicode = 0074;
},
{
glyphname = u;
layers = (
{
layerId = "9F8883BC-B634-401D-A38E-6E78924B331A";
paths = (
{
nodes = (
"497 0 OFFCURVE",
"630 129 OFFCURVE",
"630 292 CURVE SMOOTH",
"630 693 LINE",
"480 693 LINE",
"480 292 LINE SMOOTH",
"480 211 OFFCURVE",
"415 150 OFFCURVE",
"338 150 CURVE SMOOTH",
"254 150 OFFCURVE",
"191 211 OFFCURVE",
"191 292 CURVE SMOOTH",
"191 693 LINE",
"40 693 LINE",
"40 292 LINE SMOOTH",
"40 127 OFFCURVE",
"171 0 OFFCURVE",
"338 0 CURVE SMOOTH"
);
}
);
width = 708;
}
);
unicode = 0075;
},
{
glyphname = v;
layers = (
{
layerId = "9F8883BC-B634-401D-A38E-6E78924B331A";
paths = (
{
nodes = (
"455 60 LINE",
"712 693 LINE",
"552 693 LINE",
"373 253 LINE"
);
},
{
nodes = (
"441 0 LINE",
"152 693 LINE",
"-9 693 LINE",
"280 0 LINE"
);
}
);
width = 732;
}
);
unicode = 0076;
},
{
glyphname = w;
layers = (
{
layerId = "9F8883BC-B634-401D-A38E-6E78924B331A";
paths = (
{
nodes = (
"783 60 LINE",
"1045 693 LINE",
"882 693 LINE",
"701 252 LINE"
);
},
{
nodes = (
"772 0 LINE",
"483 693 LINE",
"322 693 LINE",
"355 611 OFFCURVE",
"400 500 OFFCURVE",
"439 412 CURVE",
"376 257 LINE",
"456 63 LINE",
"520 217 LINE",
"610 0 LINE"
);
},
{
nodes = (
"618 449 LINE",
"718 693 LINE",
"557 693 LINE",
"537 642 LINE"
);
},
{
nodes = (
"446 0 LINE",
"157 693 LINE",
"-4 693 LINE",
"285 0 LINE"
);
}
);
width = 1051;
}
);
unicode = 0077;
},
{
glyphname = x;
layers = (
{
layerId = "9F8883BC-B634-401D-A38E-6E78924B331A";
paths = (
{
nodes = (
"377 380 LINE",
"539 693 LINE",
"370 693 LINE",
"292 538 LINE"
);
},
{
nodes = (
"539 0 LINE",
"174 693 LINE",
"5 693 LINE",
"370 0 LINE"
);
},
{
nodes = (
"174 0 LINE",
"256 157 LINE",
"170 313 LINE",
"5 0 LINE"
);
}
);
width = 560;
}
);
unicode = 0078;
},
{
glyphname = y;
layers = (
{
layerId = "9F8883BC-B634-401D-A38E-6E78924B331A";
paths = (
{
nodes = (
"373 415 LINE",
"570 693 LINE",
"390 693 LINE",
"283 550 LINE"
);
},
{
nodes = (
"356 0 LINE",
"356 385 LINE",
"150 693 LINE",
"-29 693 LINE",
"207 340 LINE",
"207 0 LINE"
);
}
);
width = 548;
}
);
unicode = 0079;
},
{
glyphname = z;
layers = (
{
layerId = "9F8883BC-B634-401D-A38E-6E78924B331A";
paths = (
{
nodes = (
"548 0 LINE",
"548 150 LINE",
"221 150 LINE",
"524 515 LINE",
"330 515 LINE",
"18 137 LINE",
"18 0 LINE"
);
},
{
nodes = (
"548 544 LINE",
"548 694 LINE",
"18 694 LINE",
"18 544 LINE"
);
}
);
width = 602;
}
);
unicode = 007A;
},
{
glyphname = D.1;
layers = (
{
layerId = "9F8883BC-B634-401D-A38E-6E78924B331A";
paths = (
{
nodes = (
"258 0 LINE SMOOTH",
"444 0 OFFCURVE",
"605 150 OFFCURVE",
"605 347 CURVE SMOOTH",
"605 539 OFFCURVE",
"450 694 OFFCURVE",
"258 694 CURVE SMOOTH",
"47 694 LINE",
"47 544 LINE",
"258 544 LINE SMOOTH",
"367 544 OFFCURVE",
"455 457 OFFCURVE",
"455 347 CURVE SMOOTH",
"455 238 OFFCURVE",
"368 150 OFFCURVE",
"258 150 CURVE SMOOTH",
"196 150 LINE",
"196 512 LINE",
"47 512 LINE",
"47 0 LINE"
);
}
);
width = 637;
}
);
},
{
glyphname = comma;
layers = (
{
layerId = "9F8883BC-B634-401D-A38E-6E78924B331A";
paths = (
{
nodes = (
"38 -65 OFFCURVE",
"49 -59 OFFCURVE",
"61 -47 CURVE SMOOTH",
"136 31 LINE",
"136 34 LINE",
"139 37 OFFCURVE",
"141 42 OFFCURVE",
"142 47 CURVE",
"147 58 OFFCURVE",
"150 69 OFFCURVE",
"150 79 CURVE",
"149 89 LINE",
"146 102 OFFCURVE",
"141 113 OFFCURVE",
"134 122 CURVE SMOOTH",
"126 131 OFFCURVE",
"116 137 OFFCURVE",
"105 142 CURVE SMOOTH",
"94 147 OFFCURVE",
"82 149 OFFCURVE",
"70 149 CURVE SMOOTH",
"51 149 OFFCURVE",
"35 143 OFFCURVE",
"20 132 CURVE SMOOTH",
"5 120 OFFCURVE",
"-2 100 OFFCURVE",
"-2 73 CURVE SMOOTH",
"-2 -21 LINE SMOOTH",
"-2 -42 OFFCURVE",
"4 -56 OFFCURVE",
"17 -62 CURVE SMOOTH",
"21 -64 OFFCURVE",
"25 -65 OFFCURVE",
"29 -65 CURVE SMOOTH"
);
}
);
width = 149;
}
);
unicode = 002C;
},
{
glyphname = zero;
layers = (
{
layerId = "9F8883BC-B634-401D-A38E-6E78924B331A";
paths = (
{
nodes = (
"504 0 OFFCURVE",
"633 132 OFFCURVE",
"633 292 CURVE SMOOTH",
"633 401 LINE SMOOTH",
"633 520 OFFCURVE",
"562 624 OFFCURVE",
"455 670 CURVE SMOOTH",
"404 692 OFFCURVE",
"371 693 OFFCURVE",
"311 693 CURVE SMOOTH",
"152 693 OFFCURVE",
"18 565 OFFCURVE",
"18 401 CURVE SMOOTH",
"18 292 LINE SMOOTH",
"18 173 OFFCURVE",
"88 70 OFFCURVE",
"198 23 CURVE SMOOTH",
"249 1 OFFCURVE",
"282 0 OFFCURVE",
"341 0 CURVE SMOOTH"
);
},
{
nodes = (
"311 150 LINE SMOOTH",
"230 150 OFFCURVE",
"169 215 OFFCURVE",
"169 292 CURVE SMOOTH",
"169 401 LINE SMOOTH",
"169 481 OFFCURVE",
"231 544 OFFCURVE",
"311 544 CURVE SMOOTH",
"341 544 LINE SMOOTH",
"421 544 OFFCURVE",
"483 480 OFFCURVE",
"483 401 CURVE SMOOTH",
"483 292 LINE SMOOTH",
"483 211 OFFCURVE",
"418 150 OFFCURVE",
"341 150 CURVE SMOOTH"
);
}
);
width = 671;
}
);
unicode = 0030;
},
{
glyphname = one;
layers = (
{
layerId = "9F8883BC-B634-401D-A38E-6E78924B331A";
paths = (
{
nodes = (
"264 0 LINE",
"264 694 LINE",
"25 694 LINE",
"25 544 LINE",
"114 544 LINE",
"114 0 LINE"
);
}
);
width = 319;
}
);
unicode = 0031;
},
{
glyphname = two;
layers = (
{
layerId = "9F8883BC-B634-401D-A38E-6E78924B331A";
paths = (
{
nodes = (
"522 0 LINE",
"522 150 LINE",
"196 150 LINE",
"196 367 LINE",
"46 367 LINE",
"46 0 LINE"
);
},
{
nodes = (
"522 325 LINE",
"522 455 LINE SMOOTH",
"522 585 OFFCURVE",
"419 693 OFFCURVE",
"284 693 CURVE SMOOTH",
"46 693 LINE",
"46 543 LINE",
"284 543 LINE SMOOTH",
"334 543 OFFCURVE",
"372 504 OFFCURVE",
"372 455 CURVE SMOOTH",
"372 325 LINE"
);
}
);
width = 574;
}
);
unicode = 0032;
},
{
glyphname = three;
layers = (
{
layerId = "9F8883BC-B634-401D-A38E-6E78924B331A";
paths = (
{
nodes = (
"281 0 LINE SMOOTH",
"413 0 OFFCURVE",
"519 108 OFFCURVE",
"519 238 CURVE SMOOTH",
"519 455 LINE SMOOTH",
"519 585 OFFCURVE",
"413 693 OFFCURVE",
"281 693 CURVE SMOOTH",
"43 693 LINE",
"43 544 LINE",
"281 544 LINE SMOOTH",
"331 544 OFFCURVE",
"369 504 OFFCURVE",
"369 455 CURVE SMOOTH",
"369 238 LINE SMOOTH",
"369 189 OFFCURVE",
"331 150 OFFCURVE",
"281 150 CURVE SMOOTH",
"43 150 LINE",
"43 0 LINE"
);
},
{
nodes = (
"337 272 LINE",
"337 422 LINE",
"43 422 LINE",
"43 272 LINE"
);
}
);
width = 561;
}
);
unicode = 0033;
},
{
glyphname = four;
layers = (
{
layerId = "9F8883BC-B634-401D-A38E-6E78924B331A";
paths = (
{
nodes = (
"508 0 LINE",
"508 693 LINE",
"368 693 LINE",
"32 299 LINE",
"32 163 LINE",
"325 163 LINE",
"325 312 LINE",
"240 312 LINE",
"287 368 OFFCURVE",
"317 402 OFFCURVE",
"357 449 CURVE",
"357 0 LINE"
);
}
);
width = 554;
}
);
unicode = 0034;
},
{
glyphname = five;
layers = (
{
layerId = "9F8883BC-B634-401D-A38E-6E78924B331A";
paths = (
{
nodes = (
"282 0 LINE SMOOTH",
"413 0 OFFCURVE",
"520 104 OFFCURVE",
"520 238 CURVE SMOOTH",
"520 367 LINE",
"371 367 LINE",
"371 238 LINE SMOOTH",
"371 188 OFFCURVE",
"331 150 OFFCURVE",
"282 150 CURVE SMOOTH",
"44 150 LINE",
"44 0 LINE"
);
},
{
nodes = (
"195 325 LINE",
"195 543 LINE",
"520 543 LINE",
"520 693 LINE",
"44 693 LINE",
"44 325 LINE"
);
}
);
width = 569;
}
);
unicode = 0035;
},
{
glyphname = six;
layers = (
{
layerId = "9F8883BC-B634-401D-A38E-6E78924B331A";
paths = (
{
nodes = (
"327 0 LINE SMOOTH",
"458 0 OFFCURVE",
"565 104 OFFCURVE",
"565 238 CURVE SMOOTH",
"565 339 OFFCURVE",
"483 421 OFFCURVE",
"381 421 CURVE SMOOTH",
"214 421 LINE",
"214 272 LINE",
"381 272 LINE SMOOTH",
"399 272 OFFCURVE",
"415 257 OFFCURVE",
"415 238 CURVE SMOOTH",
"415 187 OFFCURVE",
"374 150 OFFCURVE",
"327 150 CURVE SMOOTH",
"273 150 LINE SMOOTH",
"224 150 OFFCURVE",
"184 188 OFFCURVE",
"184 238 CURVE SMOOTH",
"184 455 LINE SMOOTH",
"184 505 OFFCURVE",
"223 544 OFFCURVE",
"273 544 CURVE SMOOTH",
"456 544 LINE",
"456 693 LINE",
"273 693 LINE SMOOTH",
"140 693 OFFCURVE",
"35 587 OFFCURVE",
"35 455 CURVE SMOOTH",
"35 238 LINE SMOOTH",
"35 103 OFFCURVE",
"143 0 OFFCURVE",
"273 0 CURVE SMOOTH"
);
}
);
width = 614;
}
);
unicode = 0036;
},
{
glyphname = seven;
layers = (
{
layerId = "9F8883BC-B634-401D-A38E-6E78924B331A";
paths = (
{
nodes = (
"501 543 LINE",
"501 693 LINE",
"25 693 LINE",
"25 543 LINE"
);
},
{
nodes = (
"183 0 LINE",
"477 508 LINE",
"304 508 LINE",
"10 0 LINE"
);
}
);
width = 537;
}
);
unicode = 0037;
},
{
glyphname = eight;
layers = (
{
layerId = "9F8883BC-B634-401D-A38E-6E78924B331A";
paths = (
{
nodes = (
"326 0 LINE SMOOTH",
"455 0 OFFCURVE",
"565 104 OFFCURVE",
"565 238 CURVE SMOOTH",
"565 285 OFFCURVE",
"553 313 OFFCURVE",
"528 346 CURVE",
"553 379 OFFCURVE",
"565 408 OFFCURVE",
"565 455 CURVE SMOOTH",
"565 585 OFFCURVE",
"459 693 OFFCURVE",
"326 693 CURVE SMOOTH",
"272 693 LINE SMOOTH",
"139 693 OFFCURVE",
"34 587 OFFCURVE",
"34 455 CURVE SMOOTH",
"34 412 OFFCURVE",
"46 378 OFFCURVE",
"69 346 CURVE",
"46 314 OFFCURVE",
"34 281 OFFCURVE",
"34 238 CURVE SMOOTH",
"34 103 OFFCURVE",
"142 0 OFFCURVE",
"272 0 CURVE SMOOTH"
);
},
{
nodes = (
"218 421 LINE SMOOTH",
"199 421 OFFCURVE",
"184 437 OFFCURVE",
"184 455 CURVE SMOOTH",
"184 506 OFFCURVE",
"225 543 OFFCURVE",
"272 543 CURVE SMOOTH",
"326 543 LINE SMOOTH",
"376 543 OFFCURVE",
"414 504 OFFCURVE",
"414 455 CURVE SMOOTH",
"414 436 OFFCURVE",
"399 421 OFFCURVE",
"381 421 CURVE SMOOTH"
);
},
{
nodes = (
"272 150 LINE SMOOTH",
"225 150 OFFCURVE",
"184 187 OFFCURVE",
"184 238 CURVE SMOOTH",
"184 256 OFFCURVE",
"199 271 OFFCURVE",
"218 271 CURVE SMOOTH",
"381 271 LINE SMOOTH",
"399 271 OFFCURVE",
"414 257 OFFCURVE",
"414 238 CURVE SMOOTH",
"414 189 OFFCURVE",
"376 150 OFFCURVE",
"326 150 CURVE SMOOTH"
);
}
);
width = 622;
}
);
unicode = 0038;
},
{
glyphname = nine;
layers = (
{
layerId = "9F8883BC-B634-401D-A38E-6E78924B331A";
paths = (
{
nodes = (
"312 0 LINE SMOOTH",
"443 0 OFFCURVE",
"549 106 OFFCURVE",
"549 238 CURVE SMOOTH",
"549 455 LINE SMOOTH",
"549 585 OFFCURVE",
"446 693 OFFCURVE",
"312 693 CURVE SMOOTH",
"258 693 LINE SMOOTH",
"126 693 OFFCURVE",
"19 588 OFFCURVE",
"19 455 CURVE SMOOTH",
"19 354 OFFCURVE",
"101 272 OFFCURVE",
"203 272 CURVE SMOOTH",
"369 272 LINE",
"369 421 LINE",
"203 421 LINE SMOOTH",
"185 421 OFFCURVE",
"170 436 OFFCURVE",
"170 455 CURVE SMOOTH",
"170 504 OFFCURVE",
"208 544 OFFCURVE",
"258 544 CURVE SMOOTH",
"312 544 LINE SMOOTH",
"360 544 OFFCURVE",
"400 504 OFFCURVE",
"400 455 CURVE SMOOTH",
"400 238 LINE SMOOTH",
"400 187 OFFCURVE",
"359 150 OFFCURVE",
"312 150 CURVE SMOOTH",
"128 150 LINE",
"128 0 LINE"
);
}
);
width = 603;
}
);
unicode = 0039;
},
{
glyphname = semicolon;
layers = (
{
layerId = "9F8883BC-B634-401D-A38E-6E78924B331A";
paths = (
{
nodes = (
"135 544 OFFCURVE",
"166 578 OFFCURVE",
"166 620 CURVE SMOOTH",
"166 660 OFFCURVE",
"135 694 OFFCURVE",
"91 694 CURVE SMOOTH",
"52 694 OFFCURVE",
"17 662 OFFCURVE",
"17 620 CURVE SMOOTH",
"17 576 OFFCURVE",
"52 544 OFFCURVE",
"91 544 CURVE SMOOTH"
);
},
{
nodes = (
"57 -65 OFFCURVE",
"68 -59 OFFCURVE",
"80 -47 CURVE SMOOTH",
"155 31 LINE",
"155 34 LINE",
"159 39 LINE",
"162 47 LINE",
"167 58 OFFCURVE",
"169 69 OFFCURVE",
"169 79 CURVE",
"168 89 LINE",
"165 102 OFFCURVE",
"160 113 OFFCURVE",
"153 122 CURVE SMOOTH",
"145 131 OFFCURVE",
"135 137 OFFCURVE",
"124 142 CURVE SMOOTH",
"113 147 OFFCURVE",
"101 149 OFFCURVE",
"89 149 CURVE SMOOTH",
"71 149 OFFCURVE",
"55 143 OFFCURVE",
"40 132 CURVE SMOOTH",
"25 120 OFFCURVE",
"17 100 OFFCURVE",
"17 73 CURVE SMOOTH",
"17 -21 LINE SMOOTH",
"17 -42 OFFCURVE",
"23 -56 OFFCURVE",
"36 -62 CURVE SMOOTH",
"40 -64 OFFCURVE",
"44 -65 OFFCURVE",
"48 -65 CURVE SMOOTH"
);
}
);
width = 195;
}
);
unicode = 003B;
},
{
glyphname = question;
layers = (
{
layerId = "9F8883BC-B634-401D-A38E-6E78924B331A";
paths = (
{
nodes = (
"496 272 LINE",
"496 455 LINE SMOOTH",
"496 585 OFFCURVE",
"390 693 OFFCURVE",
"257 693 CURVE SMOOTH",
"19 693 LINE",
"19 544 LINE",
"257 544 LINE SMOOTH",
"307 544 OFFCURVE",
"345 504 OFFCURVE",
"345 455 CURVE SMOOTH",
"345 272 LINE"
);
},
{
nodes = (
"297 0 OFFCURVE",
"332 32 OFFCURVE",
"332 75 CURVE SMOOTH",
"332 119 OFFCURVE",
"298 150 OFFCURVE",
"257 150 CURVE SMOOTH",
"217 150 OFFCURVE",
"183 119 OFFCURVE",
"183 75 CURVE SMOOTH",
"183 34 OFFCURVE",
"214 0 OFFCURVE",
"257 0 CURVE SMOOTH"
);
}
);
width = 548;
}
);
unicode = 003F;
},
{
glyphname = B;
layers = (
{
layerId = "9F8883BC-B634-401D-A38E-6E78924B331A";
paths = (
{
nodes = (
"196 150 LINE",
"196 272 LINE",
"330 272 LINE SMOOTH",
"366 272 OFFCURVE",
"391 244 OFFCURVE",
"391 211 CURVE SMOOTH",
"391 177 OFFCURVE",
"366 150 OFFCURVE",
"330 150 CURVE SMOOTH"
);
},
{
nodes = (
"330 0 LINE SMOOTH",
"464 0 OFFCURVE",
"540 111 OFFCURVE",
"540 213 CURVE SMOOTH",
"540 258 OFFCURVE",
"528 307 OFFCURVE",
"492 348 CURVE",
"528 387 OFFCURVE",
"541 433 OFFCURVE",
"541 480 CURVE SMOOTH",
"541 584 OFFCURVE",
"460 693 OFFCURVE",
"330 693 CURVE SMOOTH",
"46 693 LINE",
"46 544 LINE",
"330 544 LINE SMOOTH",
"366 544 OFFCURVE",
"391 516 OFFCURVE",
"391 482 CURVE SMOOTH",
"391 449 OFFCURVE",
"366 421 OFFCURVE",
"330 421 CURVE SMOOTH",
"46 421 LINE",
"46 0 LINE"
);
}
);
width = 599;
}
);
unicode = 0042;
},
{
glyphname = C.1;
layers = (
{
layerId = "9F8883BC-B634-401D-A38E-6E78924B331A";
paths = (
{
nodes = (
"502 0 LINE",
"502 150 LINE",
"350 150 LINE SMOOTH",
"241 150 OFFCURVE",
"153 237 OFFCURVE",
"153 346 CURVE SMOOTH",
"153 455 OFFCURVE",
"240 543 OFFCURVE",
"350 543 CURVE SMOOTH",
"502 543 LINE",
"502 693 LINE",
"350 693 LINE SMOOTH",
"158 693 OFFCURVE",
"3 539 OFFCURVE",
"3 346 CURVE SMOOTH",
"3 161 OFFCURVE",
"150 0 OFFCURVE",
"350 0 CURVE SMOOTH"
);
}
);
width = 554;
}
);
},
{
glyphname = A;
layers = (
{
layerId = "9F8883BC-B634-401D-A38E-6E78924B331A";
paths = (
{
nodes = (
"576 0 LINE",
"275 725 LINE",
"-28 0 LINE",
"134 0 LINE",
"275 337 LINE",
"306 262 OFFCURVE",
"325 217 OFFCURVE",
"354 150 CURVE",
"237 150 LINE",
"175 0 LINE"
);
}
);
width = 573;
}
);
unicode = 0041;
},
{
glyphname = percent;
layers = (
{
layerId = "9F8883BC-B634-401D-A38E-6E78924B331A";
paths = (
{
nodes = (
"291 0 LINE",
"801 600 LINE",
"702 693 LINE",
"179 85 LINE"
);
},
{
nodes = (
"880 0 OFFCURVE",
"955 77 OFFCURVE",
"955 172 CURVE SMOOTH",
"955 236 LINE SMOOTH",
"955 259 OFFCURVE",
"951 282 OFFCURVE",
"942 303 CURVE SMOOTH",
"910 375 OFFCURVE",
"850 407 OFFCURVE",
"766 407 CURVE SMOOTH",
"671 407 OFFCURVE",
"593 332 OFFCURVE",
"593 236 CURVE SMOOTH",
"593 172 LINE SMOOTH",
"593 148 OFFCURVE",
"598 126 OFFCURVE",
"607 105 CURVE SMOOTH",
"637 32 OFFCURVE",
"698 0 OFFCURVE",
"783 0 CURVE SMOOTH"
);
},
{
nodes = (
"316 286 OFFCURVE",
"391 363 OFFCURVE",
"391 458 CURVE SMOOTH",
"391 522 LINE SMOOTH",
"391 545 OFFCURVE",
"387 568 OFFCURVE",
"378 589 CURVE SMOOTH",
"346 661 OFFCURVE",
"286 693 OFFCURVE",
"202 693 CURVE SMOOTH",
"107 693 OFFCURVE",
"29 618 OFFCURVE",
"29 522 CURVE SMOOTH",
"29 458 LINE SMOOTH",
"29 434 OFFCURVE",
"34 412 OFFCURVE",
"43 391 CURVE SMOOTH",
"73 318 OFFCURVE",
"134 286 OFFCURVE",
"219 286 CURVE SMOOTH"
);
},
{
nodes = (
"763 120 LINE SMOOTH",
"731 120 OFFCURVE",
"707 147 OFFCURVE",
"707 184 CURVE SMOOTH",
"707 232 LINE SMOOTH",
"707 267 OFFCURVE",
"730 296 OFFCURVE",
"763 296 CURVE SMOOTH",
"775 296 LINE SMOOTH",
"807 296 OFFCURVE",
"832 267 OFFCURVE",
"832 232 CURVE SMOOTH",
"832 184 LINE SMOOTH",
"832 146 OFFCURVE",
"805 120 OFFCURVE",
"775 120 CURVE SMOOTH"
);
},
{
nodes = (
"199 406 LINE SMOOTH",
"167 406 OFFCURVE",
"143 433 OFFCURVE",
"143 470 CURVE SMOOTH",
"143 518 LINE SMOOTH",
"143 553 OFFCURVE",
"166 582 OFFCURVE",
"199 582 CURVE SMOOTH",
"211 582 LINE SMOOTH",
"243 582 OFFCURVE",
"268 553 OFFCURVE",
"268 518 CURVE SMOOTH",
"268 470 LINE SMOOTH",
"268 432 OFFCURVE",
"241 406 OFFCURVE",
"211 406 CURVE SMOOTH"
);
}
);
width = 989;
}
);
unicode = 0025;
},
{
glyphname = slash.1;
layers = (
{
layerId = "9F8883BC-B634-401D-A38E-6E78924B331A";
paths = (
{
nodes = (
"224 0 LINE",
"556 693 LINE",
"389 693 LINE",
"57 0 LINE"
);
}
);
width = 594;
}
);
},
{
glyphname = hyphenminus.1;
layers = (
{
layerId = "9F8883BC-B634-401D-A38E-6E78924B331A";
paths = (
{
nodes = (
"362 287 LINE",
"362 407 LINE",
"27 407 LINE",
"27 287 LINE"
);
}
);
width = 399;
}
);
},
{
glyphname = equal;
layers = (
{
layerId = "9F8883BC-B634-401D-A38E-6E78924B331A";
paths = (
{
nodes = (
"463 232 LINE",
"463 336 LINE",
"27 336 LINE",
"27 232 LINE"
);
},
{
nodes = (
"463 383 LINE",
"463 486 LINE",
"27 486 LINE",
"27 383 LINE"
);
}
);
width = 505;
}
);
unicode = 003D;
},
{
glyphname = less;
layers = (
{
layerId = "9F8883BC-B634-401D-A38E-6E78924B331A";
paths = (
{
nodes = (
"360 163 LINE",
"427 247 LINE",
"205 431 LINE",
"427 597 LINE",
"360 681 LINE",
"62 455 LINE",
"62 406 LINE"
);
}
);
width = 524;
}
);
unicode = 003C;
},
{
glyphname = euro;
layers = (
{
layerId = "9F8883BC-B634-401D-A38E-6E78924B331A";
paths = (
{
nodes = (
"463 232 LINE",
"463 336 LINE",
"27 336 LINE",
"27 232 LINE"
);
},
{
nodes = (
"463 383 LINE",
"463 486 LINE",
"27 486 LINE",
"27 383 LINE"
);
},
{
nodes = (
"583 0 LINE",
"583 150 LINE",
"431 150 LINE SMOOTH",
"322 150 OFFCURVE",
"234 237 OFFCURVE",
"234 346 CURVE SMOOTH",
"234 455 OFFCURVE",
"321 543 OFFCURVE",
"431 543 CURVE SMOOTH",
"583 543 LINE",
"583 693 LINE",
"431 693 LINE SMOOTH",
"239 693 OFFCURVE",
"84 539 OFFCURVE",
"84 346 CURVE SMOOTH",
"84 161 OFFCURVE",
"231 0 OFFCURVE",
"431 0 CURVE SMOOTH"
);
}
);
width = 626;
}
);
unicode = 20AC;
},
{
glyphname = greater;
layers = (
{
layerId = "9F8883BC-B634-401D-A38E-6E78924B331A";
paths = (
{
nodes = (
"114 164 LINE",
"412 407 LINE",
"412 456 LINE",
"114 682 LINE",
"47 598 LINE",
"269 432 LINE",
"47 248 LINE"
);
}
);
width = 457;
}
);
unicode = 003E;
},
{
glyphname = brevemod;
layers = (
{
layerId = "9F8883BC-B634-401D-A38E-6E78924B331A";
paths = (
{
nodes = (
"373 724 OFFCURVE",
"443 783 OFFCURVE",
"451 865 CURVE",
"338 865 LINE",
"329 844 OFFCURVE",
"311 834 OFFCURVE",
"286 834 CURVE SMOOTH",
"263 834 OFFCURVE",
"243 847 OFFCURVE",
"234 865 CURVE",
"121 865 LINE",
"134 788 OFFCURVE",
"204 724 OFFCURVE",
"286 724 CURVE SMOOTH"
);
}
);
width = 573;
}
);
unicode = 02D8;
},
{
glyphname = Abreve;
layers = (
{
layerId = "9F8883BC-B634-401D-A38E-6E78924B331A";
paths = (
{
nodes = (
"576 0 LINE",
"275 725 LINE",
"-28 0 LINE",
"134 0 LINE",
"275 337 LINE",
"306 262 OFFCURVE",
"325 217 OFFCURVE",
"354 150 CURVE",
"237 150 LINE",
"175 0 LINE"
);
},
{
nodes = (
"373 725 OFFCURVE",
"443 784 OFFCURVE",
"451 866 CURVE",
"338 866 LINE",
"329 845 OFFCURVE",
"311 835 OFFCURVE",
"286 835 CURVE SMOOTH",
"263 835 OFFCURVE",
"243 848 OFFCURVE",
"234 866 CURVE",
"121 866 LINE",
"134 789 OFFCURVE",
"204 725 OFFCURVE",
"286 725 CURVE SMOOTH"
);
}
);
width = 573;
}
);
unicode = 0102;
},
{
glyphname = caronmod;
layers = (
{
layerId = "9F8883BC-B634-401D-A38E-6E78924B331A";
paths = (
{
nodes = (
"362 730 LINE",
"464 867 LINE",
"314 867 LINE",
"272 810 LINE",
"230 867 LINE",
"80 867 LINE",
"182 730 LINE"
);
}
);
width = 547;
}
);
unicode = 02C7;
},
{
glyphname = Ecaron;
layers = (
{
layerId = "9F8883BC-B634-401D-A38E-6E78924B331A";
paths = (
{
nodes = (
"517 0 LINE",
"517 150 LINE",
"360 150 LINE SMOOTH",
"250 150 OFFCURVE",
"164 239 OFFCURVE",
"164 347 CURVE SMOOTH",
"164 456 OFFCURVE",
"251 544 OFFCURVE",
"360 544 CURVE SMOOTH",
"517 544 LINE",
"517 694 LINE",
"360 694 LINE SMOOTH",
"168 694 OFFCURVE",
"14 538 OFFCURVE",
"14 347 CURVE SMOOTH",
"14 161 OFFCURVE",
"162 0 OFFCURVE",
"360 0 CURVE SMOOTH"
);
},
{
nodes = (
"517 272 LINE",
"517 422 LINE",
"211 422 LINE",
"200 391 OFFCURVE",
"195 369 OFFCURVE",
"195 347 CURVE SMOOTH",
"195 328 OFFCURVE",
"200 304 OFFCURVE",
"213 272 CURVE"
);
},
{
nodes = (
"375 731 LINE",
"477 868 LINE",
"327 868 LINE",
"285 811 LINE",
"243 868 LINE",
"93 868 LINE",
"195 731 LINE"
);
}
);
width = 570;
}
);
unicode = 011A;
},
{
glyphname = grave;
layers = (
{
layerId = "9F8883BC-B634-401D-A38E-6E78924B331A";
paths = (
{
nodes = (
"337 730 LINE",
"230 867 LINE",
"80 867 LINE",
"182 730 LINE"
);
}
);
width = 423;
}
);
unicode = 0060;
},
{
glyphname = acute;
layers = (
{
layerId = "9F8883BC-B634-401D-A38E-6E78924B331A";
paths = (
{
nodes = (
"216 730 LINE",
"318 867 LINE",
"155 867 LINE",
"48 730 LINE"
);
}
);
width = 372;
}
);
unicode = 00B4;
},
{
glyphname = Nacute;
layers = (
{
layerId = "9F8883BC-B634-401D-A38E-6E78924B331A";
paths = (
{
nodes = (
"632 81 LINE",
"632 693 LINE",
"482 693 LINE",
"482 306 LINE"
);
},
{
nodes = (
"650 0 LINE",
"187 693 LINE",
"47 693 LINE",
"47 0 LINE",
"197 0 LINE",
"197 410 LINE",
"471 0 LINE"
);
},
{
nodes = (
"381 731 LINE",
"483 868 LINE",
"320 868 LINE",
"213 731 LINE"
);
}
);
width = 696;
}
);
unicode = 0143;
},
{
glyphname = Lslash;
layers = (
{
layerId = "9F8883BC-B634-401D-A38E-6E78924B331A";
paths = (
{
nodes = (
"477 0 LINE",
"477 150 LINE",
"238 150 LINE",
"238 693 LINE",
"88 693 LINE",
"88 0 LINE"
);
},
{
nodes = (
"368 287 LINE",
"368 407 LINE",
"33 407 LINE",
"33 287 LINE"
);
}
);
width = 508;
}
);
unicode = 0141;
},
{
glyphname = Ncaron;
layers = (
{
layerId = "9F8883BC-B634-401D-A38E-6E78924B331A";
paths = (
{
nodes = (
"632 81 LINE",
"632 693 LINE",
"482 693 LINE",
"482 306 LINE"
);
},
{
nodes = (
"650 0 LINE",
"187 693 LINE",
"47 693 LINE",
"47 0 LINE",
"197 0 LINE",
"197 410 LINE",
"471 0 LINE"
);
},
{
nodes = (
"438 731 LINE",
"540 868 LINE",
"390 868 LINE",
"348 811 LINE",
"306 868 LINE",
"156 868 LINE",
"258 731 LINE"
);
}
);
width = 696;
}
);
unicode = 0147;
},
{
glyphname = Oacute;
layers = (
{
layerId = "9F8883BC-B634-401D-A38E-6E78924B331A";
paths = (
{
nodes = (
"504 0 OFFCURVE",
"633 132 OFFCURVE",
"633 292 CURVE SMOOTH",
"633 401 LINE SMOOTH",
"633 520 OFFCURVE",
"562 624 OFFCURVE",
"455 670 CURVE SMOOTH",
"404 692 OFFCURVE",
"371 693 OFFCURVE",
"311 693 CURVE SMOOTH",
"152 693 OFFCURVE",
"18 565 OFFCURVE",
"18 401 CURVE SMOOTH",
"18 292 LINE SMOOTH",
"18 173 OFFCURVE",
"88 70 OFFCURVE",
"198 23 CURVE SMOOTH",
"249 1 OFFCURVE",
"282 0 OFFCURVE",
"341 0 CURVE SMOOTH"
);
},
{
nodes = (
"311 150 LINE SMOOTH",
"230 150 OFFCURVE",
"169 215 OFFCURVE",
"169 292 CURVE SMOOTH",
"169 401 LINE SMOOTH",
"169 481 OFFCURVE",
"231 544 OFFCURVE",
"311 544 CURVE SMOOTH",
"341 544 LINE SMOOTH",
"421 544 OFFCURVE",
"483 480 OFFCURVE",
"483 401 CURVE SMOOTH",
"483 292 LINE SMOOTH",
"483 211 OFFCURVE",
"418 150 OFFCURVE",
"341 150 CURVE SMOOTH"
);
},
{
nodes = (
"368 731 LINE",
"470 868 LINE",
"307 868 LINE",
"200 731 LINE"
);
}
);
width = 671;
}
);
unicode = 00D3;
},
{
glyphname = doubleacutemod;
layers = (
{
layerId = "9F8883BC-B634-401D-A38E-6E78924B331A";
paths = (
{
nodes = (
"278 730 LINE",
"380 867 LINE",
"217 867 LINE",
"110 730 LINE"
);
},
{
nodes = (
"514 730 LINE",
"616 867 LINE",
"453 867 LINE",
"346 730 LINE"
);
}
);
width = 714;
}
);
unicode = 02DD;
},
{
glyphname = Odoubleacute;
layers = (
{
layerId = "9F8883BC-B634-401D-A38E-6E78924B331A";
paths = (
{
nodes = (
"504 0 OFFCURVE",
"633 132 OFFCURVE",
"633 292 CURVE SMOOTH",
"633 401 LINE SMOOTH",
"633 520 OFFCURVE",
"562 624 OFFCURVE",
"455 670 CURVE SMOOTH",
"404 692 OFFCURVE",
"371 693 OFFCURVE",
"311 693 CURVE SMOOTH",
"152 693 OFFCURVE",
"18 565 OFFCURVE",
"18 401 CURVE SMOOTH",
"18 292 LINE SMOOTH",
"18 173 OFFCURVE",
"88 70 OFFCURVE",
"198 23 CURVE SMOOTH",
"249 1 OFFCURVE",
"282 0 OFFCURVE",
"341 0 CURVE SMOOTH"
);
},
{
nodes = (
"311 150 LINE SMOOTH",
"230 150 OFFCURVE",
"169 215 OFFCURVE",
"169 292 CURVE SMOOTH",
"169 401 LINE SMOOTH",
"169 481 OFFCURVE",
"231 544 OFFCURVE",
"311 544 CURVE SMOOTH",
"341 544 LINE SMOOTH",
"421 544 OFFCURVE",
"483 480 OFFCURVE",
"483 401 CURVE SMOOTH",
"483 292 LINE SMOOTH",
"483 211 OFFCURVE",
"418 150 OFFCURVE",
"341 150 CURVE SMOOTH"
);
},
{
nodes = (
"245 731 LINE",
"347 868 LINE",
"184 868 LINE",
"77 731 LINE"
);
},
{
nodes = (
"481 731 LINE",
"583 868 LINE",
"420 868 LINE",
"313 731 LINE"
);
}
);
width = 671;
}
);
unicode = 0150;
},
{
glyphname = ellipsis;
layers = (
{
layerId = "9F8883BC-B634-401D-A38E-6E78924B331A";
paths = (
{
nodes = (
"114 0 OFFCURVE",
"149 32 OFFCURVE",
"149 75 CURVE SMOOTH",
"149 119 OFFCURVE",
"115 150 OFFCURVE",
"74 150 CURVE SMOOTH",
"33 150 OFFCURVE",
"-1 119 OFFCURVE",
"-1 75 CURVE SMOOTH",
"-1 32 OFFCURVE",
"34 0 OFFCURVE",
"74 0 CURVE SMOOTH"
);
},
{
nodes = (
"265 0 OFFCURVE",
"300 32 OFFCURVE",
"300 75 CURVE SMOOTH",
"300 119 OFFCURVE",
"266 150 OFFCURVE",
"225 150 CURVE SMOOTH",
"184 150 OFFCURVE",
"150 119 OFFCURVE",
"150 75 CURVE SMOOTH",
"150 32 OFFCURVE",
"185 0 OFFCURVE",
"225 0 CURVE SMOOTH"
);
},
{
nodes = (
"416 0 OFFCURVE",
"451 32 OFFCURVE",
"451 75 CURVE SMOOTH",
"451 119 OFFCURVE",
"417 150 OFFCURVE",
"376 150 CURVE SMOOTH",
"335 150 OFFCURVE",
"301 119 OFFCURVE",
"301 75 CURVE SMOOTH",
"301 35 OFFCURVE",
"333 0 OFFCURVE",
"376 0 CURVE SMOOTH"
);
}
);
width = 453;
}
);
unicode = 2026;
},
{
glyphname = dieresis;
layers = (
{
layerId = "9F8883BC-B634-401D-A38E-6E78924B331A";
paths = (
{
nodes = (
"211 728 OFFCURVE",
"246 760 OFFCURVE",
"246 803 CURVE SMOOTH",
"246 847 OFFCURVE",
"212 878 OFFCURVE",
"171 878 CURVE SMOOTH",
"130 878 OFFCURVE",
"96 847 OFFCURVE",
"96 803 CURVE SMOOTH",
"96 763 OFFCURVE",
"128 728 OFFCURVE",
"171 728 CURVE SMOOTH"
);
},
{
nodes = (
"436 728 OFFCURVE",
"471 760 OFFCURVE",
"471 803 CURVE SMOOTH",
"471 847 OFFCURVE",
"437 878 OFFCURVE",
"396 878 CURVE SMOOTH",
"355 878 OFFCURVE",
"321 847 OFFCURVE",
"321 803 CURVE SMOOTH",
"321 763 OFFCURVE",
"353 728 OFFCURVE",
"396 728 CURVE SMOOTH"
);
}
);
width = 555;
}
);
unicode = 00A8;
},
{
glyphname = Edieresis;
layers = (
{
layerId = "9F8883BC-B634-401D-A38E-6E78924B331A";
paths = (
{
nodes = (
"517 0 LINE",
"517 150 LINE",
"360 150 LINE SMOOTH",
"250 150 OFFCURVE",
"164 239 OFFCURVE",
"164 347 CURVE SMOOTH",
"164 456 OFFCURVE",
"251 544 OFFCURVE",
"360 544 CURVE SMOOTH",
"517 544 LINE",
"517 694 LINE",
"360 694 LINE SMOOTH",
"168 694 OFFCURVE",
"14 538 OFFCURVE",
"14 347 CURVE SMOOTH",
"14 161 OFFCURVE",
"162 0 OFFCURVE",
"360 0 CURVE SMOOTH"
);
},
{
nodes = (
"517 272 LINE",
"517 422 LINE",
"211 422 LINE",
"200 391 OFFCURVE",
"195 369 OFFCURVE",
"195 347 CURVE SMOOTH",
"195 328 OFFCURVE",
"200 304 OFFCURVE",
"213 272 CURVE"
);
},
{
nodes = (
"205 729 OFFCURVE",
"240 761 OFFCURVE",
"240 804 CURVE SMOOTH",
"240 848 OFFCURVE",
"206 879 OFFCURVE",
"165 879 CURVE SMOOTH",
"124 879 OFFCURVE",
"90 848 OFFCURVE",
"90 804 CURVE SMOOTH",
"90 761 OFFCURVE",
"125 729 OFFCURVE",
"165 729 CURVE SMOOTH"
);
},
{
nodes = (
"430 729 OFFCURVE",
"465 761 OFFCURVE",
"465 804 CURVE SMOOTH",
"465 848 OFFCURVE",
"431 879 OFFCURVE",
"390 879 CURVE SMOOTH",
"349 879 OFFCURVE",
"315 848 OFFCURVE",
"315 804 CURVE SMOOTH",
"315 764 OFFCURVE",
"347 729 OFFCURVE",
"390 729 CURVE SMOOTH"
);
}
);
width = 570;
}
);
unicode = 00CB;
},
{
glyphname = ogonekmod;
layers = (
{
layerId = "9F8883BC-B634-401D-A38E-6E78924B331A";
paths = (
{
nodes = (
"314 -280 LINE",
"314 -199 LINE",
"210 -199 LINE SMOOTH",
"198 -199 OFFCURVE",
"189 -190 OFFCURVE",
"189 -178 CURVE SMOOTH",
"189 -157 LINE",
"314 -157 LINE",
"314 0 LINE",
"232 0 LINE",
"232 -84 LINE",
"107 -84 LINE",
"107 -178 LINE SMOOTH",
"107 -236 OFFCURVE",
"155 -280 OFFCURVE",
"210 -280 CURVE SMOOTH"
);
}
);
width = 423;
}
);
unicode = 02DB;
},
{
glyphname = Eogonek;
layers = (
{
layerId = "9F8883BC-B634-401D-A38E-6E78924B331A";
paths = (
{
nodes = (
"517 0 LINE",
"517 150 LINE",
"360 150 LINE SMOOTH",
"250 150 OFFCURVE",
"164 239 OFFCURVE",
"164 347 CURVE SMOOTH",
"164 456 OFFCURVE",
"251 544 OFFCURVE",
"360 544 CURVE SMOOTH",
"517 544 LINE",
"517 694 LINE",
"360 694 LINE SMOOTH",
"168 694 OFFCURVE",
"14 538 OFFCURVE",
"14 347 CURVE SMOOTH",
"14 161 OFFCURVE",
"162 0 OFFCURVE",
"360 0 CURVE SMOOTH"
);
},
{
nodes = (
"517 272 LINE",
"517 422 LINE",
"211 422 LINE",
"200 391 OFFCURVE",
"195 369 OFFCURVE",
"195 347 CURVE SMOOTH",
"195 328 OFFCURVE",
"200 304 OFFCURVE",
"213 272 CURVE"
);
},
{
nodes = (
"480 -280 LINE",
"480 -199 LINE",
"376 -199 LINE SMOOTH",
"364 -199 OFFCURVE",
"355 -190 OFFCURVE",
"355 -178 CURVE SMOOTH",
"355 -157 LINE",
"480 -157 LINE",
"480 0 LINE",
"398 0 LINE",
"398 -84 LINE",
"273 -84 LINE",
"273 -178 LINE SMOOTH",
"273 -236 OFFCURVE",
"321 -280 OFFCURVE",
"376 -280 CURVE SMOOTH"
);
}
);
width = 570;
}
);
unicode = 0118;
},
{
glyphname = Eacute;
layers = (
{
layerId = "9F8883BC-B634-401D-A38E-6E78924B331A";
paths = (
{
nodes = (
"517 0 LINE",
"517 150 LINE",
"360 150 LINE SMOOTH",
"250 150 OFFCURVE",
"164 239 OFFCURVE",
"164 347 CURVE SMOOTH",
"164 456 OFFCURVE",
"251 544 OFFCURVE",
"360 544 CURVE SMOOTH",
"517 544 LINE",
"517 694 LINE",
"360 694 LINE SMOOTH",
"168 694 OFFCURVE",
"14 538 OFFCURVE",
"14 347 CURVE SMOOTH",
"14 161 OFFCURVE",
"162 0 OFFCURVE",
"360 0 CURVE SMOOTH"
);
},
{
nodes = (
"517 272 LINE",
"517 422 LINE",
"211 422 LINE",
"200 391 OFFCURVE",
"195 369 OFFCURVE",
"195 347 CURVE SMOOTH",
"195 328 OFFCURVE",
"200 304 OFFCURVE",
"213 272 CURVE"
);
},
{
nodes = (
"318 731 LINE",
"420 868 LINE",
"257 868 LINE",
"150 731 LINE"
);
}
);
width = 570;
}
);
unicode = 00C9;
},
{
glyphname = Ccaron;
layers = (
{
layerId = "9F8883BC-B634-401D-A38E-6E78924B331A";
paths = (
{
nodes = (
"502 0 LINE",
"502 150 LINE",
"350 150 LINE SMOOTH",
"241 150 OFFCURVE",
"153 237 OFFCURVE",
"153 346 CURVE SMOOTH",
"153 455 OFFCURVE",
"240 543 OFFCURVE",
"350 543 CURVE SMOOTH",
"502 543 LINE",
"502 693 LINE",
"350 693 LINE SMOOTH",
"158 693 OFFCURVE",
"3 539 OFFCURVE",
"3 346 CURVE SMOOTH",
"3 161 OFFCURVE",
"150 0 OFFCURVE",
"350 0 CURVE SMOOTH"
);
},
{
nodes = (
"367 731 LINE",
"469 868 LINE",
"319 868 LINE",
"277 811 LINE",
"235 868 LINE",
"85 868 LINE",
"187 731 LINE"
);
}
);
width = 554;
}
);
unicode = 010C;
},
{
glyphname = cedilla;
layers = (
{
layerId = "9F8883BC-B634-401D-A38E-6E78924B331A";
paths = (
{
nodes = (
"211 -280 LINE SMOOTH",
"267 -280 OFFCURVE",
"314 -235 OFFCURVE",
"314 -178 CURVE SMOOTH",
"314 -84 LINE",
"189 -84 LINE",
"189 76 LINE",
"107 76 LINE",
"107 -157 LINE",
"232 -157 LINE",
"232 -178 LINE SMOOTH",
"232 -190 OFFCURVE",
"223 -199 OFFCURVE",
"211 -199 CURVE SMOOTH",
"107 -199 LINE",
"107 -280 LINE"
);
}
);
width = 401;
}
);
unicode = 00B8;
},
{
glyphname = Ccedilla;
layers = (
{
layerId = "9F8883BC-B634-401D-A38E-6E78924B331A";
paths = (
{
nodes = (
"502 0 LINE",
"502 150 LINE",
"350 150 LINE SMOOTH",
"241 150 OFFCURVE",
"153 237 OFFCURVE",
"153 346 CURVE SMOOTH",
"153 455 OFFCURVE",
"240 543 OFFCURVE",
"350 543 CURVE SMOOTH",
"502 543 LINE",
"502 693 LINE",
"350 693 LINE SMOOTH",
"158 693 OFFCURVE",
"3 539 OFFCURVE",
"3 346 CURVE SMOOTH",
"3 161 OFFCURVE",
"150 0 OFFCURVE",
"350 0 CURVE SMOOTH"
);
},
{
nodes = (
"274 -280 LINE SMOOTH",
"330 -280 OFFCURVE",
"377 -235 OFFCURVE",
"377 -178 CURVE SMOOTH",
"377 -84 LINE",
"252 -84 LINE",
"252 76 LINE",
"170 76 LINE",
"170 -157 LINE",
"295 -157 LINE",
"295 -178 LINE SMOOTH",
"295 -190 OFFCURVE",
"286 -199 OFFCURVE",
"274 -199 CURVE SMOOTH",
"170 -199 LINE",
"170 -280 LINE"
);
}
);
width = 554;
}
);
unicode = 00C7;
},
{
glyphname = trademark;
layers = (
{
layerId = "9F8883BC-B634-401D-A38E-6E78924B331A";
paths = (
{
nodes = (
"273 577 LINE",
"273 645 LINE",
"39 645 LINE",
"39 577 LINE"
);
},
{
nodes = (
"190 331 LINE",
"190 562 LINE",
"123 562 LINE",
"123 331 LINE"
);
},
{
nodes = (
"608 331 LINE",
"608 645 LINE",
"544 645 LINE",
"461 444 LINE",
"497 356 LINE",
"541 461 LINE",
"541 331 LINE"
);
},
{
nodes = (
"494 331 LINE",
"364 645 LINE",
"299 645 LINE",
"299 331 LINE",
"367 331 LINE",
"367 461 LINE",
"422 331 LINE"
);
}
);
width = 645;
}
);
unicode = 2122;
},
{
glyphname = Udieresis;
layers = (
{
layerId = "9F8883BC-B634-401D-A38E-6E78924B331A";
paths = (
{
nodes = (
"497 0 OFFCURVE",
"630 129 OFFCURVE",
"630 292 CURVE SMOOTH",
"630 693 LINE",
"480 693 LINE",
"480 292 LINE SMOOTH",
"480 211 OFFCURVE",
"415 150 OFFCURVE",
"338 150 CURVE SMOOTH",
"254 150 OFFCURVE",
"191 211 OFFCURVE",
"191 292 CURVE SMOOTH",
"191 693 LINE",
"40 693 LINE",
"40 292 LINE SMOOTH",
"40 127 OFFCURVE",
"171 0 OFFCURVE",
"338 0 CURVE SMOOTH"
);
},
{
nodes = (
"274 729 OFFCURVE",
"309 761 OFFCURVE",
"309 804 CURVE SMOOTH",
"309 848 OFFCURVE",
"275 879 OFFCURVE",
"234 879 CURVE SMOOTH",
"193 879 OFFCURVE",
"159 848 OFFCURVE",
"159 804 CURVE SMOOTH",
"159 761 OFFCURVE",
"194 729 OFFCURVE",
"234 729 CURVE SMOOTH"
);
},
{
nodes = (
"502 729 OFFCURVE",
"534 764 OFFCURVE",
"534 804 CURVE SMOOTH",
"534 848 OFFCURVE",
"500 879 OFFCURVE",
"459 879 CURVE SMOOTH",
"418 879 OFFCURVE",
"384 848 OFFCURVE",
"384 804 CURVE SMOOTH",
"384 764 OFFCURVE",
"416 729 OFFCURVE",
"459 729 CURVE SMOOTH"
);
}
);
width = 708;
}
);
unicode = 00DC;
},
{
glyphname = Udoubleacute;
layers = (
{
layerId = "9F8883BC-B634-401D-A38E-6E78924B331A";
paths = (
{
nodes = (
"497 0 OFFCURVE",
"630 129 OFFCURVE",
"630 292 CURVE SMOOTH",
"630 693 LINE",
"480 693 LINE",
"480 292 LINE SMOOTH",
"480 211 OFFCURVE",
"415 150 OFFCURVE",
"338 150 CURVE SMOOTH",
"254 150 OFFCURVE",
"191 211 OFFCURVE",
"191 292 CURVE SMOOTH",
"191 693 LINE",
"40 693 LINE",
"40 292 LINE SMOOTH",
"40 127 OFFCURVE",
"171 0 OFFCURVE",
"338 0 CURVE SMOOTH"
);
},
{
nodes = (
"263 731 LINE",
"365 868 LINE",
"202 868 LINE",
"95 731 LINE"
);
},
{
nodes = (
"499 731 LINE",
"601 868 LINE",
"438 868 LINE",
"331 731 LINE"
);
}
);
width = 708;
}
);
unicode = 0170;
},
{
glyphname = Uacute;
layers = (
{
layerId = "9F8883BC-B634-401D-A38E-6E78924B331A";
paths = (
{
nodes = (
"497 0 OFFCURVE",
"630 129 OFFCURVE",
"630 292 CURVE SMOOTH",
"630 693 LINE",
"480 693 LINE",
"480 292 LINE SMOOTH",
"480 211 OFFCURVE",
"415 150 OFFCURVE",
"338 150 CURVE SMOOTH",
"254 150 OFFCURVE",
"191 211 OFFCURVE",
"191 292 CURVE SMOOTH",
"191 693 LINE",
"40 693 LINE",
"40 292 LINE SMOOTH",
"40 127 OFFCURVE",
"171 0 OFFCURVE",
"338 0 CURVE SMOOTH"
);
},
{
nodes = (
"387 731 LINE",
"489 868 LINE",
"326 868 LINE",
"219 731 LINE"
);
}
);
width = 708;
}
);
unicode = 00DA;
},
{
glyphname = Rcaron;
layers = (
{
layerId = "9F8883BC-B634-401D-A38E-6E78924B331A";
paths = (
{
nodes = (
"553 0 LINE",
"412 246 LINE",
"503 294 OFFCURVE",
"538 373 OFFCURVE",
"538 452 CURVE SMOOTH",
"538 576 OFFCURVE",
"447 693 OFFCURVE",
"299 693 CURVE SMOOTH",
"35 693 LINE",
"35 544 LINE",
"299 544 LINE SMOOTH",
"349 544 OFFCURVE",
"387 504 OFFCURVE",
"387 455 CURVE SMOOTH",
"387 405 OFFCURVE",
"348 368 OFFCURVE",
"299 368 CURVE SMOOTH",
"35 368 LINE",
"35 0 LINE",
"186 0 LINE",
"186 217 LINE",
"254 217 LINE",
"379 0 LINE"
);
},
{
nodes = (
"377 731 LINE",
"479 868 LINE",
"329 868 LINE",
"287 811 LINE",
"245 868 LINE",
"95 868 LINE",
"197 731 LINE"
);
}
);
width = 575;
}
);
unicode = 0158;
},
{
glyphname = Adieresis;
layers = (
{
layerId = "9F8883BC-B634-401D-A38E-6E78924B331A";
paths = (
{
nodes = (
"576 0 LINE",
"275 725 LINE",
"-28 0 LINE",
"134 0 LINE",
"275 337 LINE",
"306 262 OFFCURVE",
"325 217 OFFCURVE",
"354 150 CURVE",
"237 150 LINE",
"175 0 LINE"
);
},
{
nodes = (
"207 729 OFFCURVE",
"242 761 OFFCURVE",
"242 804 CURVE SMOOTH",
"242 848 OFFCURVE",
"208 879 OFFCURVE",
"167 879 CURVE SMOOTH",
"126 879 OFFCURVE",
"92 848 OFFCURVE",
"92 804 CURVE SMOOTH",
"92 764 OFFCURVE",
"124 729 OFFCURVE",
"167 729 CURVE SMOOTH"
);
},
{
nodes = (
"432 729 OFFCURVE",
"467 761 OFFCURVE",
"467 804 CURVE SMOOTH",
"467 848 OFFCURVE",
"433 879 OFFCURVE",
"392 879 CURVE SMOOTH",
"351 879 OFFCURVE",
"317 848 OFFCURVE",
"317 804 CURVE SMOOTH",
"317 764 OFFCURVE",
"349 729 OFFCURVE",
"392 729 CURVE SMOOTH"
);
}
);
width = 573;
}
);
unicode = 00C4;
},
{
glyphname = Lacute;
layers = (
{
layerId = "9F8883BC-B634-401D-A38E-6E78924B331A";
paths = (
{
nodes = (
"433 0 LINE",
"433 150 LINE",
"194 150 LINE",
"194 693 LINE",
"44 693 LINE",
"44 0 LINE"
);
},
{
nodes = (
"251 731 LINE",
"353 868 LINE",
"190 868 LINE",
"83 731 LINE"
);
}
);
width = 437;
}
);
unicode = 0139;
},
{
glyphname = Cacute;
layers = (
{
layerId = "9F8883BC-B634-401D-A38E-6E78924B331A";
paths = (
{
nodes = (
"502 0 LINE",
"502 150 LINE",
"350 150 LINE SMOOTH",
"241 150 OFFCURVE",
"153 237 OFFCURVE",
"153 346 CURVE SMOOTH",
"153 455 OFFCURVE",
"240 543 OFFCURVE",
"350 543 CURVE SMOOTH",
"502 543 LINE",
"502 693 LINE",
"350 693 LINE SMOOTH",
"158 693 OFFCURVE",
"3 539 OFFCURVE",
"3 346 CURVE SMOOTH",
"3 161 OFFCURVE",
"150 0 OFFCURVE",
"350 0 CURVE SMOOTH"
);
},
{
nodes = (
"310 731 LINE",
"412 868 LINE",
"249 868 LINE",
"142 731 LINE"
);
}
);
width = 554;
}
);
unicode = 0106;
},
{
glyphname = udoubleacute;
layers = (
{
layerId = "9F8883BC-B634-401D-A38E-6E78924B331A";
paths = (
{
nodes = (
"497 0 OFFCURVE",
"630 129 OFFCURVE",
"630 292 CURVE SMOOTH",
"630 693 LINE",
"480 693 LINE",
"480 292 LINE SMOOTH",
"480 211 OFFCURVE",
"415 150 OFFCURVE",
"338 150 CURVE SMOOTH",
"254 150 OFFCURVE",
"191 211 OFFCURVE",
"191 292 CURVE SMOOTH",
"191 693 LINE",
"40 693 LINE",
"40 292 LINE SMOOTH",
"40 127 OFFCURVE",
"171 0 OFFCURVE",
"338 0 CURVE SMOOTH"
);
},
{
nodes = (
"263 730 LINE",
"365 867 LINE",
"202 867 LINE",
"95 730 LINE"
);
},
{
nodes = (
"499 730 LINE",
"601 867 LINE",
"438 867 LINE",
"331 730 LINE"
);
}
);
width = 708;
}
);
unicode = 0171;
},
{
glyphname = udieresis;
layers = (
{
layerId = "9F8883BC-B634-401D-A38E-6E78924B331A";
paths = (
{
nodes = (
"497 0 OFFCURVE",
"630 129 OFFCURVE",
"630 292 CURVE SMOOTH",
"630 693 LINE",
"480 693 LINE",
"480 292 LINE SMOOTH",
"480 211 OFFCURVE",
"415 150 OFFCURVE",
"338 150 CURVE SMOOTH",
"254 150 OFFCURVE",
"191 211 OFFCURVE",
"191 292 CURVE SMOOTH",
"191 693 LINE",
"40 693 LINE",
"40 292 LINE SMOOTH",
"40 127 OFFCURVE",
"171 0 OFFCURVE",
"338 0 CURVE SMOOTH"
);
},
{
nodes = (
"274 728 OFFCURVE",
"309 760 OFFCURVE",
"309 803 CURVE SMOOTH",
"309 847 OFFCURVE",
"275 878 OFFCURVE",
"234 878 CURVE SMOOTH",
"193 878 OFFCURVE",
"159 847 OFFCURVE",
"159 803 CURVE SMOOTH",
"159 760 OFFCURVE",
"194 728 OFFCURVE",
"234 728 CURVE SMOOTH"
);
},
{
nodes = (
"502 728 OFFCURVE",
"534 763 OFFCURVE",
"534 803 CURVE SMOOTH",
"534 847 OFFCURVE",
"500 878 OFFCURVE",
"459 878 CURVE SMOOTH",
"418 878 OFFCURVE",
"384 847 OFFCURVE",
"384 803 CURVE SMOOTH",
"384 763 OFFCURVE",
"416 728 OFFCURVE",
"459 728 CURVE SMOOTH"
);
}
);
width = 708;
}
);
unicode = 00FC;
},
{
glyphname = uacute;
layers = (
{
layerId = "9F8883BC-B634-401D-A38E-6E78924B331A";
paths = (
{
nodes = (
"497 0 OFFCURVE",
"630 129 OFFCURVE",
"630 292 CURVE SMOOTH",
"630 693 LINE",
"480 693 LINE",
"480 292 LINE SMOOTH",
"480 211 OFFCURVE",
"415 150 OFFCURVE",
"338 150 CURVE SMOOTH",
"254 150 OFFCURVE",
"191 211 OFFCURVE",
"191 292 CURVE SMOOTH",
"191 693 LINE",
"40 693 LINE",
"40 292 LINE SMOOTH",
"40 127 OFFCURVE",
"171 0 OFFCURVE",
"338 0 CURVE SMOOTH"
);
},
{
nodes = (
"387 730 LINE",
"489 867 LINE",
"326 867 LINE",
"219 730 LINE"
);
}
);
width = 708;
}
);
unicode = 00FA;
},
{
glyphname = rcaron;
layers = (
{
layerId = "9F8883BC-B634-401D-A38E-6E78924B331A";
paths = (
{
nodes = (
"553 0 LINE",
"412 246 LINE",
"503 294 OFFCURVE",
"538 373 OFFCURVE",
"538 452 CURVE SMOOTH",
"538 576 OFFCURVE",
"447 693 OFFCURVE",
"299 693 CURVE SMOOTH",
"35 693 LINE",
"35 544 LINE",
"299 544 LINE SMOOTH",
"349 544 OFFCURVE",
"387 504 OFFCURVE",
"387 455 CURVE SMOOTH",
"387 405 OFFCURVE",
"348 368 OFFCURVE",
"299 368 CURVE SMOOTH",
"35 368 LINE",
"35 0 LINE",
"186 0 LINE",
"186 217 LINE",
"254 217 LINE",
"379 0 LINE"
);
},
{
nodes = (
"377 730 LINE",
"479 867 LINE",
"329 867 LINE",
"287 810 LINE",
"245 867 LINE",
"95 867 LINE",
"197 730 LINE"
);
}
);
width = 575;
}
);
unicode = 0159;
},
{
glyphname = odoubleacute;
layers = (
{
layerId = "9F8883BC-B634-401D-A38E-6E78924B331A";
paths = (
{
nodes = (
"504 0 OFFCURVE",
"633 132 OFFCURVE",
"633 292 CURVE SMOOTH",
"633 401 LINE SMOOTH",
"633 520 OFFCURVE",
"562 624 OFFCURVE",
"455 670 CURVE SMOOTH",
"404 692 OFFCURVE",
"371 693 OFFCURVE",
"311 693 CURVE SMOOTH",
"152 693 OFFCURVE",
"18 565 OFFCURVE",
"18 401 CURVE SMOOTH",
"18 292 LINE SMOOTH",
"18 173 OFFCURVE",
"88 70 OFFCURVE",
"198 23 CURVE SMOOTH",
"249 1 OFFCURVE",
"282 0 OFFCURVE",
"341 0 CURVE SMOOTH"
);
},
{
nodes = (
"311 150 LINE SMOOTH",
"230 150 OFFCURVE",
"169 215 OFFCURVE",
"169 292 CURVE SMOOTH",
"169 401 LINE SMOOTH",
"169 481 OFFCURVE",
"231 544 OFFCURVE",
"311 544 CURVE SMOOTH",
"341 544 LINE SMOOTH",
"421 544 OFFCURVE",
"483 480 OFFCURVE",
"483 401 CURVE SMOOTH",
"483 292 LINE SMOOTH",
"483 211 OFFCURVE",
"418 150 OFFCURVE",
"341 150 CURVE SMOOTH"
);
},
{
nodes = (
"245 730 LINE",
"347 867 LINE",
"184 867 LINE",
"77 730 LINE"
);
},
{
nodes = (
"481 730 LINE",
"583 867 LINE",
"420 867 LINE",
"313 730 LINE"
);
}
);
width = 671;
}
);
unicode = 0151;
},
{
glyphname = oacute;
layers = (
{
layerId = "9F8883BC-B634-401D-A38E-6E78924B331A";
paths = (
{
nodes = (
"504 0 OFFCURVE",
"633 132 OFFCURVE",
"633 292 CURVE SMOOTH",
"633 401 LINE SMOOTH",
"633 520 OFFCURVE",
"562 624 OFFCURVE",
"455 670 CURVE SMOOTH",
"404 692 OFFCURVE",
"371 693 OFFCURVE",
"311 693 CURVE SMOOTH",
"152 693 OFFCURVE",
"18 565 OFFCURVE",
"18 401 CURVE SMOOTH",
"18 292 LINE SMOOTH",
"18 173 OFFCURVE",
"88 70 OFFCURVE",
"198 23 CURVE SMOOTH",
"249 1 OFFCURVE",
"282 0 OFFCURVE",
"341 0 CURVE SMOOTH"
);
},
{
nodes = (
"311 150 LINE SMOOTH",
"230 150 OFFCURVE",
"169 215 OFFCURVE",
"169 292 CURVE SMOOTH",
"169 401 LINE SMOOTH",
"169 481 OFFCURVE",
"231 544 OFFCURVE",
"311 544 CURVE SMOOTH",
"341 544 LINE SMOOTH",
"421 544 OFFCURVE",
"483 480 OFFCURVE",
"483 401 CURVE SMOOTH",
"483 292 LINE SMOOTH",
"483 211 OFFCURVE",
"418 150 OFFCURVE",
"341 150 CURVE SMOOTH"
);
},
{
nodes = (
"368 730 LINE",
"470 867 LINE",
"307 867 LINE",
"200 730 LINE"
);
}
);
width = 671;
}
);
unicode = 00F3;
},
{
glyphname = ncaron;
layers = (
{
layerId = "9F8883BC-B634-401D-A38E-6E78924B331A";
paths = (
{
nodes = (
"632 81 LINE",
"632 693 LINE",
"482 693 LINE",
"482 306 LINE"
);
},
{
nodes = (
"650 0 LINE",
"187 693 LINE",
"47 693 LINE",
"47 0 LINE",
"197 0 LINE",
"197 410 LINE",
"471 0 LINE"
);
},
{
nodes = (
"438 730 LINE",
"540 867 LINE",
"390 867 LINE",
"348 810 LINE",
"306 867 LINE",
"156 867 LINE",
"258 730 LINE"
);
}
);
width = 696;
}
);
unicode = 0148;
},
{
glyphname = nacute;
layers = (
{
layerId = "9F8883BC-B634-401D-A38E-6E78924B331A";
paths = (
{
nodes = (
"632 81 LINE",
"632 693 LINE",
"482 693 LINE",
"482 306 LINE"
);
},
{
nodes = (
"650 0 LINE",
"187 693 LINE",
"47 693 LINE",
"47 0 LINE",
"197 0 LINE",
"197 410 LINE",
"471 0 LINE"
);
},
{
nodes = (
"381 730 LINE",
"483 867 LINE",
"320 867 LINE",
"213 730 LINE"
);
}
);
width = 696;
}
);
unicode = 0144;
},
{
glyphname = ecaron;
layers = (
{
layerId = "9F8883BC-B634-401D-A38E-6E78924B331A";
paths = (
{
nodes = (
"517 0 LINE",
"517 150 LINE",
"360 150 LINE SMOOTH",
"250 150 OFFCURVE",
"164 239 OFFCURVE",
"164 347 CURVE SMOOTH",
"164 456 OFFCURVE",
"251 544 OFFCURVE",
"360 544 CURVE SMOOTH",
"517 544 LINE",
"517 694 LINE",
"360 694 LINE SMOOTH",
"168 694 OFFCURVE",
"14 538 OFFCURVE",
"14 347 CURVE SMOOTH",
"14 161 OFFCURVE",
"162 0 OFFCURVE",
"360 0 CURVE SMOOTH"
);
},
{
nodes = (
"517 272 LINE",
"517 422 LINE",
"211 422 LINE",
"200 391 OFFCURVE",
"195 369 OFFCURVE",
"195 347 CURVE SMOOTH",
"195 328 OFFCURVE",
"200 304 OFFCURVE",
"213 272 CURVE"
);
},
{
nodes = (
"375 730 LINE",
"477 867 LINE",
"327 867 LINE",
"285 810 LINE",
"243 867 LINE",
"93 867 LINE",
"195 730 LINE"
);
}
);
width = 570;
}
);
unicode = 011B;
},
{
glyphname = edieresis;
layers = (
{
layerId = "9F8883BC-B634-401D-A38E-6E78924B331A";
paths = (
{
nodes = (
"517 0 LINE",
"517 150 LINE",
"360 150 LINE SMOOTH",
"250 150 OFFCURVE",
"164 239 OFFCURVE",
"164 347 CURVE SMOOTH",
"164 456 OFFCURVE",
"251 544 OFFCURVE",
"360 544 CURVE SMOOTH",
"517 544 LINE",
"517 694 LINE",
"360 694 LINE SMOOTH",
"168 694 OFFCURVE",
"14 538 OFFCURVE",
"14 347 CURVE SMOOTH",
"14 161 OFFCURVE",
"162 0 OFFCURVE",
"360 0 CURVE SMOOTH"
);
},
{
nodes = (
"517 272 LINE",
"517 422 LINE",
"211 422 LINE",
"200 391 OFFCURVE",
"195 369 OFFCURVE",
"195 347 CURVE SMOOTH",
"195 328 OFFCURVE",
"200 304 OFFCURVE",
"213 272 CURVE"
);
},
{
nodes = (
"205 728 OFFCURVE",
"240 760 OFFCURVE",
"240 803 CURVE SMOOTH",
"240 847 OFFCURVE",
"206 878 OFFCURVE",
"165 878 CURVE SMOOTH",
"124 878 OFFCURVE",
"90 847 OFFCURVE",
"90 803 CURVE SMOOTH",
"90 760 OFFCURVE",
"125 728 OFFCURVE",
"165 728 CURVE SMOOTH"
);
},
{
nodes = (
"430 728 OFFCURVE",
"465 760 OFFCURVE",
"465 803 CURVE SMOOTH",
"465 847 OFFCURVE",
"431 878 OFFCURVE",
"390 878 CURVE SMOOTH",
"349 878 OFFCURVE",
"315 847 OFFCURVE",
"315 803 CURVE SMOOTH",
"315 763 OFFCURVE",
"347 728 OFFCURVE",
"390 728 CURVE SMOOTH"
);
}
);
width = 570;
}
);
unicode = 00EB;
},
{
glyphname = eogonek;
layers = (
{
layerId = "9F8883BC-B634-401D-A38E-6E78924B331A";
paths = (
{
nodes = (
"517 0 LINE",
"517 150 LINE",
"360 150 LINE SMOOTH",
"250 150 OFFCURVE",
"164 239 OFFCURVE",
"164 347 CURVE SMOOTH",
"164 456 OFFCURVE",
"251 544 OFFCURVE",
"360 544 CURVE SMOOTH",
"517 544 LINE",
"517 694 LINE",
"360 694 LINE SMOOTH",
"168 694 OFFCURVE",
"14 538 OFFCURVE",
"14 347 CURVE SMOOTH",
"14 161 OFFCURVE",
"162 0 OFFCURVE",
"360 0 CURVE SMOOTH"
);
},
{
nodes = (
"517 272 LINE",
"517 422 LINE",
"211 422 LINE",
"200 391 OFFCURVE",
"195 369 OFFCURVE",
"195 347 CURVE SMOOTH",
"195 328 OFFCURVE",
"200 304 OFFCURVE",
"213 272 CURVE"
);
},
{
nodes = (
"480 -280 LINE",
"480 -199 LINE",
"376 -199 LINE SMOOTH",
"364 -199 OFFCURVE",
"355 -190 OFFCURVE",
"355 -178 CURVE SMOOTH",
"355 -157 LINE",
"480 -157 LINE",
"480 0 LINE",
"398 0 LINE",
"398 -84 LINE",
"273 -84 LINE",
"273 -178 LINE SMOOTH",
"273 -236 OFFCURVE",
"321 -280 OFFCURVE",
"376 -280 CURVE SMOOTH"
);
}
);
width = 570;
}
);
unicode = 0119;
},
{
glyphname = eacute;
layers = (
{
layerId = "9F8883BC-B634-401D-A38E-6E78924B331A";
paths = (
{
nodes = (
"517 0 LINE",
"517 150 LINE",
"360 150 LINE SMOOTH",
"250 150 OFFCURVE",
"164 239 OFFCURVE",
"164 347 CURVE SMOOTH",
"164 456 OFFCURVE",
"251 544 OFFCURVE",
"360 544 CURVE SMOOTH",
"517 544 LINE",
"517 694 LINE",
"360 694 LINE SMOOTH",
"168 694 OFFCURVE",
"14 538 OFFCURVE",
"14 347 CURVE SMOOTH",
"14 161 OFFCURVE",
"162 0 OFFCURVE",
"360 0 CURVE SMOOTH"
);
},
{
nodes = (
"517 272 LINE",
"517 422 LINE",
"211 422 LINE",
"200 391 OFFCURVE",
"195 369 OFFCURVE",
"195 347 CURVE SMOOTH",
"195 328 OFFCURVE",
"200 304 OFFCURVE",
"213 272 CURVE"
);
},
{
nodes = (
"318 730 LINE",
"420 867 LINE",
"257 867 LINE",
"150 730 LINE"
);
}
);
width = 570;
}
);
unicode = 00E9;
},
{
glyphname = ccaron;
layers = (
{
layerId = "9F8883BC-B634-401D-A38E-6E78924B331A";
paths = (
{
nodes = (
"502 0 LINE",
"502 150 LINE",
"350 150 LINE SMOOTH",
"241 150 OFFCURVE",
"153 237 OFFCURVE",
"153 346 CURVE SMOOTH",
"153 455 OFFCURVE",
"240 543 OFFCURVE",
"350 543 CURVE SMOOTH",
"502 543 LINE",
"502 693 LINE",
"350 693 LINE SMOOTH",
"158 693 OFFCURVE",
"3 539 OFFCURVE",
"3 346 CURVE SMOOTH",
"3 161 OFFCURVE",
"150 0 OFFCURVE",
"350 0 CURVE SMOOTH"
);
},
{
nodes = (
"367 730 LINE",
"469 867 LINE",
"319 867 LINE",
"277 810 LINE",
"235 867 LINE",
"85 867 LINE",
"187 730 LINE"
);
}
);
width = 554;
}
);
unicode = 010D;
},
{
glyphname = cacute;
layers = (
{
layerId = "9F8883BC-B634-401D-A38E-6E78924B331A";
paths = (
{
nodes = (
"502 0 LINE",
"502 150 LINE",
"350 150 LINE SMOOTH",
"241 150 OFFCURVE",
"153 237 OFFCURVE",
"153 346 CURVE SMOOTH",
"153 455 OFFCURVE",
"240 543 OFFCURVE",
"350 543 CURVE SMOOTH",
"502 543 LINE",
"502 693 LINE",
"350 693 LINE SMOOTH",
"158 693 OFFCURVE",
"3 539 OFFCURVE",
"3 346 CURVE SMOOTH",
"3 161 OFFCURVE",
"150 0 OFFCURVE",
"350 0 CURVE SMOOTH"
);
},
{
nodes = (
"310 730 LINE",
"412 867 LINE",
"249 867 LINE",
"142 730 LINE"
);
}
);
width = 554;
}
);
unicode = 0107;
},
{
glyphname = lacute;
layers = (
{
layerId = "9F8883BC-B634-401D-A38E-6E78924B331A";
paths = (
{
nodes = (
"433 0 LINE",
"433 150 LINE",
"194 150 LINE",
"194 693 LINE",
"44 693 LINE",
"44 0 LINE"
);
},
{
nodes = (
"251 730 LINE",
"353 867 LINE",
"190 867 LINE",
"83 730 LINE"
);
}
);
width = 437;
}
);
unicode = 013A;
},
{
glyphname = adieresis;
layers = (
{
layerId = "9F8883BC-B634-401D-A38E-6E78924B331A";
paths = (
{
nodes = (
"576 0 LINE",
"275 725 LINE",
"-28 0 LINE",
"134 0 LINE",
"275 337 LINE",
"306 262 OFFCURVE",
"325 217 OFFCURVE",
"354 150 CURVE",
"237 150 LINE",
"175 0 LINE"
);
},
{
nodes = (
"207 728 OFFCURVE",
"242 760 OFFCURVE",
"242 803 CURVE SMOOTH",
"242 847 OFFCURVE",
"208 878 OFFCURVE",
"167 878 CURVE SMOOTH",
"126 878 OFFCURVE",
"92 847 OFFCURVE",
"92 803 CURVE SMOOTH",
"92 763 OFFCURVE",
"124 728 OFFCURVE",
"167 728 CURVE SMOOTH"
);
},
{
nodes = (
"432 728 OFFCURVE",
"467 760 OFFCURVE",
"467 803 CURVE SMOOTH",
"467 847 OFFCURVE",
"433 878 OFFCURVE",
"392 878 CURVE SMOOTH",
"351 878 OFFCURVE",
"317 847 OFFCURVE",
"317 803 CURVE SMOOTH",
"317 763 OFFCURVE",
"349 728 OFFCURVE",
"392 728 CURVE SMOOTH"
);
}
);
width = 573;
}
);
unicode = 00E4;
},
{
glyphname = abreve;
layers = (
{
layerId = "9F8883BC-B634-401D-A38E-6E78924B331A";
paths = (
{
nodes = (
"576 0 LINE",
"275 725 LINE",
"-28 0 LINE",
"134 0 LINE",
"275 337 LINE",
"306 262 OFFCURVE",
"325 217 OFFCURVE",
"354 150 CURVE",
"237 150 LINE",
"175 0 LINE"
);
},
{
nodes = (
"373 724 OFFCURVE",
"443 783 OFFCURVE",
"451 865 CURVE",
"338 865 LINE",
"329 844 OFFCURVE",
"311 834 OFFCURVE",
"286 834 CURVE SMOOTH",
"263 834 OFFCURVE",
"243 847 OFFCURVE",
"234 865 CURVE",
"121 865 LINE",
"134 788 OFFCURVE",
"204 724 OFFCURVE",
"286 724 CURVE SMOOTH"
);
}
);
width = 573;
}
);
unicode = 0103;
},
{
glyphname = Racute;
layers = (
{
layerId = "9F8883BC-B634-401D-A38E-6E78924B331A";
paths = (
{
nodes = (
"553 0 LINE",
"412 246 LINE",
"503 294 OFFCURVE",
"538 373 OFFCURVE",
"538 452 CURVE SMOOTH",
"538 576 OFFCURVE",
"447 693 OFFCURVE",
"299 693 CURVE SMOOTH",
"35 693 LINE",
"35 544 LINE",
"299 544 LINE SMOOTH",
"349 544 OFFCURVE",
"387 504 OFFCURVE",
"387 455 CURVE SMOOTH",
"387 405 OFFCURVE",
"348 368 OFFCURVE",
"299 368 CURVE SMOOTH",
"35 368 LINE",
"35 0 LINE",
"186 0 LINE",
"186 217 LINE",
"254 217 LINE",
"379 0 LINE"
);
},
{
nodes = (
"320 731 LINE",
"422 868 LINE",
"259 868 LINE",
"152 731 LINE"
);
}
);
width = 575;
}
);
unicode = 0154;
},
{
glyphname = racute;
layers = (
{
layerId = "9F8883BC-B634-401D-A38E-6E78924B331A";
paths = (
{
nodes = (
"553 0 LINE",
"412 246 LINE",
"503 294 OFFCURVE",
"538 373 OFFCURVE",
"538 452 CURVE SMOOTH",
"538 576 OFFCURVE",
"447 693 OFFCURVE",
"299 693 CURVE SMOOTH",
"35 693 LINE",
"35 544 LINE",
"299 544 LINE SMOOTH",
"349 544 OFFCURVE",
"387 504 OFFCURVE",
"387 455 CURVE SMOOTH",
"387 405 OFFCURVE",
"348 368 OFFCURVE",
"299 368 CURVE SMOOTH",
"35 368 LINE",
"35 0 LINE",
"186 0 LINE",
"186 217 LINE",
"254 217 LINE",
"379 0 LINE"
);
},
{
nodes = (
"320 730 LINE",
"422 867 LINE",
"259 867 LINE",
"152 730 LINE"
);
}
);
width = 575;
}
);
unicode = 0155;
},
{
glyphname = Aacute;
layers = (
{
layerId = "9F8883BC-B634-401D-A38E-6E78924B331A";
paths = (
{
nodes = (
"576 0 LINE",
"275 725 LINE",
"-28 0 LINE",
"134 0 LINE",
"275 337 LINE",
"306 262 OFFCURVE",
"325 217 OFFCURVE",
"354 150 CURVE",
"237 150 LINE",
"175 0 LINE"
);
},
{
nodes = (
"319 731 LINE",
"421 868 LINE",
"258 868 LINE",
"151 731 LINE"
);
}
);
width = 573;
}
);
unicode = 00C1;
},
{
glyphname = aacute;
layers = (
{
layerId = "9F8883BC-B634-401D-A38E-6E78924B331A";
paths = (
{
nodes = (
"576 0 LINE",
"275 725 LINE",
"-28 0 LINE",
"134 0 LINE",
"275 337 LINE",
"306 262 OFFCURVE",
"325 217 OFFCURVE",
"354 150 CURVE",
"237 150 LINE",
"175 0 LINE"
);
},
{
nodes = (
"319 730 LINE",
"421 867 LINE",
"258 867 LINE",
"151 730 LINE"
);
}
);
width = 573;
}
);
unicode = 00E1;
},
{
glyphname = Zcaron;
layers = (
{
layerId = "9F8883BC-B634-401D-A38E-6E78924B331A";
paths = (
{
nodes = (
"548 0 LINE",
"548 150 LINE",
"221 150 LINE",
"524 515 LINE",
"330 515 LINE",
"18 137 LINE",
"18 0 LINE"
);
},
{
nodes = (
"548 544 LINE",
"548 694 LINE",
"18 694 LINE",
"18 544 LINE"
);
},
{
nodes = (
"391 731 LINE",
"493 868 LINE",
"343 868 LINE",
"301 811 LINE",
"259 868 LINE",
"109 868 LINE",
"211 731 LINE"
);
}
);
width = 602;
}
);
unicode = 017D;
},
{
glyphname = Zacute;
layers = (
{
layerId = "9F8883BC-B634-401D-A38E-6E78924B331A";
paths = (
{
nodes = (
"548 0 LINE",
"548 150 LINE",
"221 150 LINE",
"524 515 LINE",
"330 515 LINE",
"18 137 LINE",
"18 0 LINE"
);
},
{
nodes = (
"548 544 LINE",
"548 694 LINE",
"18 694 LINE",
"18 544 LINE"
);
},
{
nodes = (
"334 731 LINE",
"436 868 LINE",
"273 868 LINE",
"166 731 LINE"
);
}
);
width = 602;
}
);
unicode = 0179;
},
{
glyphname = Tcaron;
layers = (
{
layerId = "9F8883BC-B634-401D-A38E-6E78924B331A";
paths = (
{
nodes = (
"530 544 LINE",
"530 694 LINE",
"11 694 LINE",
"11 544 LINE"
);
},
{
nodes = (
"345 0 LINE",
"345 510 LINE",
"196 510 LINE",
"196 0 LINE"
);
},
{
nodes = (
"359 731 LINE",
"461 868 LINE",
"311 868 LINE",
"269 811 LINE",
"227 868 LINE",
"77 868 LINE",
"179 731 LINE"
);
}
);
width = 538;
}
);
unicode = 0164;
},
{
glyphname = Sacute;
layers = (
{
layerId = "9F8883BC-B634-401D-A38E-6E78924B331A";
paths = (
{
nodes = (
"306 0 LINE SMOOTH",
"437 0 OFFCURVE",
"544 104 OFFCURVE",
"544 238 CURVE SMOOTH",
"544 368 LINE",
"393 368 LINE",
"393 238 LINE SMOOTH",
"393 188 OFFCURVE",
"354 150 OFFCURVE",
"306 150 CURVE SMOOTH",
"30 150 LINE",
"30 0 LINE"
);
},
{
nodes = (
"180 326 LINE",
"180 456 LINE SMOOTH",
"180 503 OFFCURVE",
"217 544 OFFCURVE",
"268 544 CURVE SMOOTH",
"544 544 LINE",
"544 694 LINE",
"268 694 LINE SMOOTH",
"138 694 OFFCURVE",
"30 590 OFFCURVE",
"30 456 CURVE SMOOTH",
"30 326 LINE"
);
},
{
nodes = (
"337 731 LINE",
"439 868 LINE",
"276 868 LINE",
"169 731 LINE"
);
}
);
width = 609;
}
);
unicode = 015A;
},
{
glyphname = sacute;
layers = (
{
layerId = "9F8883BC-B634-401D-A38E-6E78924B331A";
paths = (
{
nodes = (
"306 0 LINE SMOOTH",
"437 0 OFFCURVE",
"544 104 OFFCURVE",
"544 238 CURVE SMOOTH",
"544 368 LINE",
"393 368 LINE",
"393 238 LINE SMOOTH",
"393 188 OFFCURVE",
"354 150 OFFCURVE",
"306 150 CURVE SMOOTH",
"30 150 LINE",
"30 0 LINE"
);
},
{
nodes = (
"180 326 LINE",
"180 456 LINE SMOOTH",
"180 503 OFFCURVE",
"217 544 OFFCURVE",
"268 544 CURVE SMOOTH",
"544 544 LINE",
"544 694 LINE",
"268 694 LINE SMOOTH",
"138 694 OFFCURVE",
"30 590 OFFCURVE",
"30 456 CURVE SMOOTH",
"30 326 LINE"
);
},
{
nodes = (
"337 730 LINE",
"439 867 LINE",
"276 867 LINE",
"169 730 LINE"
);
}
);
width = 609;
}
);
unicode = 015B;
},
{
glyphname = tcaron;
layers = (
{
layerId = "9F8883BC-B634-401D-A38E-6E78924B331A";
paths = (
{
nodes = (
"530 544 LINE",
"530 694 LINE",
"11 694 LINE",
"11 544 LINE"
);
},
{
nodes = (
"345 0 LINE",
"345 510 LINE",
"196 510 LINE",
"196 0 LINE"
);
}
);
width = 538;
}
);
unicode = 0165;
},
{
glyphname = zcaron;
layers = (
{
layerId = "9F8883BC-B634-401D-A38E-6E78924B331A";
paths = (
{
nodes = (
"548 0 LINE",
"548 150 LINE",
"221 150 LINE",
"524 515 LINE",
"330 515 LINE",
"18 137 LINE",
"18 0 LINE"
);
},
{
nodes = (
"548 544 LINE",
"548 694 LINE",
"18 694 LINE",
"18 544 LINE"
);
},
{
nodes = (
"391 730 LINE",
"493 867 LINE",
"343 867 LINE",
"301 810 LINE",
"259 867 LINE",
"109 867 LINE",
"211 730 LINE"
);
}
);
width = 602;
}
);
unicode = 017E;
},
{
glyphname = zacute;
layers = (
{
layerId = "9F8883BC-B634-401D-A38E-6E78924B331A";
paths = (
{
nodes = (
"548 0 LINE",
"548 150 LINE",
"221 150 LINE",
"524 515 LINE",
"330 515 LINE",
"18 137 LINE",
"18 0 LINE"
);
},
{
nodes = (
"548 544 LINE",
"548 694 LINE",
"18 694 LINE",
"18 544 LINE"
);
},
{
nodes = (
"334 730 LINE",
"436 867 LINE",
"273 867 LINE",
"166 730 LINE"
);
}
);
width = 602;
}
);
unicode = 017A;
},
{
glyphname = lslash;
layers = (
{
layerId = "9F8883BC-B634-401D-A38E-6E78924B331A";
paths = (
{
nodes = (
"477 0 LINE",
"477 150 LINE",
"238 150 LINE",
"238 693 LINE",
"88 693 LINE",
"88 0 LINE"
);
},
{
nodes = (
"368 287 LINE",
"368 407 LINE",
"33 407 LINE",
"33 287 LINE"
);
}
);
width = 508;
}
);
unicode = 0142;
},
{
glyphname = iacute;
layers = (
{
layerId = "9F8883BC-B634-401D-A38E-6E78924B331A";
paths = (
{
nodes = (
"207 0 LINE",
"207 693 LINE",
"57 693 LINE",
"57 0 LINE"
);
},
{
nodes = (
"163 730 LINE",
"265 867 LINE",
"102 867 LINE",
"-5 730 LINE"
);
}
);
width = 260;
}
);
unicode = 00ED;
},
{
glyphname = Iacute;
layers = (
{
layerId = "9F8883BC-B634-401D-A38E-6E78924B331A";
paths = (
{
nodes = (
"207 0 LINE",
"207 693 LINE",
"57 693 LINE",
"57 0 LINE"
);
},
{
nodes = (
"163 731 LINE",
"265 868 LINE",
"102 868 LINE",
"-5 731 LINE"
);
}
);
width = 260;
}
);
unicode = 00CD;
},
{
glyphname = Dcaron;
layers = (
{
layerId = "9F8883BC-B634-401D-A38E-6E78924B331A";
paths = (
{
nodes = (
"258 0 LINE SMOOTH",
"444 0 OFFCURVE",
"605 150 OFFCURVE",
"605 347 CURVE SMOOTH",
"605 539 OFFCURVE",
"450 694 OFFCURVE",
"258 694 CURVE SMOOTH",
"47 694 LINE",
"47 544 LINE",
"258 544 LINE SMOOTH",
"367 544 OFFCURVE",
"455 457 OFFCURVE",
"455 347 CURVE SMOOTH",
"455 238 OFFCURVE",
"368 150 OFFCURVE",
"258 150 CURVE SMOOTH",
"196 150 LINE",
"196 512 LINE",
"47 512 LINE",
"47 0 LINE"
);
},
{
nodes = (
"408 731 LINE",
"510 868 LINE",
"360 868 LINE",
"318 811 LINE",
"276 868 LINE",
"126 868 LINE",
"228 731 LINE"
);
}
);
width = 637;
}
);
unicode = 010E;
},
{
glyphname = endash;
layers = (
{
layerId = "9F8883BC-B634-401D-A38E-6E78924B331A";
paths = (
{
nodes = (
"362 282 LINE",
"362 430 LINE",
"27 430 LINE",
"27 282 LINE"
);
}
);
width = 399;
}
);
unicode = 2013;
},
{
glyphname = dcroat;
layers = (
{
layerId = "9F8883BC-B634-401D-A38E-6E78924B331A";
paths = (
{
nodes = (
"312 0 LINE SMOOTH",
"498 0 OFFCURVE",
"659 150 OFFCURVE",
"659 347 CURVE SMOOTH",
"659 539 OFFCURVE",
"504 694 OFFCURVE",
"312 694 CURVE SMOOTH",
"101 694 LINE",
"101 544 LINE",
"312 544 LINE SMOOTH",
"421 544 OFFCURVE",
"509 457 OFFCURVE",
"509 347 CURVE SMOOTH",
"509 238 OFFCURVE",
"422 150 OFFCURVE",
"312 150 CURVE SMOOTH",
"250 150 LINE",
"250 512 LINE",
"101 512 LINE",
"101 0 LINE"
);
},
{
nodes = (
"364 287 LINE",
"364 407 LINE",
"29 407 LINE",
"29 287 LINE"
);
}
);
width = 700;
}
);
unicode = 0111;
},
{
glyphname = Dcroat;
layers = (
{
layerId = "9F8883BC-B634-401D-A38E-6E78924B331A";
paths = (
{
nodes = (
"312 0 LINE SMOOTH",
"498 0 OFFCURVE",
"659 150 OFFCURVE",
"659 347 CURVE SMOOTH",
"659 539 OFFCURVE",
"504 694 OFFCURVE",
"312 694 CURVE SMOOTH",
"101 694 LINE",
"101 544 LINE",
"312 544 LINE SMOOTH",
"421 544 OFFCURVE",
"509 457 OFFCURVE",
"509 347 CURVE SMOOTH",
"509 238 OFFCURVE",
"422 150 OFFCURVE",
"312 150 CURVE SMOOTH",
"250 150 LINE",
"250 512 LINE",
"101 512 LINE",
"101 0 LINE"
);
},
{
nodes = (
"364 287 LINE",
"364 407 LINE",
"29 407 LINE",
"29 287 LINE"
);
}
);
width = 700;
}
);
unicode = 0110;
},
{
glyphname = odieresis;
layers = (
{
layerId = "9F8883BC-B634-401D-A38E-6E78924B331A";
paths = (
{
nodes = (
"504 0 OFFCURVE",
"633 132 OFFCURVE",
"633 292 CURVE SMOOTH",
"633 401 LINE SMOOTH",
"633 520 OFFCURVE",
"562 624 OFFCURVE",
"455 670 CURVE SMOOTH",
"404 692 OFFCURVE",
"371 693 OFFCURVE",
"311 693 CURVE SMOOTH",
"152 693 OFFCURVE",
"18 565 OFFCURVE",
"18 401 CURVE SMOOTH",
"18 292 LINE SMOOTH",
"18 173 OFFCURVE",
"88 70 OFFCURVE",
"198 23 CURVE SMOOTH",
"249 1 OFFCURVE",
"282 0 OFFCURVE",
"341 0 CURVE SMOOTH"
);
},
{
nodes = (
"311 150 LINE SMOOTH",
"230 150 OFFCURVE",
"169 215 OFFCURVE",
"169 292 CURVE SMOOTH",
"169 401 LINE SMOOTH",
"169 481 OFFCURVE",
"231 544 OFFCURVE",
"311 544 CURVE SMOOTH",
"341 544 LINE SMOOTH",
"421 544 OFFCURVE",
"483 480 OFFCURVE",
"483 401 CURVE SMOOTH",
"483 292 LINE SMOOTH",
"483 211 OFFCURVE",
"418 150 OFFCURVE",
"341 150 CURVE SMOOTH"
);
},
{
nodes = (
"255 728 OFFCURVE",
"290 760 OFFCURVE",
"290 803 CURVE SMOOTH",
"290 847 OFFCURVE",
"256 878 OFFCURVE",
"215 878 CURVE SMOOTH",
"174 878 OFFCURVE",
"140 847 OFFCURVE",
"140 803 CURVE SMOOTH",
"140 760 OFFCURVE",
"175 728 OFFCURVE",
"215 728 CURVE SMOOTH"
);
},
{
nodes = (
"480 728 OFFCURVE",
"515 760 OFFCURVE",
"515 803 CURVE SMOOTH",
"515 847 OFFCURVE",
"481 878 OFFCURVE",
"440 878 CURVE SMOOTH",
"399 878 OFFCURVE",
"365 847 OFFCURVE",
"365 803 CURVE SMOOTH",
"365 763 OFFCURVE",
"397 728 OFFCURVE",
"440 728 CURVE SMOOTH"
);
}
);
width = 671;
}
);
unicode = 00F6;
},
{
glyphname = Odieresis;
layers = (
{
layerId = "9F8883BC-B634-401D-A38E-6E78924B331A";
paths = (
{
nodes = (
"504 0 OFFCURVE",
"633 132 OFFCURVE",
"633 292 CURVE SMOOTH",
"633 401 LINE SMOOTH",
"633 520 OFFCURVE",
"562 624 OFFCURVE",
"455 670 CURVE SMOOTH",
"404 692 OFFCURVE",
"371 693 OFFCURVE",
"311 693 CURVE SMOOTH",
"152 693 OFFCURVE",
"18 565 OFFCURVE",
"18 401 CURVE SMOOTH",
"18 292 LINE SMOOTH",
"18 173 OFFCURVE",
"88 70 OFFCURVE",
"198 23 CURVE SMOOTH",
"249 1 OFFCURVE",
"282 0 OFFCURVE",
"341 0 CURVE SMOOTH"
);
},
{
nodes = (
"311 150 LINE SMOOTH",
"230 150 OFFCURVE",
"169 215 OFFCURVE",
"169 292 CURVE SMOOTH",
"169 401 LINE SMOOTH",
"169 481 OFFCURVE",
"231 544 OFFCURVE",
"311 544 CURVE SMOOTH",
"341 544 LINE SMOOTH",
"421 544 OFFCURVE",
"483 480 OFFCURVE",
"483 401 CURVE SMOOTH",
"483 292 LINE SMOOTH",
"483 211 OFFCURVE",
"418 150 OFFCURVE",
"341 150 CURVE SMOOTH"
);
},
{
nodes = (
"255 729 OFFCURVE",
"290 761 OFFCURVE",
"290 804 CURVE SMOOTH",
"290 848 OFFCURVE",
"256 879 OFFCURVE",
"215 879 CURVE SMOOTH",
"174 879 OFFCURVE",
"140 848 OFFCURVE",
"140 804 CURVE SMOOTH",
"140 761 OFFCURVE",
"175 729 OFFCURVE",
"215 729 CURVE SMOOTH"
);
},
{
nodes = (
"480 729 OFFCURVE",
"515 761 OFFCURVE",
"515 804 CURVE SMOOTH",
"515 848 OFFCURVE",
"481 879 OFFCURVE",
"440 879 CURVE SMOOTH",
"399 879 OFFCURVE",
"365 848 OFFCURVE",
"365 804 CURVE SMOOTH",
"365 764 OFFCURVE",
"397 729 OFFCURVE",
"440 729 CURVE SMOOTH"
);
}
);
width = 671;
}
);
unicode = 00D6;
},
{
glyphname = multiply;
layers = (
{
layerId = "9F8883BC-B634-401D-A38E-6E78924B331A";
paths = (
{
nodes = (
"464 72 LINE",
"569 176 LINE",
"146 599 LINE",
"41 494 LINE"
);
},
{
nodes = (
"153 64 LINE",
"576 487 LINE",
"471 592 LINE",
"49 169 LINE"
);
}
);
width = 614;
}
);
unicode = 00D7;
},
{
glyphname = emdash;
layers = (
{
layerId = "9F8883BC-B634-401D-A38E-6E78924B331A";
paths = (
{
nodes = (
"689 282 LINE",
"689 430 LINE",
"27 430 LINE",
"27 282 LINE"
);
}
);
width = 727;
}
);
unicode = 2014;
},
{
glyphname = divide;
layers = (
{
layerId = "9F8883BC-B634-401D-A38E-6E78924B331A";
paths = (
{
nodes = (
"689 285 LINE",
"689 403 LINE",
"27 403 LINE",
"27 285 LINE"
);
},
{
nodes = (
"396 0 OFFCURVE",
"428 34 OFFCURVE",
"428 75 CURVE SMOOTH",
"428 119 OFFCURVE",
"394 150 OFFCURVE",
"352 150 CURVE SMOOTH",
"313 150 OFFCURVE",
"278 119 OFFCURVE",
"278 75 CURVE SMOOTH",
"278 33 OFFCURVE",
"312 0 OFFCURVE",
"352 0 CURVE SMOOTH"
);
},
{
nodes = (
"394 544 OFFCURVE",
"428 576 OFFCURVE",
"428 620 CURVE SMOOTH",
"428 661 OFFCURVE",
"396 694 OFFCURVE",
"352 694 CURVE SMOOTH",
"313 694 OFFCURVE",
"278 662 OFFCURVE",
"278 620 CURVE SMOOTH",
"278 576 OFFCURVE",
"313 544 OFFCURVE",
"352 544 CURVE SMOOTH"
);
}
);
width = 716;
}
);
unicode = 00F7;
},
{
glyphname = yacute;
layers = (
{
layerId = "9F8883BC-B634-401D-A38E-6E78924B331A";
paths = (
{
nodes = (
"373 415 LINE",
"570 693 LINE",
"390 693 LINE",
"283 550 LINE"
);
},
{
nodes = (
"356 0 LINE",
"356 385 LINE",
"150 693 LINE",
"-29 693 LINE",
"207 340 LINE",
"207 0 LINE"
);
},
{
nodes = (
"307 730 LINE",
"409 867 LINE",
"246 867 LINE",
"139 730 LINE"
);
}
);
width = 548;
}
);
unicode = 00FD;
},
{
glyphname = Yacute;
layers = (
{
layerId = "9F8883BC-B634-401D-A38E-6E78924B331A";
paths = (
{
nodes = (
"373 415 LINE",
"570 693 LINE",
"390 693 LINE",
"283 550 LINE"
);
},
{
nodes = (
"356 0 LINE",
"356 385 LINE",
"150 693 LINE",
"-29 693 LINE",
"207 340 LINE",
"207 0 LINE"
);
},
{
nodes = (
"307 731 LINE",
"409 868 LINE",
"246 868 LINE",
"139 731 LINE"
);
}
);
width = 548;
}
);
unicode = 00DD;
},
{
glyphname = scaron;
layers = (
{
layerId = "9F8883BC-B634-401D-A38E-6E78924B331A";
paths = (
{
nodes = (
"306 0 LINE SMOOTH",
"437 0 OFFCURVE",
"544 104 OFFCURVE",
"544 238 CURVE SMOOTH",
"544 368 LINE",
"393 368 LINE",
"393 238 LINE SMOOTH",
"393 188 OFFCURVE",
"354 150 OFFCURVE",
"306 150 CURVE SMOOTH",
"30 150 LINE",
"30 0 LINE"
);
},
{
nodes = (
"180 326 LINE",
"180 456 LINE SMOOTH",
"180 503 OFFCURVE",
"217 544 OFFCURVE",
"268 544 CURVE SMOOTH",
"544 544 LINE",
"544 694 LINE",
"268 694 LINE SMOOTH",
"138 694 OFFCURVE",
"30 590 OFFCURVE",
"30 456 CURVE SMOOTH",
"30 326 LINE"
);
},
{
nodes = (
"394 730 LINE",
"496 867 LINE",
"346 867 LINE",
"304 810 LINE",
"262 867 LINE",
"112 867 LINE",
"214 730 LINE"
);
}
);
width = 609;
}
);
unicode = 0161;
},
{
glyphname = degree;
layers = (
{
layerId = "9F8883BC-B634-401D-A38E-6E78924B331A";
paths = (
{
nodes = (
"238 398 OFFCURVE",
"300 455 OFFCURVE",
"300 531 CURVE SMOOTH",
"300 602 OFFCURVE",
"243 665 OFFCURVE",
"166 665 CURVE SMOOTH",
"91 665 OFFCURVE",
"33 603 OFFCURVE",
"33 531 CURVE SMOOTH",
"33 455 OFFCURVE",
"95 398 OFFCURVE",
"166 398 CURVE SMOOTH"
);
},
{
nodes = (
"126 458 OFFCURVE",
"93 490 OFFCURVE",
"93 531 CURVE SMOOTH",
"93 574 OFFCURVE",
"127 605 OFFCURVE",
"166 605 CURVE SMOOTH",
"207 605 OFFCURVE",
"240 574 OFFCURVE",
"240 531 CURVE SMOOTH",
"240 492 OFFCURVE",
"209 458 OFFCURVE",
"166 458 CURVE SMOOTH"
);
}
);
width = 328;
}
);
unicode = 00B0;
},
{
glyphname = registered;
layers = (
{
layerId = "9F8883BC-B634-401D-A38E-6E78924B331A";
paths = (
{
nodes = (
"407 192 OFFCURVE",
"513 301 OFFCURVE",
"513 434 CURVE SMOOTH",
"513 570 OFFCURVE",
"404 677 OFFCURVE",
"270 677 CURVE SMOOTH",
"133 677 OFFCURVE",
"28 567 OFFCURVE",
"28 434 CURVE SMOOTH",
"28 297 OFFCURVE",
"137 192 OFFCURVE",
"270 192 CURVE SMOOTH"
);
},
{
nodes = (
"166 245 OFFCURVE",
"81 329 OFFCURVE",
"81 434 CURVE SMOOTH",
"81 537 OFFCURVE",
"163 624 OFFCURVE",
"270 624 CURVE SMOOTH",
"373 624 OFFCURVE",
"460 541 OFFCURVE",
"460 434 CURVE SMOOTH",
"460 332 OFFCURVE",
"377 245 OFFCURVE",
"270 245 CURVE SMOOTH"
);
},
{
nodes = (
"386 297 LINE",
"329 395 LINE",
"366 413 OFFCURVE",
"381 445 OFFCURVE",
"381 477 CURVE SMOOTH",
"381 524 OFFCURVE",
"344 573 OFFCURVE",
"283 573 CURVE SMOOTH",
"176 573 LINE",
"176 514 LINE",
"283 514 LINE SMOOTH",
"302 514 OFFCURVE",
"319 498 OFFCURVE",
"319 479 CURVE SMOOTH",
"319 460 OFFCURVE",
"304 444 OFFCURVE",
"283 444 CURVE SMOOTH",
"176 444 LINE",
"176 297 LINE",
"237 297 LINE",
"237 383 LINE",
"265 383 LINE",
"316 297 LINE"
);
}
);
width = 535;
}
);
unicode = 00AE;
},
{
glyphname = bullet;
layers = (
{
layerId = "9F8883BC-B634-401D-A38E-6E78924B331A";
paths = (
{
nodes = (
"230 232 OFFCURVE",
"287 288 OFFCURVE",
"287 358 CURVE SMOOTH",
"287 427 OFFCURVE",
"231 484 OFFCURVE",
"161 484 CURVE SMOOTH",
"92 484 OFFCURVE",
"35 428 OFFCURVE",
"35 358 CURVE SMOOTH",
"35 289 OFFCURVE",
"91 232 OFFCURVE",
"161 232 CURVE SMOOTH"
);
}
);
width = 317;
}
);
unicode = 2022;
},
{
glyphname = section;
layers = (
{
layerId = "9F8883BC-B634-401D-A38E-6E78924B331A";
paths = (
{
nodes = (
"262 -125 LINE SMOOTH",
"393 -125 OFFCURVE",
"500 -21 OFFCURVE",
"500 113 CURVE SMOOTH",
"500 319 LINE SMOOTH",
"500 450 OFFCURVE",
"396 557 OFFCURVE",
"262 557 CURVE SMOOTH",
"180 557 LINE",
"180 580 LINE SMOOTH",
"180 627 OFFCURVE",
"217 668 OFFCURVE",
"268 668 CURVE SMOOTH",
"500 668 LINE",
"500 818 LINE",
"268 818 LINE SMOOTH",
"138 818 OFFCURVE",
"30 714 OFFCURVE",
"30 580 CURVE SMOOTH",
"30 356 LINE SMOOTH",
"30 226 OFFCURVE",
"135 118 OFFCURVE",
"268 118 CURVE SMOOTH",
"349 118 LINE",
"349 65 OFFCURVE",
"314 25 OFFCURVE",
"262 25 CURVE SMOOTH",
"30 25 LINE",
"30 -125 LINE"
);
},
{
nodes = (
"350 268 LINE",
"268 268 LINE SMOOTH",
"217 268 OFFCURVE",
"180 309 OFFCURVE",
"180 356 CURVE SMOOTH",
"180 406 LINE",
"262 406 LINE SMOOTH",
"312 406 OFFCURVE",
"350 367 OFFCURVE",
"350 319 CURVE SMOOTH"
);
}
);
width = 539;
}
);
unicode = 00A7;
},
{
glyphname = copyright;
layers = (
{
layerId = "9F8883BC-B634-401D-A38E-6E78924B331A";
paths = (
{
nodes = (
"424 185 OFFCURVE",
"531 294 OFFCURVE",
"531 428 CURVE SMOOTH",
"531 564 OFFCURVE",
"422 671 OFFCURVE",
"288 671 CURVE SMOOTH",
"152 671 OFFCURVE",
"45 562 OFFCURVE",
"45 428 CURVE SMOOTH",
"45 292 OFFCURVE",
"154 185 OFFCURVE",
"288 185 CURVE SMOOTH"
);
},
{
nodes = (
"186 245 OFFCURVE",
"105 327 OFFCURVE",
"105 428 CURVE SMOOTH",
"105 530 OFFCURVE",
"187 611 OFFCURVE",
"288 611 CURVE SMOOTH",
"390 611 OFFCURVE",
"471 529 OFFCURVE",
"471 428 CURVE SMOOTH",
"471 326 OFFCURVE",
"389 245 OFFCURVE",
"288 245 CURVE SMOOTH"
);
},
{
nodes = (
"339 286 OFFCURVE",
"387 316 OFFCURVE",
"409 362 CURVE",
"378 381 LINE",
"354 341 OFFCURVE",
"312 333 OFFCURVE",
"285 333 CURVE SMOOTH",
"234 333 OFFCURVE",
"193 374 OFFCURVE",
"193 428 CURVE SMOOTH",
"193 479 OFFCURVE",
"232 523 OFFCURVE",
"285 523 CURVE SMOOTH",
"307 523 OFFCURVE",
"348 509 OFFCURVE",
"365 479 CURVE",
"403 503 LINE",
"379 540 OFFCURVE",
"337 570 OFFCURVE",
"285 570 CURVE SMOOTH",
"207 570 OFFCURVE",
"147 503 OFFCURVE",
"147 428 CURVE SMOOTH",
"147 348 OFFCURVE",
"209 286 OFFCURVE",
"285 286 CURVE SMOOTH"
);
}
);
width = 569;
}
);
unicode = 00A9;
},
{
glyphname = periodcentered;
layers = (
{
layerId = "9F8883BC-B634-401D-A38E-6E78924B331A";
paths = (
{
nodes = (
"207 375 LINE",
"207 693 LINE",
"57 693 LINE",
"57 375 LINE"
);
}
);
width = 256;
}
);
unicode = 00B7;
},
{
glyphname = dcaron;
layers = (
{
layerId = "9F8883BC-B634-401D-A38E-6E78924B331A";
paths = (
{
nodes = (
"258 0 LINE SMOOTH",
"444 0 OFFCURVE",
"605 150 OFFCURVE",
"605 347 CURVE SMOOTH",
"605 539 OFFCURVE",
"450 694 OFFCURVE",
"258 694 CURVE SMOOTH",
"47 694 LINE",
"47 544 LINE",
"258 544 LINE SMOOTH",
"367 544 OFFCURVE",
"455 457 OFFCURVE",
"455 347 CURVE SMOOTH",
"455 238 OFFCURVE",
"368 150 OFFCURVE",
"258 150 CURVE SMOOTH",
"196 150 LINE",
"196 512 LINE",
"47 512 LINE",
"47 0 LINE"
);
}
);
width = 637;
}
);
unicode = 010F;
},
{
glyphname = quotesinglbase;
layers = (
{
layerId = "9F8883BC-B634-401D-A38E-6E78924B331A";
paths = (
{
nodes = (
"38 -65 OFFCURVE",
"49 -59 OFFCURVE",
"61 -47 CURVE SMOOTH",
"136 31 LINE",
"136 34 LINE",
"139 37 OFFCURVE",
"141 42 OFFCURVE",
"142 47 CURVE",
"147 58 OFFCURVE",
"150 69 OFFCURVE",
"150 79 CURVE",
"149 89 LINE",
"146 102 OFFCURVE",
"141 113 OFFCURVE",
"134 122 CURVE SMOOTH",
"126 131 OFFCURVE",
"116 137 OFFCURVE",
"105 142 CURVE SMOOTH",
"94 147 OFFCURVE",
"82 149 OFFCURVE",
"70 149 CURVE SMOOTH",
"51 149 OFFCURVE",
"35 143 OFFCURVE",
"20 132 CURVE SMOOTH",
"5 120 OFFCURVE",
"-2 100 OFFCURVE",
"-2 73 CURVE SMOOTH",
"-2 -21 LINE SMOOTH",
"-2 -42 OFFCURVE",
"4 -56 OFFCURVE",
"17 -62 CURVE SMOOTH",
"21 -64 OFFCURVE",
"25 -65 OFFCURVE",
"29 -65 CURVE SMOOTH"
);
}
);
width = 149;
}
);
unicode = 201A;
},
{
glyphname = Scaron;
layers = (
{
layerId = "9F8883BC-B634-401D-A38E-6E78924B331A";
paths = (
{
nodes = (
"306 0 LINE SMOOTH",
"437 0 OFFCURVE",
"544 104 OFFCURVE",
"544 238 CURVE SMOOTH",
"544 368 LINE",
"393 368 LINE",
"393 238 LINE SMOOTH",
"393 188 OFFCURVE",
"354 150 OFFCURVE",
"306 150 CURVE SMOOTH",
"30 150 LINE",
"30 0 LINE"
);
},
{
nodes = (
"180 326 LINE",
"180 456 LINE SMOOTH",
"180 503 OFFCURVE",
"217 544 OFFCURVE",
"268 544 CURVE SMOOTH",
"544 544 LINE",
"544 694 LINE",
"268 694 LINE SMOOTH",
"138 694 OFFCURVE",
"30 590 OFFCURVE",
"30 456 CURVE SMOOTH",
"30 326 LINE"
);
},
{
nodes = (
"394 731 LINE",
"496 868 LINE",
"346 868 LINE",
"304 811 LINE",
"262 868 LINE",
"112 868 LINE",
"214 731 LINE"
);
}
);
width = 609;
}
);
unicode = 0160;
},
{
glyphname = plusminus;
layers = (
{
layerId = "9F8883BC-B634-401D-A38E-6E78924B331A";
paths = (
{
nodes = (
"494 335 LINE",
"494 447 LINE",
"39 447 LINE",
"39 335 LINE"
);
},
{
nodes = (
"330 164 LINE",
"330 618 LINE",
"218 618 LINE",
"218 164 LINE"
);
},
{
nodes = (
"494 0 LINE",
"494 112 LINE",
"39 112 LINE",
"39 0 LINE"
);
}
);
width = 532;
}
);
unicode = 00B1;
},
{
glyphname = gravecomb;
layers = (
{
layerId = "9F8883BC-B634-401D-A38E-6E78924B331A";
paths = (
{
nodes = (
"318 730 LINE",
"211 867 LINE",
"48 867 LINE",
"150 730 LINE"
);
}
);
width = 346;
}
);
unicode = 0300;
},
{
glyphname = acutecomb;
layers = (
{
layerId = "9F8883BC-B634-401D-A38E-6E78924B331A";
paths = (
{
nodes = (
"216 730 LINE",
"318 867 LINE",
"155 867 LINE",
"48 730 LINE"
);
}
);
width = 355;
}
);
unicode = 0301;
},
{
glyphname = circumflexcomb;
layers = (
{
layerId = "9F8883BC-B634-401D-A38E-6E78924B331A";
paths = (
{
nodes = (
"464 730 LINE",
"362 867 LINE",
"182 867 LINE",
"80 730 LINE",
"230 730 LINE",
"272 787 LINE",
"314 730 LINE"
);
}
);
width = 527;
}
);
unicode = 0302;
},
{
glyphname = tildecomb;
layers = (
{
layerId = "9F8883BC-B634-401D-A38E-6E78924B331A";
paths = (
{
nodes = (
"98 714 LINE",
"115 737 OFFCURVE",
"129 755 OFFCURVE",
"140 768 CURVE SMOOTH",
"157 789 OFFCURVE",
"159 792 OFFCURVE",
"169 792 CURVE",
"172 793 LINE",
"184 793 OFFCURVE",
"244 728 OFFCURVE",
"306 728 CURVE SMOOTH",
"317 728 OFFCURVE",
"323 729 OFFCURVE",
"328 730 CURVE SMOOTH",
"365 740 OFFCURVE",
"387 753 OFFCURVE",
"452 838 CURVE",
"377 921 LINE",
"344 874 OFFCURVE",
"320 850 OFFCURVE",
"307 843 CURVE",
"299 843 OFFCURVE",
"291 846 OFFCURVE",
"268 864 CURVE SMOOTH",
"227 896 OFFCURVE",
"201 907 OFFCURVE",
"170 907 CURVE SMOOTH",
"137 907 OFFCURVE",
"130 902 OFFCURVE",
"118 895 CURVE SMOOTH",
"96 882 OFFCURVE",
"76 866 OFFCURVE",
"24 798 CURVE"
);
}
);
width = 472;
}
);
unicode = 0303;
},
{
glyphname = macroncomb;
layers = (
{
layerId = "9F8883BC-B634-401D-A38E-6E78924B331A";
paths = (
{
nodes = (
"352 762 LINE",
"352 890 LINE",
"44 890 LINE",
"44 762 LINE"
);
}
);
width = 396;
}
);
unicode = 0304;
},
{
glyphname = brevecomb;
layers = (
{
layerId = "9F8883BC-B634-401D-A38E-6E78924B331A";
paths = (
{
nodes = (
"373 724 OFFCURVE",
"443 783 OFFCURVE",
"451 865 CURVE",
"338 865 LINE",
"329 844 OFFCURVE",
"311 834 OFFCURVE",
"286 834 CURVE SMOOTH",
"263 834 OFFCURVE",
"243 847 OFFCURVE",
"234 865 CURVE",
"121 865 LINE",
"134 788 OFFCURVE",
"204 724 OFFCURVE",
"286 724 CURVE SMOOTH"
);
}
);
width = 573;
}
);
unicode = 0306;
},
{
glyphname = dotaccentcomb;
layers = (
{
layerId = "9F8883BC-B634-401D-A38E-6E78924B331A";
paths = (
{
nodes = (
"180 711 OFFCURVE",
"224 753 OFFCURVE",
"224 810 CURVE SMOOTH",
"224 866 OFFCURVE",
"180 910 OFFCURVE",
"124 910 CURVE SMOOTH",
"67 910 OFFCURVE",
"25 866 OFFCURVE",
"25 810 CURVE SMOOTH",
"25 754 OFFCURVE",
"68 711 OFFCURVE",
"124 711 CURVE SMOOTH"
);
}
);
width = 249;
}
);
unicode = 0307;
},
{
glyphname = dieresiscomb;
layers = (
{
layerId = "9F8883BC-B634-401D-A38E-6E78924B331A";
paths = (
{
nodes = (
"211 728 OFFCURVE",
"246 760 OFFCURVE",
"246 803 CURVE SMOOTH",
"246 847 OFFCURVE",
"212 878 OFFCURVE",
"171 878 CURVE SMOOTH",
"130 878 OFFCURVE",
"96 847 OFFCURVE",
"96 803 CURVE SMOOTH",
"96 763 OFFCURVE",
"128 728 OFFCURVE",
"171 728 CURVE SMOOTH"
);
},
{
nodes = (
"436 728 OFFCURVE",
"471 760 OFFCURVE",
"471 803 CURVE SMOOTH",
"471 847 OFFCURVE",
"437 878 OFFCURVE",
"396 878 CURVE SMOOTH",
"355 878 OFFCURVE",
"321 847 OFFCURVE",
"321 803 CURVE SMOOTH",
"321 763 OFFCURVE",
"353 728 OFFCURVE",
"396 728 CURVE SMOOTH"
);
}
);
width = 555;
}
);
unicode = 0308;
},
{
glyphname = ringcomb;
layers = (
{
layerId = "9F8883BC-B634-401D-A38E-6E78924B331A";
paths = (
{
nodes = (
"216 722 OFFCURVE",
"274 778 OFFCURVE",
"274 847 CURVE SMOOTH",
"274 913 OFFCURVE",
"219 972 OFFCURVE",
"149 972 CURVE SMOOTH",
"79 972 OFFCURVE",
"24 913 OFFCURVE",
"24 847 CURVE SMOOTH",
"24 776 OFFCURVE",
"84 722 OFFCURVE",
"149 722 CURVE SMOOTH"
);
},
{
nodes = (
"112 782 OFFCURVE",
"84 812 OFFCURVE",
"84 847 CURVE SMOOTH",
"84 882 OFFCURVE",
"112 912 OFFCURVE",
"149 912 CURVE SMOOTH",
"186 912 OFFCURVE",
"214 882 OFFCURVE",
"214 847 CURVE SMOOTH",
"214 812 OFFCURVE",
"186 782 OFFCURVE",
"149 782 CURVE SMOOTH"
);
}
);
width = 293;
}
);
unicode = 030A;
},
{
glyphname = doubleacutecomb;
layers = (
{
layerId = "9F8883BC-B634-401D-A38E-6E78924B331A";
paths = (
{
nodes = (
"278 730 LINE",
"380 867 LINE",
"217 867 LINE",
"110 730 LINE"
);
},
{
nodes = (
"514 730 LINE",
"616 867 LINE",
"453 867 LINE",
"346 730 LINE"
);
}
);
width = 720;
}
);
unicode = 030B;
},
{
glyphname = caroncomb;
layers = (
{
layerId = "9F8883BC-B634-401D-A38E-6E78924B331A";
paths = (
{
nodes = (
"362 730 LINE",
"464 867 LINE",
"314 867 LINE",
"272 810 LINE",
"230 867 LINE",
"80 867 LINE",
"182 730 LINE"
);
}
);
width = 545;
}
);
unicode = 030C;
},
{
glyphname = commaaccentcomb;
layers = (
{
layerId = "9F8883BC-B634-401D-A38E-6E78924B331A";
paths = (
{
nodes = (
"199 -165 LINE",
"199 81 LINE",
"49 81 LINE",
"49 -165 LINE"
);
}
);
width = 246;
}
);
unicode = 0326;
},
{
glyphname = cedillacomb;
layers = (
{
layerId = "9F8883BC-B634-401D-A38E-6E78924B331A";
paths = (
{
nodes = (
"211 -280 LINE SMOOTH",
"267 -280 OFFCURVE",
"314 -235 OFFCURVE",
"314 -178 CURVE SMOOTH",
"314 -84 LINE",
"189 -84 LINE",
"189 76 LINE",
"107 76 LINE",
"107 -157 LINE",
"232 -157 LINE",
"232 -178 LINE SMOOTH",
"232 -190 OFFCURVE",
"223 -199 OFFCURVE",
"211 -199 CURVE SMOOTH",
"107 -199 LINE",
"107 -280 LINE"
);
}
);
width = 345;
}
);
unicode = 0327;
},
{
glyphname = ogonekcomb;
layers = (
{
layerId = "9F8883BC-B634-401D-A38E-6E78924B331A";
paths = (
{
nodes = (
"314 -280 LINE",
"314 -199 LINE",
"210 -199 LINE SMOOTH",
"198 -199 OFFCURVE",
"189 -190 OFFCURVE",
"189 -178 CURVE SMOOTH",
"189 -157 LINE",
"314 -157 LINE",
"314 32 LINE",
"232 32 LINE",
"232 -84 LINE",
"107 -84 LINE",
"107 -178 LINE SMOOTH",
"107 -236 OFFCURVE",
"155 -280 OFFCURVE",
"210 -280 CURVE SMOOTH"
);
}
);
width = 402;
}
);
unicode = 0328;
},
{
glyphname = zdotaccent;
layers = (
{
layerId = "9F8883BC-B634-401D-A38E-6E78924B331A";
paths = (
{
nodes = (
"548 0 LINE",
"548 150 LINE",
"221 150 LINE",
"524 515 LINE",
"330 515 LINE",
"18 137 LINE",
"18 0 LINE"
);
},
{
nodes = (
"548 544 LINE",
"548 694 LINE",
"18 694 LINE",
"18 544 LINE"
);
},
{
nodes = (
"356 711 OFFCURVE",
"400 753 OFFCURVE",
"400 810 CURVE SMOOTH",
"400 866 OFFCURVE",
"356 910 OFFCURVE",
"300 910 CURVE SMOOTH",
"243 910 OFFCURVE",
"201 866 OFFCURVE",
"201 810 CURVE SMOOTH",
"201 754 OFFCURVE",
"244 711 OFFCURVE",
"300 711 CURVE SMOOTH"
);
}
);
width = 602;
}
);
unicode = 017C;
},
{
glyphname = uring;
layers = (
{
layerId = "9F8883BC-B634-401D-A38E-6E78924B331A";
paths = (
{
nodes = (
"497 0 OFFCURVE",
"630 129 OFFCURVE",
"630 292 CURVE SMOOTH",
"630 693 LINE",
"480 693 LINE",
"480 292 LINE SMOOTH",
"480 211 OFFCURVE",
"415 150 OFFCURVE",
"338 150 CURVE SMOOTH",
"254 150 OFFCURVE",
"191 211 OFFCURVE",
"191 292 CURVE SMOOTH",
"191 693 LINE",
"40 693 LINE",
"40 292 LINE SMOOTH",
"40 127 OFFCURVE",
"171 0 OFFCURVE",
"338 0 CURVE SMOOTH"
);
},
{
nodes = (
"408 722 OFFCURVE",
"466 778 OFFCURVE",
"466 847 CURVE SMOOTH",
"466 913 OFFCURVE",
"411 972 OFFCURVE",
"341 972 CURVE SMOOTH",
"271 972 OFFCURVE",
"216 913 OFFCURVE",
"216 847 CURVE SMOOTH",
"216 776 OFFCURVE",
"276 722 OFFCURVE",
"341 722 CURVE SMOOTH"
);
},
{
nodes = (
"306 782 OFFCURVE",
"276 810 OFFCURVE",
"276 847 CURVE SMOOTH",
"276 884 OFFCURVE",
"306 912 OFFCURVE",
"341 912 CURVE SMOOTH",
"376 912 OFFCURVE",
"406 884 OFFCURVE",
"406 847 CURVE SMOOTH",
"406 810 OFFCURVE",
"376 782 OFFCURVE",
"341 782 CURVE SMOOTH"
);
}
);
width = 708;
}
);
unicode = 016F;
},
{
glyphname = Ocircumflex;
layers = (
{
layerId = "9F8883BC-B634-401D-A38E-6E78924B331A";
paths = (
{
nodes = (
"504 0 OFFCURVE",
"633 132 OFFCURVE",
"633 292 CURVE SMOOTH",
"633 401 LINE SMOOTH",
"633 520 OFFCURVE",
"562 624 OFFCURVE",
"455 670 CURVE SMOOTH",
"404 692 OFFCURVE",
"371 693 OFFCURVE",
"311 693 CURVE SMOOTH",
"152 693 OFFCURVE",
"18 565 OFFCURVE",
"18 401 CURVE SMOOTH",
"18 292 LINE SMOOTH",
"18 173 OFFCURVE",
"88 70 OFFCURVE",
"198 23 CURVE SMOOTH",
"249 1 OFFCURVE",
"282 0 OFFCURVE",
"341 0 CURVE SMOOTH"
);
},
{
nodes = (
"311 150 LINE SMOOTH",
"230 150 OFFCURVE",
"169 215 OFFCURVE",
"169 292 CURVE SMOOTH",
"169 401 LINE SMOOTH",
"169 481 OFFCURVE",
"231 544 OFFCURVE",
"311 544 CURVE SMOOTH",
"341 544 LINE SMOOTH",
"421 544 OFFCURVE",
"483 480 OFFCURVE",
"483 401 CURVE SMOOTH",
"483 292 LINE SMOOTH",
"483 211 OFFCURVE",
"418 150 OFFCURVE",
"341 150 CURVE SMOOTH"
);
},
{
nodes = (
"527 731 LINE",
"425 868 LINE",
"245 868 LINE",
"143 731 LINE",
"293 731 LINE",
"335 788 LINE",
"377 731 LINE"
);
}
);
width = 671;
}
);
unicode = 00D4;
},
{
glyphname = ocircumflex;
layers = (
{
layerId = "9F8883BC-B634-401D-A38E-6E78924B331A";
paths = (
{
nodes = (
"504 0 OFFCURVE",
"633 132 OFFCURVE",
"633 292 CURVE SMOOTH",
"633 401 LINE SMOOTH",
"633 520 OFFCURVE",
"562 624 OFFCURVE",
"455 670 CURVE SMOOTH",
"404 692 OFFCURVE",
"371 693 OFFCURVE",
"311 693 CURVE SMOOTH",
"152 693 OFFCURVE",
"18 565 OFFCURVE",
"18 401 CURVE SMOOTH",
"18 292 LINE SMOOTH",
"18 173 OFFCURVE",
"88 70 OFFCURVE",
"198 23 CURVE SMOOTH",
"249 1 OFFCURVE",
"282 0 OFFCURVE",
"341 0 CURVE SMOOTH"
);
},
{
nodes = (
"311 150 LINE SMOOTH",
"230 150 OFFCURVE",
"169 215 OFFCURVE",
"169 292 CURVE SMOOTH",
"169 401 LINE SMOOTH",
"169 481 OFFCURVE",
"231 544 OFFCURVE",
"311 544 CURVE SMOOTH",
"341 544 LINE SMOOTH",
"421 544 OFFCURVE",
"483 480 OFFCURVE",
"483 401 CURVE SMOOTH",
"483 292 LINE SMOOTH",
"483 211 OFFCURVE",
"418 150 OFFCURVE",
"341 150 CURVE SMOOTH"
);
},
{
nodes = (
"527 730 LINE",
"425 867 LINE",
"245 867 LINE",
"143 730 LINE",
"293 730 LINE",
"335 787 LINE",
"377 730 LINE"
);
}
);
width = 671;
}
);
unicode = 00F4;
},
{
glyphname = Icircumflex;
layers = (
{
layerId = "9F8883BC-B634-401D-A38E-6E78924B331A";
paths = (
{
nodes = (
"207 0 LINE",
"207 693 LINE",
"57 693 LINE",
"57 0 LINE"
);
},
{
nodes = (
"322 731 LINE",
"220 868 LINE",
"40 868 LINE",
"-62 731 LINE",
"88 731 LINE",
"130 788 LINE",
"172 731 LINE"
);
}
);
width = 260;
}
);
unicode = 00CE;
},
{
glyphname = icircumflex;
layers = (
{
layerId = "9F8883BC-B634-401D-A38E-6E78924B331A";
paths = (
{
nodes = (
"207 0 LINE",
"207 693 LINE",
"57 693 LINE",
"57 0 LINE"
);
},
{
nodes = (
"322 730 LINE",
"220 867 LINE",
"40 867 LINE",
"-62 730 LINE",
"88 730 LINE",
"130 787 LINE",
"172 730 LINE"
);
}
);
width = 260;
}
);
unicode = 00EE;
},
{
glyphname = acircumflex;
layers = (
{
layerId = "9F8883BC-B634-401D-A38E-6E78924B331A";
paths = (
{
nodes = (
"576 0 LINE",
"275 725 LINE",
"-28 0 LINE",
"134 0 LINE",
"275 337 LINE",
"306 262 OFFCURVE",
"325 217 OFFCURVE",
"354 150 CURVE",
"237 150 LINE",
"175 0 LINE"
);
},
{
nodes = (
"478 730 LINE",
"376 867 LINE",
"196 867 LINE",
"94 730 LINE",
"244 730 LINE",
"286 787 LINE",
"328 730 LINE"
);
}
);
width = 573;
}
);
unicode = 00E2;
},
{
glyphname = Acircumflex;
layers = (
{
layerId = "9F8883BC-B634-401D-A38E-6E78924B331A";
paths = (
{
nodes = (
"576 0 LINE",
"275 725 LINE",
"-28 0 LINE",
"134 0 LINE",
"275 337 LINE",
"306 262 OFFCURVE",
"325 217 OFFCURVE",
"354 150 CURVE",
"237 150 LINE",
"175 0 LINE"
);
},
{
nodes = (
"478 731 LINE",
"376 868 LINE",
"196 868 LINE",
"94 731 LINE",
"244 731 LINE",
"286 788 LINE",
"328 731 LINE"
);
}
);
width = 573;
}
);
unicode = 00C2;
},
{
glyphname = Scedilla;
layers = (
{
layerId = "9F8883BC-B634-401D-A38E-6E78924B331A";
paths = (
{
nodes = (
"306 0 LINE SMOOTH",
"437 0 OFFCURVE",
"544 104 OFFCURVE",
"544 238 CURVE SMOOTH",
"544 368 LINE",
"393 368 LINE",
"393 238 LINE SMOOTH",
"393 188 OFFCURVE",
"354 150 OFFCURVE",
"306 150 CURVE SMOOTH",
"30 150 LINE",
"30 0 LINE"
);
},
{
nodes = (
"180 326 LINE",
"180 456 LINE SMOOTH",
"180 503 OFFCURVE",
"217 544 OFFCURVE",
"268 544 CURVE SMOOTH",
"544 544 LINE",
"544 694 LINE",
"268 694 LINE SMOOTH",
"138 694 OFFCURVE",
"30 590 OFFCURVE",
"30 456 CURVE SMOOTH",
"30 326 LINE"
);
},
{
nodes = (
"302 -280 LINE SMOOTH",
"358 -280 OFFCURVE",
"405 -235 OFFCURVE",
"405 -178 CURVE SMOOTH",
"405 -84 LINE",
"280 -84 LINE",
"280 76 LINE",
"198 76 LINE",
"198 -157 LINE",
"323 -157 LINE",
"323 -178 LINE SMOOTH",
"323 -190 OFFCURVE",
"314 -199 OFFCURVE",
"302 -199 CURVE SMOOTH",
"198 -199 LINE",
"198 -280 LINE"
);
}
);
width = 609;
}
);
unicode = 015E;
},
{
glyphname = scedilla;
layers = (
{
layerId = "9F8883BC-B634-401D-A38E-6E78924B331A";
paths = (
{
nodes = (
"306 0 LINE SMOOTH",
"437 0 OFFCURVE",
"544 104 OFFCURVE",
"544 238 CURVE SMOOTH",
"544 368 LINE",
"393 368 LINE",
"393 238 LINE SMOOTH",
"393 188 OFFCURVE",
"354 150 OFFCURVE",
"306 150 CURVE SMOOTH",
"30 150 LINE",
"30 0 LINE"
);
},
{
nodes = (
"180 326 LINE",
"180 456 LINE SMOOTH",
"180 503 OFFCURVE",
"217 544 OFFCURVE",
"268 544 CURVE SMOOTH",
"544 544 LINE",
"544 694 LINE",
"268 694 LINE SMOOTH",
"138 694 OFFCURVE",
"30 590 OFFCURVE",
"30 456 CURVE SMOOTH",
"30 326 LINE"
);
},
{
nodes = (
"302 -280 LINE SMOOTH",
"358 -280 OFFCURVE",
"405 -235 OFFCURVE",
"405 -178 CURVE SMOOTH",
"405 -84 LINE",
"280 -84 LINE",
"280 76 LINE",
"198 76 LINE",
"198 -157 LINE",
"323 -157 LINE",
"323 -178 LINE SMOOTH",
"323 -190 OFFCURVE",
"314 -199 OFFCURVE",
"302 -199 CURVE SMOOTH",
"198 -199 LINE",
"198 -280 LINE"
);
}
);
width = 609;
}
);
unicode = 015F;
},
{
glyphname = Uring;
layers = (
{
layerId = "9F8883BC-B634-401D-A38E-6E78924B331A";
paths = (
{
nodes = (
"497 0 OFFCURVE",
"630 129 OFFCURVE",
"630 292 CURVE SMOOTH",
"630 693 LINE",
"480 693 LINE",
"480 292 LINE SMOOTH",
"480 211 OFFCURVE",
"415 150 OFFCURVE",
"338 150 CURVE SMOOTH",
"254 150 OFFCURVE",
"191 211 OFFCURVE",
"191 292 CURVE SMOOTH",
"191 693 LINE",
"40 693 LINE",
"40 292 LINE SMOOTH",
"40 127 OFFCURVE",
"171 0 OFFCURVE",
"338 0 CURVE SMOOTH"
);
},
{
nodes = (
"421 723 OFFCURVE",
"479 779 OFFCURVE",
"479 848 CURVE SMOOTH",
"479 914 OFFCURVE",
"424 973 OFFCURVE",
"354 973 CURVE SMOOTH",
"284 973 OFFCURVE",
"229 914 OFFCURVE",
"229 848 CURVE SMOOTH",
"229 777 OFFCURVE",
"289 723 OFFCURVE",
"354 723 CURVE SMOOTH"
);
},
{
nodes = (
"319 783 OFFCURVE",
"289 811 OFFCURVE",
"289 848 CURVE SMOOTH",
"289 885 OFFCURVE",
"319 913 OFFCURVE",
"354 913 CURVE SMOOTH",
"389 913 OFFCURVE",
"419 885 OFFCURVE",
"419 848 CURVE SMOOTH",
"419 811 OFFCURVE",
"389 783 OFFCURVE",
"354 783 CURVE SMOOTH"
);
}
);
width = 708;
}
);
unicode = 016E;
},
{
glyphname = germandbls;
layers = (
{
layerId = "9F8883BC-B634-401D-A38E-6E78924B331A";
paths = (
{
nodes = (
"356 0 LINE SMOOTH",
"490 0 OFFCURVE",
"566 111 OFFCURVE",
"566 213 CURVE SMOOTH",
"566 258 OFFCURVE",
"554 307 OFFCURVE",
"518 348 CURVE",
"554 387 OFFCURVE",
"567 433 OFFCURVE",
"567 480 CURVE SMOOTH",
"567 586 OFFCURVE",
"486 691 OFFCURVE",
"356 694 CURVE",
"279 694 LINE SMOOTH",
"149 694 OFFCURVE",
"41 590 OFFCURVE",
"41 456 CURVE SMOOTH",
"41 0 LINE",
"191 0 LINE",
"191 456 LINE SMOOTH",
"191 503 OFFCURVE",
"228 544 OFFCURVE",
"279 544 CURVE SMOOTH",
"356 544 LINE SMOOTH",
"392 544 OFFCURVE",
"417 516 OFFCURVE",
"417 482 CURVE SMOOTH",
"417 449 OFFCURVE",
"392 421 OFFCURVE",
"356 421 CURVE SMOOTH",
"253 421 LINE",
"253 272 LINE",
"356 272 LINE SMOOTH",
"392 272 OFFCURVE",
"417 244 OFFCURVE",
"417 211 CURVE SMOOTH",
"417 177 OFFCURVE",
"392 150 OFFCURVE",
"356 150 CURVE SMOOTH",
"253 150 LINE",
"253 0 LINE"
);
}
);
width = 595;
}
);
unicode = 00DF;
},
{
glyphname = Germandbls;
layers = (
{
layerId = "9F8883BC-B634-401D-A38E-6E78924B331A";
paths = (
{
nodes = (
"356 0 LINE SMOOTH",
"490 0 OFFCURVE",
"566 111 OFFCURVE",
"566 213 CURVE SMOOTH",
"566 259 OFFCURVE",
"560 299 OFFCURVE",
"491 381 CURVE",
"546 532 LINE",
"546 693 LINE",
"279 694 LINE",
"149 694 OFFCURVE",
"41 590 OFFCURVE",
"41 456 CURVE SMOOTH",
"41 0 LINE",
"191 0 LINE",
"191 456 LINE SMOOTH",
"191 503 OFFCURVE",
"228 544 OFFCURVE",
"279 544 CURVE SMOOTH",
"393 544 LINE",
"356 421 LINE",
"262 421 LINE",
"262 272 LINE",
"356 272 LINE SMOOTH",
"392 272 OFFCURVE",
"417 244 OFFCURVE",
"417 211 CURVE SMOOTH",
"417 177 OFFCURVE",
"392 150 OFFCURVE",
"356 150 CURVE SMOOTH",
"262 150 LINE",
"262 0 LINE"
);
}
);
width = 595;
}
);
unicode = 1E9E;
},
{
glyphname = Zdotaccent;
layers = (
{
layerId = "9F8883BC-B634-401D-A38E-6E78924B331A";
paths = (
{
nodes = (
"548 0 LINE",
"548 150 LINE",
"221 150 LINE",
"524 515 LINE",
"330 515 LINE",
"18 137 LINE",
"18 0 LINE"
);
},
{
nodes = (
"548 544 LINE",
"548 694 LINE",
"18 694 LINE",
"18 544 LINE"
);
},
{
nodes = (
"356 712 OFFCURVE",
"400 754 OFFCURVE",
"400 811 CURVE SMOOTH",
"400 867 OFFCURVE",
"356 911 OFFCURVE",
"300 911 CURVE SMOOTH",
"243 911 OFFCURVE",
"201 867 OFFCURVE",
"201 811 CURVE SMOOTH",
"201 755 OFFCURVE",
"244 712 OFFCURVE",
"300 712 CURVE SMOOTH"
);
}
);
width = 602;
}
);
unicode = 017B;
},
{
glyphname = AE;
layers = (
{
layerId = "9F8883BC-B634-401D-A38E-6E78924B331A";
paths = (
{
nodes = (
"859 0 LINE",
"859 150 LINE",
"702 150 LINE SMOOTH",
"626 150 OFFCURVE",
"560 193 OFFCURVE",
"528 255 CURVE",
"513 292 OFFCURVE",
"506 303 OFFCURVE",
"506 347 CURVE SMOOTH",
"506 456 OFFCURVE",
"593 544 OFFCURVE",
"702 544 CURVE SMOOTH",
"859 544 LINE",
"859 694 LINE",
"702 694 LINE SMOOTH",
"575 694 OFFCURVE",
"471 626 OFFCURVE",
"411 536 CURVE",
"333 725 LINE",
"30 0 LINE",
"192 0 LINE",
"333 337 LINE",
"412 150 LINE",
"295 150 LINE",
"233 0 LINE"
);
},
{
nodes = (
"859 272 LINE",
"859 422 LINE",
"553 422 LINE",
"542 391 OFFCURVE",
"537 369 OFFCURVE",
"537 347 CURVE SMOOTH",
"537 328 OFFCURVE",
"542 304 OFFCURVE",
"555 272 CURVE"
);
}
);
width = 902;
}
);
unicode = 00C6;
},
{
glyphname = ae;
layers = (
{
layerId = "9F8883BC-B634-401D-A38E-6E78924B331A";
paths = (
{
nodes = (
"859 0 LINE",
"859 150 LINE",
"702 150 LINE SMOOTH",
"626 150 OFFCURVE",
"560 193 OFFCURVE",
"528 255 CURVE",
"513 292 OFFCURVE",
"506 303 OFFCURVE",
"506 347 CURVE SMOOTH",
"506 456 OFFCURVE",
"593 544 OFFCURVE",
"702 544 CURVE SMOOTH",
"859 544 LINE",
"859 694 LINE",
"702 694 LINE SMOOTH",
"575 694 OFFCURVE",
"471 626 OFFCURVE",
"411 536 CURVE",
"333 725 LINE",
"30 0 LINE",
"192 0 LINE",
"333 337 LINE",
"412 150 LINE",
"295 150 LINE",
"233 0 LINE"
);
},
{
nodes = (
"859 272 LINE",
"859 422 LINE",
"553 422 LINE",
"542 391 OFFCURVE",
"537 369 OFFCURVE",
"537 347 CURVE SMOOTH",
"537 328 OFFCURVE",
"542 304 OFFCURVE",
"555 272 CURVE"
);
}
);
width = 902;
}
);
unicode = 00E6;
},
{
glyphname = aring;
layers = (
{
layerId = "9F8883BC-B634-401D-A38E-6E78924B331A";
paths = (
{
nodes = (
"576 0 LINE",
"275 725 LINE",
"-28 0 LINE",
"134 0 LINE",
"275 337 LINE",
"306 262 OFFCURVE",
"325 217 OFFCURVE",
"354 150 CURVE",
"237 150 LINE",
"175 0 LINE"
);
},
{
nodes = (
"353 722 OFFCURVE",
"411 778 OFFCURVE",
"411 847 CURVE SMOOTH",
"411 913 OFFCURVE",
"356 972 OFFCURVE",
"286 972 CURVE SMOOTH",
"216 972 OFFCURVE",
"161 913 OFFCURVE",
"161 847 CURVE SMOOTH",
"161 776 OFFCURVE",
"221 722 OFFCURVE",
"286 722 CURVE SMOOTH"
);
},
{
nodes = (
"249 782 OFFCURVE",
"221 812 OFFCURVE",
"221 847 CURVE SMOOTH",
"221 882 OFFCURVE",
"249 912 OFFCURVE",
"286 912 CURVE SMOOTH",
"321 912 OFFCURVE",
"351 884 OFFCURVE",
"351 847 CURVE SMOOTH",
"351 810 OFFCURVE",
"321 782 OFFCURVE",
"286 782 CURVE SMOOTH"
);
}
);
width = 573;
}
);
unicode = 00E5;
},
{
glyphname = Aring;
layers = (
{
layerId = "9F8883BC-B634-401D-A38E-6E78924B331A";
paths = (
{
nodes = (
"576 0 LINE",
"275 725 LINE",
"-28 0 LINE",
"134 0 LINE",
"275 337 LINE",
"306 262 OFFCURVE",
"325 217 OFFCURVE",
"354 150 CURVE",
"237 150 LINE",
"175 0 LINE"
);
},
{
nodes = (
"353 723 OFFCURVE",
"411 779 OFFCURVE",
"411 848 CURVE SMOOTH",
"411 914 OFFCURVE",
"356 973 OFFCURVE",
"286 973 CURVE SMOOTH",
"216 973 OFFCURVE",
"161 914 OFFCURVE",
"161 848 CURVE SMOOTH",
"161 777 OFFCURVE",
"221 723 OFFCURVE",
"286 723 CURVE SMOOTH"
);
},
{
nodes = (
"249 783 OFFCURVE",
"221 813 OFFCURVE",
"221 848 CURVE SMOOTH",
"221 883 OFFCURVE",
"249 913 OFFCURVE",
"286 913 CURVE SMOOTH",
"321 913 OFFCURVE",
"351 885 OFFCURVE",
"351 848 CURVE SMOOTH",
"351 811 OFFCURVE",
"321 783 OFFCURVE",
"286 783 CURVE SMOOTH"
);
}
);
width = 573;
}
);
unicode = 00C5;
},
{
glyphname = agrave;
layers = (
{
layerId = "9F8883BC-B634-401D-A38E-6E78924B331A";
paths = (
{
nodes = (
"576 0 LINE",
"275 725 LINE",
"-28 0 LINE",
"134 0 LINE",
"275 337 LINE",
"306 262 OFFCURVE",
"325 217 OFFCURVE",
"354 150 CURVE",
"237 150 LINE",
"175 0 LINE"
);
},
{
nodes = (
"421 730 LINE",
"314 867 LINE",
"151 867 LINE",
"253 730 LINE"
);
}
);
width = 573;
}
);
unicode = 00E0;
},
{
glyphname = Agrave;
layers = (
{
layerId = "9F8883BC-B634-401D-A38E-6E78924B331A";
paths = (
{
nodes = (
"576 0 LINE",
"275 725 LINE",
"-28 0 LINE",
"134 0 LINE",
"275 337 LINE",
"306 262 OFFCURVE",
"325 217 OFFCURVE",
"354 150 CURVE",
"237 150 LINE",
"175 0 LINE"
);
},
{
nodes = (
"421 731 LINE",
"314 868 LINE",
"151 868 LINE",
"253 731 LINE"
);
}
);
width = 573;
}
);
unicode = 00C0;
},
{
glyphname = egrave;
layers = (
{
layerId = "9F8883BC-B634-401D-A38E-6E78924B331A";
paths = (
{
nodes = (
"517 0 LINE",
"517 150 LINE",
"360 150 LINE SMOOTH",
"250 150 OFFCURVE",
"164 239 OFFCURVE",
"164 347 CURVE SMOOTH",
"164 456 OFFCURVE",
"251 544 OFFCURVE",
"360 544 CURVE SMOOTH",
"517 544 LINE",
"517 694 LINE",
"360 694 LINE SMOOTH",
"168 694 OFFCURVE",
"14 538 OFFCURVE",
"14 347 CURVE SMOOTH",
"14 161 OFFCURVE",
"162 0 OFFCURVE",
"360 0 CURVE SMOOTH"
);
},
{
nodes = (
"517 272 LINE",
"517 422 LINE",
"211 422 LINE",
"200 391 OFFCURVE",
"195 369 OFFCURVE",
"195 347 CURVE SMOOTH",
"195 328 OFFCURVE",
"200 304 OFFCURVE",
"213 272 CURVE"
);
},
{
nodes = (
"420 730 LINE",
"313 867 LINE",
"150 867 LINE",
"252 730 LINE"
);
}
);
width = 570;
}
);
unicode = 00E8;
},
{
glyphname = Egrave;
layers = (
{
layerId = "9F8883BC-B634-401D-A38E-6E78924B331A";
paths = (
{
nodes = (
"517 0 LINE",
"517 150 LINE",
"360 150 LINE SMOOTH",
"250 150 OFFCURVE",
"164 239 OFFCURVE",
"164 347 CURVE SMOOTH",
"164 456 OFFCURVE",
"251 544 OFFCURVE",
"360 544 CURVE SMOOTH",
"517 544 LINE",
"517 694 LINE",
"360 694 LINE SMOOTH",
"168 694 OFFCURVE",
"14 538 OFFCURVE",
"14 347 CURVE SMOOTH",
"14 161 OFFCURVE",
"162 0 OFFCURVE",
"360 0 CURVE SMOOTH"
);
},
{
nodes = (
"517 272 LINE",
"517 422 LINE",
"211 422 LINE",
"200 391 OFFCURVE",
"195 369 OFFCURVE",
"195 347 CURVE SMOOTH",
"195 328 OFFCURVE",
"200 304 OFFCURVE",
"213 272 CURVE"
);
},
{
nodes = (
"420 731 LINE",
"313 868 LINE",
"150 868 LINE",
"252 731 LINE"
);
}
);
width = 570;
}
);
unicode = 00C8;
},
{
glyphname = ecircumflex;
layers = (
{
layerId = "9F8883BC-B634-401D-A38E-6E78924B331A";
paths = (
{
nodes = (
"517 0 LINE",
"517 150 LINE",
"360 150 LINE SMOOTH",
"250 150 OFFCURVE",
"164 239 OFFCURVE",
"164 347 CURVE SMOOTH",
"164 456 OFFCURVE",
"251 544 OFFCURVE",
"360 544 CURVE SMOOTH",
"517 544 LINE",
"517 694 LINE",
"360 694 LINE SMOOTH",
"168 694 OFFCURVE",
"14 538 OFFCURVE",
"14 347 CURVE SMOOTH",
"14 161 OFFCURVE",
"162 0 OFFCURVE",
"360 0 CURVE SMOOTH"
);
},
{
nodes = (
"517 272 LINE",
"517 422 LINE",
"211 422 LINE",
"200 391 OFFCURVE",
"195 369 OFFCURVE",
"195 347 CURVE SMOOTH",
"195 328 OFFCURVE",
"200 304 OFFCURVE",
"213 272 CURVE"
);
},
{
nodes = (
"477 730 LINE",
"375 867 LINE",
"195 867 LINE",
"93 730 LINE",
"243 730 LINE",
"285 787 LINE",
"327 730 LINE"
);
}
);
width = 570;
}
);
unicode = 00EA;
},
{
glyphname = Ecircumflex;
layers = (
{
layerId = "9F8883BC-B634-401D-A38E-6E78924B331A";
paths = (
{
nodes = (
"517 0 LINE",
"517 150 LINE",
"360 150 LINE SMOOTH",
"250 150 OFFCURVE",
"164 239 OFFCURVE",
"164 347 CURVE SMOOTH",
"164 456 OFFCURVE",
"251 544 OFFCURVE",
"360 544 CURVE SMOOTH",
"517 544 LINE",
"517 694 LINE",
"360 694 LINE SMOOTH",
"168 694 OFFCURVE",
"14 538 OFFCURVE",
"14 347 CURVE SMOOTH",
"14 161 OFFCURVE",
"162 0 OFFCURVE",
"360 0 CURVE SMOOTH"
);
},
{
nodes = (
"517 272 LINE",
"517 422 LINE",
"211 422 LINE",
"200 391 OFFCURVE",
"195 369 OFFCURVE",
"195 347 CURVE SMOOTH",
"195 328 OFFCURVE",
"200 304 OFFCURVE",
"213 272 CURVE"
);
},
{
nodes = (
"477 731 LINE",
"375 868 LINE",
"195 868 LINE",
"93 731 LINE",
"243 731 LINE",
"285 788 LINE",
"327 731 LINE"
);
}
);
width = 570;
}
);
unicode = 00CA;
},
{
glyphname = igrave;
layers = (
{
layerId = "9F8883BC-B634-401D-A38E-6E78924B331A";
paths = (
{
nodes = (
"207 0 LINE",
"207 693 LINE",
"57 693 LINE",
"57 0 LINE"
);
},
{
nodes = (
"265 730 LINE",
"158 867 LINE",
"-5 867 LINE",
"97 730 LINE"
);
}
);
width = 260;
}
);
unicode = 00EC;
},
{
glyphname = Igrave;
layers = (
{
layerId = "9F8883BC-B634-401D-A38E-6E78924B331A";
paths = (
{
nodes = (
"207 0 LINE",
"207 693 LINE",
"57 693 LINE",
"57 0 LINE"
);
},
{
nodes = (
"265 731 LINE",
"158 868 LINE",
"-5 868 LINE",
"97 731 LINE"
);
}
);
width = 260;
}
);
unicode = 00CC;
},
{
glyphname = idieresis;
layers = (
{
layerId = "9F8883BC-B634-401D-A38E-6E78924B331A";
paths = (
{
nodes = (
"207 0 LINE",
"207 693 LINE",
"57 693 LINE",
"57 0 LINE"
);
},
{
nodes = (
"58 728 OFFCURVE",
"93 760 OFFCURVE",
"93 803 CURVE SMOOTH",
"93 847 OFFCURVE",
"59 878 OFFCURVE",
"18 878 CURVE SMOOTH",
"-23 878 OFFCURVE",
"-57 847 OFFCURVE",
"-57 803 CURVE SMOOTH",
"-57 760 OFFCURVE",
"-22 728 OFFCURVE",
"18 728 CURVE SMOOTH"
);
},
{
nodes = (
"283 728 OFFCURVE",
"318 760 OFFCURVE",
"318 803 CURVE SMOOTH",
"318 847 OFFCURVE",
"284 878 OFFCURVE",
"243 878 CURVE SMOOTH",
"202 878 OFFCURVE",
"168 847 OFFCURVE",
"168 803 CURVE SMOOTH",
"168 760 OFFCURVE",
"203 728 OFFCURVE",
"243 728 CURVE SMOOTH"
);
}
);
width = 260;
}
);
unicode = 00EF;
},
{
glyphname = Eth;
layers = (
{
layerId = "9F8883BC-B634-401D-A38E-6E78924B331A";
paths = (
{
nodes = (
"312 0 LINE SMOOTH",
"498 0 OFFCURVE",
"659 150 OFFCURVE",
"659 347 CURVE SMOOTH",
"659 539 OFFCURVE",
"504 694 OFFCURVE",
"312 694 CURVE SMOOTH",
"101 694 LINE",
"101 544 LINE",
"312 544 LINE SMOOTH",
"421 544 OFFCURVE",
"509 457 OFFCURVE",
"509 347 CURVE SMOOTH",
"509 238 OFFCURVE",
"422 150 OFFCURVE",
"312 150 CURVE SMOOTH",
"250 150 LINE",
"250 512 LINE",
"101 512 LINE",
"101 0 LINE"
);
},
{
nodes = (
"364 287 LINE",
"364 407 LINE",
"29 407 LINE",
"29 287 LINE"
);
}
);
width = 700;
}
);
unicode = 00D0;
},
{
glyphname = ograve;
layers = (
{
layerId = "9F8883BC-B634-401D-A38E-6E78924B331A";
paths = (
{
nodes = (
"504 0 OFFCURVE",
"633 132 OFFCURVE",
"633 292 CURVE SMOOTH",
"633 401 LINE SMOOTH",
"633 520 OFFCURVE",
"562 624 OFFCURVE",
"455 670 CURVE SMOOTH",
"404 692 OFFCURVE",
"371 693 OFFCURVE",
"311 693 CURVE SMOOTH",
"152 693 OFFCURVE",
"18 565 OFFCURVE",
"18 401 CURVE SMOOTH",
"18 292 LINE SMOOTH",
"18 173 OFFCURVE",
"88 70 OFFCURVE",
"198 23 CURVE SMOOTH",
"249 1 OFFCURVE",
"282 0 OFFCURVE",
"341 0 CURVE SMOOTH"
);
},
{
nodes = (
"311 150 LINE SMOOTH",
"230 150 OFFCURVE",
"169 215 OFFCURVE",
"169 292 CURVE SMOOTH",
"169 401 LINE SMOOTH",
"169 481 OFFCURVE",
"231 544 OFFCURVE",
"311 544 CURVE SMOOTH",
"341 544 LINE SMOOTH",
"421 544 OFFCURVE",
"483 480 OFFCURVE",
"483 401 CURVE SMOOTH",
"483 292 LINE SMOOTH",
"483 211 OFFCURVE",
"418 150 OFFCURVE",
"341 150 CURVE SMOOTH"
);
},
{
nodes = (
"470 730 LINE",
"363 867 LINE",
"200 867 LINE",
"302 730 LINE"
);
}
);
width = 671;
}
);
unicode = 00F2;
},
{
glyphname = Ograve;
layers = (
{
layerId = "9F8883BC-B634-401D-A38E-6E78924B331A";
paths = (
{
nodes = (
"504 0 OFFCURVE",
"633 132 OFFCURVE",
"633 292 CURVE SMOOTH",
"633 401 LINE SMOOTH",
"633 520 OFFCURVE",
"562 624 OFFCURVE",
"455 670 CURVE SMOOTH",
"404 692 OFFCURVE",
"371 693 OFFCURVE",
"311 693 CURVE SMOOTH",
"152 693 OFFCURVE",
"18 565 OFFCURVE",
"18 401 CURVE SMOOTH",
"18 292 LINE SMOOTH",
"18 173 OFFCURVE",
"88 70 OFFCURVE",
"198 23 CURVE SMOOTH",
"249 1 OFFCURVE",
"282 0 OFFCURVE",
"341 0 CURVE SMOOTH"
);
},
{
nodes = (
"311 150 LINE SMOOTH",
"230 150 OFFCURVE",
"169 215 OFFCURVE",
"169 292 CURVE SMOOTH",
"169 401 LINE SMOOTH",
"169 481 OFFCURVE",
"231 544 OFFCURVE",
"311 544 CURVE SMOOTH",
"341 544 LINE SMOOTH",
"421 544 OFFCURVE",
"483 480 OFFCURVE",
"483 401 CURVE SMOOTH",
"483 292 LINE SMOOTH",
"483 211 OFFCURVE",
"418 150 OFFCURVE",
"341 150 CURVE SMOOTH"
);
},
{
nodes = (
"470 731 LINE",
"363 868 LINE",
"200 868 LINE",
"302 731 LINE"
);
}
);
width = 671;
}
);
unicode = 00D2;
},
{
glyphname = oslash;
layers = (
{
layerId = "9F8883BC-B634-401D-A38E-6E78924B331A";
paths = (
{
nodes = (
"504 0 OFFCURVE",
"633 132 OFFCURVE",
"633 292 CURVE SMOOTH",
"633 401 LINE SMOOTH",
"633 520 OFFCURVE",
"562 624 OFFCURVE",
"455 670 CURVE SMOOTH",
"404 692 OFFCURVE",
"371 693 OFFCURVE",
"311 693 CURVE SMOOTH",
"152 693 OFFCURVE",
"18 565 OFFCURVE",
"18 401 CURVE SMOOTH",
"18 292 LINE SMOOTH",
"18 173 OFFCURVE",
"88 70 OFFCURVE",
"198 23 CURVE SMOOTH",
"249 1 OFFCURVE",
"282 0 OFFCURVE",
"341 0 CURVE SMOOTH"
);
},
{
nodes = (
"311 150 LINE SMOOTH",
"230 150 OFFCURVE",
"169 215 OFFCURVE",
"169 292 CURVE SMOOTH",
"169 401 LINE SMOOTH",
"169 481 OFFCURVE",
"231 544 OFFCURVE",
"311 544 CURVE SMOOTH",
"341 544 LINE SMOOTH",
"421 544 OFFCURVE",
"483 480 OFFCURVE",
"483 401 CURVE SMOOTH",
"483 292 LINE SMOOTH",
"483 211 OFFCURVE",
"418 150 OFFCURVE",
"341 150 CURVE SMOOTH"
);
},
{
nodes = (
"253 0 LINE",
"585 693 LINE",
"418 693 LINE",
"86 0 LINE"
);
}
);
width = 671;
}
);
unicode = 00F8;
},
{
glyphname = Oslash;
layers = (
{
layerId = "9F8883BC-B634-401D-A38E-6E78924B331A";
paths = (
{
nodes = (
"504 0 OFFCURVE",
"633 132 OFFCURVE",
"633 292 CURVE SMOOTH",
"633 401 LINE SMOOTH",
"633 520 OFFCURVE",
"562 624 OFFCURVE",
"455 670 CURVE SMOOTH",
"404 692 OFFCURVE",
"371 693 OFFCURVE",
"311 693 CURVE SMOOTH",
"152 693 OFFCURVE",
"18 565 OFFCURVE",
"18 401 CURVE SMOOTH",
"18 292 LINE SMOOTH",
"18 173 OFFCURVE",
"88 70 OFFCURVE",
"198 23 CURVE SMOOTH",
"249 1 OFFCURVE",
"282 0 OFFCURVE",
"341 0 CURVE SMOOTH"
);
},
{
nodes = (
"311 150 LINE SMOOTH",
"230 150 OFFCURVE",
"169 215 OFFCURVE",
"169 292 CURVE SMOOTH",
"169 401 LINE SMOOTH",
"169 481 OFFCURVE",
"231 544 OFFCURVE",
"311 544 CURVE SMOOTH",
"341 544 LINE SMOOTH",
"421 544 OFFCURVE",
"483 480 OFFCURVE",
"483 401 CURVE SMOOTH",
"483 292 LINE SMOOTH",
"483 211 OFFCURVE",
"418 150 OFFCURVE",
"341 150 CURVE SMOOTH"
);
},
{
nodes = (
"253 0 LINE",
"585 693 LINE",
"418 693 LINE",
"86 0 LINE"
);
}
);
width = 671;
}
);
unicode = 00D8;
},
{
glyphname = ugrave;
layers = (
{
layerId = "9F8883BC-B634-401D-A38E-6E78924B331A";
paths = (
{
nodes = (
"497 0 OFFCURVE",
"630 129 OFFCURVE",
"630 292 CURVE SMOOTH",
"630 693 LINE",
"480 693 LINE",
"480 292 LINE SMOOTH",
"480 211 OFFCURVE",
"415 150 OFFCURVE",
"338 150 CURVE SMOOTH",
"254 150 OFFCURVE",
"191 211 OFFCURVE",
"191 292 CURVE SMOOTH",
"191 693 LINE",
"40 693 LINE",
"40 292 LINE SMOOTH",
"40 127 OFFCURVE",
"171 0 OFFCURVE",
"338 0 CURVE SMOOTH"
);
},
{
nodes = (
"489 730 LINE",
"382 867 LINE",
"219 867 LINE",
"321 730 LINE"
);
}
);
width = 708;
}
);
unicode = 00F9;
},
{
glyphname = Ugrave;
layers = (
{
layerId = "9F8883BC-B634-401D-A38E-6E78924B331A";
paths = (
{
nodes = (
"497 0 OFFCURVE",
"630 129 OFFCURVE",
"630 292 CURVE SMOOTH",
"630 693 LINE",
"480 693 LINE",
"480 292 LINE SMOOTH",
"480 211 OFFCURVE",
"415 150 OFFCURVE",
"338 150 CURVE SMOOTH",
"254 150 OFFCURVE",
"191 211 OFFCURVE",
"191 292 CURVE SMOOTH",
"191 693 LINE",
"40 693 LINE",
"40 292 LINE SMOOTH",
"40 127 OFFCURVE",
"171 0 OFFCURVE",
"338 0 CURVE SMOOTH"
);
},
{
nodes = (
"489 731 LINE",
"382 868 LINE",
"219 868 LINE",
"321 731 LINE"
);
}
);
width = 708;
}
);
unicode = 00D9;
},
{
glyphname = ucircumflex;
layers = (
{
layerId = "9F8883BC-B634-401D-A38E-6E78924B331A";
paths = (
{
nodes = (
"497 0 OFFCURVE",
"630 129 OFFCURVE",
"630 292 CURVE SMOOTH",
"630 693 LINE",
"480 693 LINE",
"480 292 LINE SMOOTH",
"480 211 OFFCURVE",
"415 150 OFFCURVE",
"338 150 CURVE SMOOTH",
"254 150 OFFCURVE",
"191 211 OFFCURVE",
"191 292 CURVE SMOOTH",
"191 693 LINE",
"40 693 LINE",
"40 292 LINE SMOOTH",
"40 127 OFFCURVE",
"171 0 OFFCURVE",
"338 0 CURVE SMOOTH"
);
},
{
nodes = (
"546 730 LINE",
"444 867 LINE",
"264 867 LINE",
"162 730 LINE",
"312 730 LINE",
"354 787 LINE",
"396 730 LINE"
);
}
);
width = 708;
}
);
unicode = 00FB;
},
{
glyphname = Ucircumflex;
layers = (
{
layerId = "9F8883BC-B634-401D-A38E-6E78924B331A";
paths = (
{
nodes = (
"497 0 OFFCURVE",
"630 129 OFFCURVE",
"630 292 CURVE SMOOTH",
"630 693 LINE",
"480 693 LINE",
"480 292 LINE SMOOTH",
"480 211 OFFCURVE",
"415 150 OFFCURVE",
"338 150 CURVE SMOOTH",
"254 150 OFFCURVE",
"191 211 OFFCURVE",
"191 292 CURVE SMOOTH",
"191 693 LINE",
"40 693 LINE",
"40 292 LINE SMOOTH",
"40 127 OFFCURVE",
"171 0 OFFCURVE",
"338 0 CURVE SMOOTH"
);
},
{
nodes = (
"546 731 LINE",
"444 868 LINE",
"264 868 LINE",
"162 731 LINE",
"312 731 LINE",
"354 788 LINE",
"396 731 LINE"
);
}
);
width = 708;
}
);
unicode = 00DB;
},
{
glyphname = ydieresis;
layers = (
{
layerId = "9F8883BC-B634-401D-A38E-6E78924B331A";
paths = (
{
nodes = (
"373 415 LINE",
"570 693 LINE",
"390 693 LINE",
"283 550 LINE"
);
},
{
nodes = (
"356 0 LINE",
"356 385 LINE",
"150 693 LINE",
"-29 693 LINE",
"207 340 LINE",
"207 0 LINE"
);
},
{
nodes = (
"202 728 OFFCURVE",
"237 760 OFFCURVE",
"237 803 CURVE SMOOTH",
"237 847 OFFCURVE",
"203 878 OFFCURVE",
"162 878 CURVE SMOOTH",
"121 878 OFFCURVE",
"87 847 OFFCURVE",
"87 803 CURVE SMOOTH",
"87 760 OFFCURVE",
"122 728 OFFCURVE",
"162 728 CURVE SMOOTH"
);
},
{
nodes = (
"427 728 OFFCURVE",
"462 760 OFFCURVE",
"462 803 CURVE SMOOTH",
"462 847 OFFCURVE",
"428 878 OFFCURVE",
"387 878 CURVE SMOOTH",
"346 878 OFFCURVE",
"312 847 OFFCURVE",
"312 803 CURVE SMOOTH",
"312 763 OFFCURVE",
"344 728 OFFCURVE",
"387 728 CURVE SMOOTH"
);
}
);
width = 548;
}
);
unicode = 00FF;
},
{
glyphname = Ydieresis;
layers = (
{
layerId = "9F8883BC-B634-401D-A38E-6E78924B331A";
paths = (
{
nodes = (
"373 415 LINE",
"570 693 LINE",
"390 693 LINE",
"283 550 LINE"
);
},
{
nodes = (
"356 0 LINE",
"356 385 LINE",
"150 693 LINE",
"-29 693 LINE",
"207 340 LINE",
"207 0 LINE"
);
},
{
nodes = (
"202 729 OFFCURVE",
"237 761 OFFCURVE",
"237 804 CURVE SMOOTH",
"237 848 OFFCURVE",
"203 879 OFFCURVE",
"162 879 CURVE SMOOTH",
"121 879 OFFCURVE",
"87 848 OFFCURVE",
"87 804 CURVE SMOOTH",
"87 761 OFFCURVE",
"122 729 OFFCURVE",
"162 729 CURVE SMOOTH"
);
},
{
nodes = (
"427 729 OFFCURVE",
"462 761 OFFCURVE",
"462 804 CURVE SMOOTH",
"462 848 OFFCURVE",
"428 879 OFFCURVE",
"387 879 CURVE SMOOTH",
"346 879 OFFCURVE",
"312 848 OFFCURVE",
"312 804 CURVE SMOOTH",
"312 764 OFFCURVE",
"344 729 OFFCURVE",
"387 729 CURVE SMOOTH"
);
}
);
width = 548;
}
);
unicode = 0178;
},
{
glyphname = oe;
layers = (
{
layerId = "9F8883BC-B634-401D-A38E-6E78924B331A";
paths = (
{
nodes = (
"1026 0 LINE",
"1026 150 LINE",
"869 150 LINE SMOOTH",
"759 150 OFFCURVE",
"673 239 OFFCURVE",
"673 347 CURVE SMOOTH",
"673 456 OFFCURVE",
"760 544 OFFCURVE",
"869 544 CURVE SMOOTH",
"1026 544 LINE",
"1026 694 LINE",
"869 694 LINE SMOOTH",
"759 694 OFFCURVE",
"654 641 OFFCURVE",
"591 553 CURVE",
"560 604 OFFCURVE",
"510 647 OFFCURVE",
"456 670 CURVE SMOOTH",
"405 692 OFFCURVE",
"372 693 OFFCURVE",
"312 693 CURVE SMOOTH",
"153 693 OFFCURVE",
"19 565 OFFCURVE",
"19 401 CURVE SMOOTH",
"19 292 LINE SMOOTH",
"19 173 OFFCURVE",
"89 70 OFFCURVE",
"199 23 CURVE SMOOTH",
"250 1 OFFCURVE",
"283 0 OFFCURVE",
"342 0 CURVE SMOOTH",
"454 0 OFFCURVE",
"542 61 OFFCURVE",
"591 139 CURVE",
"650 64 OFFCURVE",
"743 0 OFFCURVE",
"869 0 CURVE SMOOTH"
);
},
{
nodes = (
"312 150 LINE SMOOTH",
"231 150 OFFCURVE",
"170 215 OFFCURVE",
"170 292 CURVE SMOOTH",
"170 401 LINE SMOOTH",
"170 481 OFFCURVE",
"232 544 OFFCURVE",
"312 544 CURVE SMOOTH",
"342 544 LINE SMOOTH",
"422 544 OFFCURVE",
"484 480 OFFCURVE",
"484 401 CURVE SMOOTH",
"484 292 LINE SMOOTH",
"484 211 OFFCURVE",
"419 150 OFFCURVE",
"342 150 CURVE SMOOTH"
);
},
{
nodes = (
"1026 272 LINE",
"1026 422 LINE",
"720 422 LINE",
"709 391 OFFCURVE",
"704 369 OFFCURVE",
"704 347 CURVE SMOOTH",
"704 328 OFFCURVE",
"709 304 OFFCURVE",
"722 272 CURVE"
);
}
);
width = 1057;
}
);
unicode = 0153;
},
{
glyphname = OE;
layers = (
{
layerId = "9F8883BC-B634-401D-A38E-6E78924B331A";
paths = (
{
nodes = (
"1026 0 LINE",
"1026 150 LINE",
"869 150 LINE SMOOTH",
"759 150 OFFCURVE",
"673 239 OFFCURVE",
"673 347 CURVE SMOOTH",
"673 456 OFFCURVE",
"760 544 OFFCURVE",
"869 544 CURVE SMOOTH",
"1026 544 LINE",
"1026 694 LINE",
"869 694 LINE SMOOTH",
"759 694 OFFCURVE",
"654 641 OFFCURVE",
"591 553 CURVE",
"560 604 OFFCURVE",
"510 647 OFFCURVE",
"456 670 CURVE SMOOTH",
"405 692 OFFCURVE",
"372 693 OFFCURVE",
"312 693 CURVE SMOOTH",
"153 693 OFFCURVE",
"19 565 OFFCURVE",
"19 401 CURVE SMOOTH",
"19 292 LINE SMOOTH",
"19 173 OFFCURVE",
"89 70 OFFCURVE",
"199 23 CURVE SMOOTH",
"250 1 OFFCURVE",
"283 0 OFFCURVE",
"342 0 CURVE SMOOTH",
"454 0 OFFCURVE",
"542 61 OFFCURVE",
"591 139 CURVE",
"650 64 OFFCURVE",
"743 0 OFFCURVE",
"869 0 CURVE SMOOTH"
);
},
{
nodes = (
"312 150 LINE SMOOTH",
"231 150 OFFCURVE",
"170 215 OFFCURVE",
"170 292 CURVE SMOOTH",
"170 401 LINE SMOOTH",
"170 481 OFFCURVE",
"232 544 OFFCURVE",
"312 544 CURVE SMOOTH",
"342 544 LINE SMOOTH",
"422 544 OFFCURVE",
"484 480 OFFCURVE",
"484 401 CURVE SMOOTH",
"484 292 LINE SMOOTH",
"484 211 OFFCURVE",
"419 150 OFFCURVE",
"342 150 CURVE SMOOTH"
);
},
{
nodes = (
"1026 272 LINE",
"1026 422 LINE",
"720 422 LINE",
"709 391 OFFCURVE",
"704 369 OFFCURVE",
"704 347 CURVE SMOOTH",
"704 328 OFFCURVE",
"709 304 OFFCURVE",
"722 272 CURVE"
);
}
);
width = 1057;
}
);
unicode = 0152;
},
{
glyphname = cent;
layers = (
{
layerId = "9F8883BC-B634-401D-A38E-6E78924B331A";
paths = (
{
nodes = (
"502 0 LINE",
"502 150 LINE",
"350 150 LINE SMOOTH",
"241 150 OFFCURVE",
"153 237 OFFCURVE",
"153 346 CURVE SMOOTH",
"153 455 OFFCURVE",
"240 543 OFFCURVE",
"350 543 CURVE SMOOTH",
"502 543 LINE",
"502 693 LINE",
"350 693 LINE SMOOTH",
"158 693 OFFCURVE",
"3 539 OFFCURVE",
"3 346 CURVE SMOOTH",
"3 161 OFFCURVE",
"150 0 OFFCURVE",
"350 0 CURVE SMOOTH"
);
},
{
nodes = (
"335 -87 LINE",
"335 772 LINE",
"218 772 LINE",
"218 -87 LINE"
);
}
);
width = 554;
}
);
unicode = 00A2;
},
{
glyphname = exclamdown;
layers = (
{
layerId = "9F8883BC-B634-401D-A38E-6E78924B331A";
paths = (
{
nodes = (
"169 543 OFFCURVE",
"203 575 OFFCURVE",
"203 619 CURVE SMOOTH",
"203 662 OFFCURVE",
"169 693 OFFCURVE",
"128 693 CURVE SMOOTH",
"87 693 OFFCURVE",
"53 662 OFFCURVE",
"53 619 CURVE SMOOTH",
"53 575 OFFCURVE",
"87 543 OFFCURVE",
"128 543 CURVE SMOOTH"
);
},
{
nodes = (
"203 0 LINE",
"203 422 LINE",
"53 422 LINE",
"53 0 LINE"
);
}
);
width = 273;
}
);
unicode = 00A1;
},
{
glyphname = yen;
layers = (
{
layerId = "9F8883BC-B634-401D-A38E-6E78924B331A";
paths = (
{
nodes = (
"373 415 LINE",
"570 693 LINE",
"390 693 LINE",
"283 550 LINE"
);
},
{
nodes = (
"356 0 LINE",
"356 385 LINE",
"150 693 LINE",
"-29 693 LINE",
"207 340 LINE",
"207 0 LINE"
);
},
{
nodes = (
"492 76 LINE",
"492 180 LINE",
"56 180 LINE",
"56 76 LINE"
);
},
{
nodes = (
"492 227 LINE",
"492 330 LINE",
"56 330 LINE",
"56 227 LINE"
);
}
);
width = 548;
}
);
unicode = 00A5;
},
{
glyphname = Idieresis;
layers = (
{
layerId = "9F8883BC-B634-401D-A38E-6E78924B331A";
paths = (
{
nodes = (
"207 0 LINE",
"207 693 LINE",
"57 693 LINE",
"57 0 LINE"
);
},
{
nodes = (
"58 729 OFFCURVE",
"93 761 OFFCURVE",
"93 804 CURVE SMOOTH",
"93 848 OFFCURVE",
"59 879 OFFCURVE",
"18 879 CURVE SMOOTH",
"-23 879 OFFCURVE",
"-57 848 OFFCURVE",
"-57 804 CURVE SMOOTH",
"-57 761 OFFCURVE",
"-22 729 OFFCURVE",
"18 729 CURVE SMOOTH"
);
},
{
nodes = (
"283 729 OFFCURVE",
"318 761 OFFCURVE",
"318 804 CURVE SMOOTH",
"318 848 OFFCURVE",
"284 879 OFFCURVE",
"243 879 CURVE SMOOTH",
"202 879 OFFCURVE",
"168 848 OFFCURVE",
"168 804 CURVE SMOOTH",
"168 761 OFFCURVE",
"203 729 OFFCURVE",
"243 729 CURVE SMOOTH"
);
}
);
width = 260;
}
);
unicode = 00CF;
},
{
glyphname = questiondown;
layers = (
{
layerId = "9F8883BC-B634-401D-A38E-6E78924B331A";
paths = (
{
nodes = (
"496 0 LINE",
"496 149 LINE",
"258 149 LINE SMOOTH",
"208 149 OFFCURVE",
"170 189 OFFCURVE",
"170 238 CURVE SMOOTH",
"170 421 LINE",
"19 421 LINE",
"19 238 LINE SMOOTH",
"19 108 OFFCURVE",
"125 0 OFFCURVE",
"258 0 CURVE SMOOTH"
);
},
{
nodes = (
"298 543 OFFCURVE",
"332 574 OFFCURVE",
"332 618 CURVE SMOOTH",
"332 659 OFFCURVE",
"301 693 OFFCURVE",
"258 693 CURVE SMOOTH",
"218 693 OFFCURVE",
"183 661 OFFCURVE",
"183 618 CURVE SMOOTH",
"183 574 OFFCURVE",
"217 543 OFFCURVE",
"258 543 CURVE SMOOTH"
);
}
);
width = 548;
}
);
unicode = 00BF;
},
{
glyphname = Thorn;
layers = (
{
layerId = "9F8883BC-B634-401D-A38E-6E78924B331A";
paths = (
{
nodes = (
"158 -87 LINE",
"158 79 LINE",
"183 70 OFFCURVE",
"210 66 OFFCURVE",
"238 66 CURVE SMOOTH",
"263 66 LINE SMOOTH",
"398 66 OFFCURVE",
"502 175 OFFCURVE",
"502 305 CURVE SMOOTH",
"502 394 LINE SMOOTH",
"502 462 OFFCURVE",
"474 521 OFFCURVE",
"432 564 CURVE SMOOTH",
"377 618 OFFCURVE",
"326 634 OFFCURVE",
"238 634 CURVE SMOOTH",
"210 634 OFFCURVE",
"183 629 OFFCURVE",
"158 620 CURVE",
"158 772 LINE",
"41 772 LINE",
"41 -87 LINE"
);
},
{
nodes = (
"238 189 LINE SMOOTH",
"207 189 OFFCURVE",
"180 200 OFFCURVE",
"158 220 CURVE",
"158 480 LINE",
"178 500 OFFCURVE",
"205 512 OFFCURVE",
"238 512 CURVE SMOOTH",
"263 512 LINE SMOOTH",
"327 512 OFFCURVE",
"379 462 OFFCURVE",
"379 394 CURVE SMOOTH",
"379 305 LINE SMOOTH",
"379 237 OFFCURVE",
"324 189 OFFCURVE",
"263 189 CURVE SMOOTH"
);
}
);
width = 535;
}
);
unicode = 00DE;
},
{
glyphname = thorn;
layers = (
{
layerId = "9F8883BC-B634-401D-A38E-6E78924B331A";
paths = (
{
nodes = (
"158 -87 LINE",
"158 79 LINE",
"183 70 OFFCURVE",
"210 66 OFFCURVE",
"238 66 CURVE SMOOTH",
"263 66 LINE SMOOTH",
"398 66 OFFCURVE",
"502 175 OFFCURVE",
"502 305 CURVE SMOOTH",
"502 394 LINE SMOOTH",
"502 462 OFFCURVE",
"474 521 OFFCURVE",
"432 564 CURVE SMOOTH",
"377 618 OFFCURVE",
"326 634 OFFCURVE",
"238 634 CURVE SMOOTH",
"210 634 OFFCURVE",
"183 629 OFFCURVE",
"158 620 CURVE",
"158 772 LINE",
"41 772 LINE",
"41 -87 LINE"
);
},
{
nodes = (
"238 189 LINE SMOOTH",
"207 189 OFFCURVE",
"180 200 OFFCURVE",
"158 220 CURVE",
"158 480 LINE",
"178 500 OFFCURVE",
"205 512 OFFCURVE",
"238 512 CURVE SMOOTH",
"263 512 LINE SMOOTH",
"327 512 OFFCURVE",
"379 462 OFFCURVE",
"379 394 CURVE SMOOTH",
"379 305 LINE SMOOTH",
"379 237 OFFCURVE",
"324 189 OFFCURVE",
"263 189 CURVE SMOOTH"
);
}
);
width = 535;
}
);
unicode = 00FE;
},
{
glyphname = onesuperior;
layers = (
{
layerId = "9F8883BC-B634-401D-A38E-6E78924B331A";
paths = (
{
nodes = (
"216 387 OFFCURVE",
"266 441 OFFCURVE",
"266 504 CURVE SMOOTH",
"266 548 LINE SMOOTH",
"266 621 OFFCURVE",
"210 664 OFFCURVE",
"137 664 CURVE SMOOTH",
"74 664 OFFCURVE",
"20 612 OFFCURVE",
"20 548 CURVE SMOOTH",
"20 504 LINE SMOOTH",
"20 433 OFFCURVE",
"76 387 OFFCURVE",
"149 387 CURVE SMOOTH"
);
},
{
nodes = (
"110 447 OFFCURVE",
"81 462 OFFCURVE",
"81 504 CURVE SMOOTH",
"81 548 LINE SMOOTH",
"81 580 OFFCURVE",
"105 605 OFFCURVE",
"137 605 CURVE SMOOTH",
"149 605 LINE SMOOTH",
"181 605 OFFCURVE",
"206 579 OFFCURVE",
"206 548 CURVE SMOOTH",
"206 504 LINE SMOOTH",
"206 473 OFFCURVE",
"181 447 OFFCURVE",
"149 447 CURVE SMOOTH"
);
}
);
width = 290;
}
);
unicode = 00B9;
},
{
glyphname = ordmasculine;
layers = (
{
layerId = "9F8883BC-B634-401D-A38E-6E78924B331A";
paths = (
{
nodes = (
"122 386 LINE",
"122 664 LINE",
"26 664 LINE",
"26 604 LINE",
"62 604 LINE",
"62 386 LINE"
);
}
);
width = 162;
}
);
unicode = 00BA;
},
{
glyphname = ordfeminine;
layers = (
{
layerId = "9F8883BC-B634-401D-A38E-6E78924B331A";
paths = (
{
nodes = (
"247 389 LINE",
"247 445 LINE",
"131 445 LINE SMOOTH",
"110 445 OFFCURVE",
"94 458 OFFCURVE",
"94 480 CURVE",
"95 499 OFFCURVE",
"111 511 OFFCURVE",
"131 511 CURVE SMOOTH",
"247 511 LINE",
"247 574 LINE SMOOTH",
"247 622 OFFCURVE",
"204 664 OFFCURVE",
"147 664 CURVE SMOOTH",
"31 664 LINE",
"31 608 LINE",
"147 608 LINE SMOOTH",
"172 608 OFFCURVE",
"184 590 OFFCURVE",
"184 568 CURVE",
"131 568 LINE SMOOTH",
"73 568 OFFCURVE",
"31 526 OFFCURVE",
"31 481 CURVE SMOOTH",
"31 424 OFFCURVE",
"77 389 OFFCURVE",
"131 389 CURVE SMOOTH"
);
}
);
width = 279;
}
);
unicode = 00AA;
},
{
glyphname = twosuperior;
layers = (
{
layerId = "9F8883BC-B634-401D-A38E-6E78924B331A";
paths = (
{
nodes = (
"225 387 LINE",
"225 447 LINE",
"94 447 LINE",
"94 534 LINE",
"34 534 LINE",
"34 387 LINE"
);
},
{
nodes = (
"225 517 LINE",
"225 569 LINE SMOOTH",
"225 623 OFFCURVE",
"183 664 OFFCURVE",
"130 664 CURVE SMOOTH",
"34 664 LINE",
"34 604 LINE",
"130 604 LINE SMOOTH",
"149 604 OFFCURVE",
"165 588 OFFCURVE",
"165 569 CURVE SMOOTH",
"165 517 LINE"
);
}
);
width = 268;
}
);
unicode = 00B2;
},
{
glyphname = threesuperior;
layers = (
{
layerId = "9F8883BC-B634-401D-A38E-6E78924B331A";
paths = (
{
nodes = (
"131 387 LINE SMOOTH",
"184 387 OFFCURVE",
"227 431 OFFCURVE",
"227 482 CURVE SMOOTH",
"227 569 LINE SMOOTH",
"227 624 OFFCURVE",
"182 664 OFFCURVE",
"131 664 CURVE SMOOTH",
"36 664 LINE",
"36 605 LINE",
"131 605 LINE SMOOTH",
"150 605 OFFCURVE",
"167 590 OFFCURVE",
"167 569 CURVE SMOOTH",
"167 482 LINE SMOOTH",
"167 463 OFFCURVE",
"150 447 OFFCURVE",
"131 447 CURVE SMOOTH",
"36 447 LINE",
"36 387 LINE"
);
},
{
nodes = (
"154 496 LINE",
"154 556 LINE",
"36 556 LINE",
"36 496 LINE"
);
}
);
width = 249;
}
);
unicode = 00B3;
},
{
glyphname = paragraph;
layers = (
{
layerId = "9F8883BC-B634-401D-A38E-6E78924B331A";
paths = (
{
nodes = (
"645 -74 LINE",
"645 634 LINE",
"759 634 LINE",
"759 728 LINE",
"282 727 LINE",
"212 726 OFFCURVE",
"150 697 OFFCURVE",
"106 657 CURVE SMOOTH",
"49 604 OFFCURVE",
"33 549 OFFCURVE",
"33 469 CURVE SMOOTH",
"33 328 OFFCURVE",
"150 233 OFFCURVE",
"294 233 CURVE",
"294 -74 LINE",
"393 -74 LINE",
"393 634 LINE",
"546 634 LINE",
"546 -74 LINE"
);
}
);
width = 789;
}
);
unicode = 00B6;
},
{
glyphname = softhyphen;
layers = (
{
layerId = "9F8883BC-B634-401D-A38E-6E78924B331A";
paths = (
{
nodes = (
"362 282 LINE",
"362 430 LINE",
"27 430 LINE",
"27 282 LINE"
);
}
);
width = 399;
}
);
unicode = 00AD;
},
{
glyphname = sterling;
layers = (
{
layerId = "9F8883BC-B634-401D-A38E-6E78924B331A";
paths = (
{
nodes = (
"552 0 LINE",
"552 150 LINE",
"226 150 LINE",
"226 367 LINE",
"76 367 LINE",
"76 0 LINE"
);
},
{
nodes = (
"226 325 LINE",
"226 455 LINE SMOOTH",
"226 504 OFFCURVE",
"264 543 OFFCURVE",
"314 543 CURVE SMOOTH",
"552 543 LINE",
"552 693 LINE",
"314 693 LINE SMOOTH",
"184 693 OFFCURVE",
"76 590 OFFCURVE",
"76 455 CURVE SMOOTH",
"76 325 LINE"
);
},
{
nodes = (
"356 282 LINE",
"356 430 LINE",
"21 430 LINE",
"21 282 LINE"
);
}
);
width = 585;
}
);
unicode = 00A3;
},
{
glyphname = at;
layers = (
{
layerId = "9F8883BC-B634-401D-A38E-6E78924B331A";
paths = (
{
nodes = (
"794 -110 LINE",
"794 10 LINE",
"269 10 LINE SMOOTH",
"203 10 OFFCURVE",
"150 58 OFFCURVE",
"150 123 CURVE SMOOTH",
"150 535 LINE SMOOTH",
"150 601 OFFCURVE",
"203 649 OFFCURVE",
"269 649 CURVE SMOOTH",
"618 649 LINE SMOOTH",
"685 649 OFFCURVE",
"738 599 OFFCURVE",
"738 535 CURVE SMOOTH",
"738 171 LINE",
"696 173 LINE",
"696 419 LINE SMOOTH",
"696 523 OFFCURVE",
"607 608 OFFCURVE",
"496 608 CURVE SMOOTH",
"376 608 LINE SMOOTH",
"267 608 OFFCURVE",
"176 526 OFFCURVE",
"176 419 CURVE SMOOTH",
"176 246 LINE SMOOTH",
"176 142 OFFCURVE",
"265 57 OFFCURVE",
"376 57 CURVE SMOOTH",
"864 57 LINE",
"864 535 LINE SMOOTH",
"864 664 OFFCURVE",
"753 768 OFFCURVE",
"618 768 CURVE SMOOTH",
"269 768 LINE SMOOTH",
"133 768 OFFCURVE",
"23 664 OFFCURVE",
"23 535 CURVE SMOOTH",
"23 123 LINE SMOOTH",
"23 0 OFFCURVE",
"127 -110 OFFCURVE",
"269 -110 CURVE SMOOTH"
);
},
{
nodes = (
"570 176 LINE",
"376 176 LINE SMOOTH",
"332 176 OFFCURVE",
"302 208 OFFCURVE",
"302 246 CURVE SMOOTH",
"302 419 LINE SMOOTH",
"302 457 OFFCURVE",
"332 490 OFFCURVE",
"376 490 CURVE SMOOTH",
"496 490 LINE SMOOTH",
"540 490 OFFCURVE",
"570 457 OFFCURVE",
"570 419 CURVE SMOOTH"
);
}
);
width = 894;
}
);
unicode = 0040;
},
{
glyphname = guillemetright;
layers = (
{
layerId = "9F8883BC-B634-401D-A38E-6E78924B331A";
paths = (
{
nodes = (
"426 85 LINE",
"880 354 LINE",
"426 619 LINE",
"426 450 LINE",
"584 342 LINE",
"426 254 LINE"
);
},
{
nodes = (
"48 85 LINE",
"502 354 LINE",
"48 619 LINE",
"48 450 LINE",
"206 342 LINE",
"48 254 LINE"
);
}
);
width = 914;
}
);
unicode = 00BB;
},
{
glyphname = guillemetleft;
layers = (
{
layerId = "9F8883BC-B634-401D-A38E-6E78924B331A";
paths = (
{
nodes = (
"880 85 LINE",
"880 254 LINE",
"722 342 LINE",
"880 450 LINE",
"880 619 LINE",
"426 354 LINE"
);
},
{
nodes = (
"502 85 LINE",
"502 254 LINE",
"344 342 LINE",
"502 450 LINE",
"502 619 LINE",
"48 354 LINE"
);
}
);
width = 914;
}
);
unicode = 00AB;
},
{
glyphname = currency;
layers = (
{
layerId = "9F8883BC-B634-401D-A38E-6E78924B331A";
paths = (
{
nodes = (
"590 0 LINE",
"491 198 LINE",
"523 238 OFFCURVE",
"541 286 OFFCURVE",
"541 340 CURVE SMOOTH",
"541 356 LINE SMOOTH",
"541 408 OFFCURVE",
"523 457 OFFCURVE",
"492 497 CURVE",
"590 693 LINE",
"440 693 LINE",
"380 574 LINE",
"360 580 OFFCURVE",
"339 583 OFFCURVE",
"318 583 CURVE SMOOTH",
"282 583 OFFCURVE",
"262 582 OFFCURVE",
"232 571 CURVE",
"171 693 LINE",
"21 693 LINE",
"123 489 LINE",
"96 450 OFFCURVE",
"80 405 OFFCURVE",
"80 356 CURVE SMOOTH",
"80 294 OFFCURVE",
"89 254 OFFCURVE",
"123 207 CURVE",
"21 0 LINE",
"171 0 LINE",
"233 125 LINE",
"266 115 OFFCURVE",
"285 114 OFFCURVE",
"318 114 CURVE SMOOTH",
"337 114 OFFCURVE",
"358 117 OFFCURVE",
"379 122 CURVE",
"440 0 LINE"
);
},
{
nodes = (
"303 259 LINE SMOOTH",
"258 259 OFFCURVE",
"223 296 OFFCURVE",
"223 340 CURVE SMOOTH",
"223 373 OFFCURVE",
"224 392 OFFCURVE",
"247 415 CURVE SMOOTH",
"268 437 OFFCURVE",
"285 439 OFFCURVE",
"318 439 CURVE SMOOTH",
"365 439 OFFCURVE",
"398 402 OFFCURVE",
"398 356 CURVE SMOOTH",
"398 340 LINE SMOOTH",
"398 297 OFFCURVE",
"365 259 OFFCURVE",
"318 259 CURVE SMOOTH"
);
}
);
width = 625;
}
);
unicode = 00A4;
},
{
glyphname = quotedblbase;
layers = (
{
layerId = "9F8883BC-B634-401D-A38E-6E78924B331A";
paths = (
{
nodes = (
"57 -65 OFFCURVE",
"68 -59 OFFCURVE",
"80 -47 CURVE SMOOTH",
"155 31 LINE",
"155 34 LINE",
"158 37 OFFCURVE",
"160 42 OFFCURVE",
"161 47 CURVE",
"166 58 OFFCURVE",
"169 69 OFFCURVE",
"169 79 CURVE",
"168 89 LINE",
"165 102 OFFCURVE",
"160 113 OFFCURVE",
"153 122 CURVE SMOOTH",
"145 131 OFFCURVE",
"135 137 OFFCURVE",
"124 142 CURVE SMOOTH",
"113 147 OFFCURVE",
"101 149 OFFCURVE",
"89 149 CURVE SMOOTH",
"70 149 OFFCURVE",
"54 143 OFFCURVE",
"39 132 CURVE SMOOTH",
"24 120 OFFCURVE",
"17 100 OFFCURVE",
"17 73 CURVE SMOOTH",
"17 -21 LINE SMOOTH",
"17 -42 OFFCURVE",
"23 -56 OFFCURVE",
"36 -62 CURVE SMOOTH",
"40 -64 OFFCURVE",
"44 -65 OFFCURVE",
"48 -65 CURVE SMOOTH"
);
},
{
nodes = (
"235 -65 OFFCURVE",
"246 -59 OFFCURVE",
"258 -47 CURVE SMOOTH",
"333 31 LINE",
"333 34 LINE",
"336 37 OFFCURVE",
"338 42 OFFCURVE",
"339 47 CURVE",
"344 58 OFFCURVE",
"347 69 OFFCURVE",
"347 79 CURVE",
"346 89 LINE",
"343 102 OFFCURVE",
"338 113 OFFCURVE",
"331 122 CURVE SMOOTH",
"323 131 OFFCURVE",
"313 137 OFFCURVE",
"302 142 CURVE SMOOTH",
"291 147 OFFCURVE",
"279 149 OFFCURVE",
"267 149 CURVE SMOOTH",
"248 149 OFFCURVE",
"232 143 OFFCURVE",
"217 132 CURVE SMOOTH",
"202 120 OFFCURVE",
"195 100 OFFCURVE",
"195 73 CURVE SMOOTH",
"195 -21 LINE SMOOTH",
"195 -42 OFFCURVE",
"201 -56 OFFCURVE",
"214 -62 CURVE SMOOTH",
"218 -64 OFFCURVE",
"222 -65 OFFCURVE",
"226 -65 CURVE SMOOTH"
);
}
);
width = 376;
}
);
unicode = 201E;
},
{
glyphname = quotedblright;
layers = (
{
layerId = "9F8883BC-B634-401D-A38E-6E78924B331A";
paths = (
{
nodes = (
"64 462 OFFCURVE",
"75 468 OFFCURVE",
"87 480 CURVE SMOOTH",
"162 558 LINE",
"162 561 LINE",
"165 564 OFFCURVE",
"167 569 OFFCURVE",
"168 574 CURVE",
"173 585 OFFCURVE",
"176 596 OFFCURVE",
"176 606 CURVE",
"175 616 LINE",
"172 629 OFFCURVE",
"167 640 OFFCURVE",
"160 649 CURVE SMOOTH",
"152 658 OFFCURVE",
"142 664 OFFCURVE",
"131 669 CURVE SMOOTH",
"120 674 OFFCURVE",
"108 676 OFFCURVE",
"96 676 CURVE SMOOTH",
"77 676 OFFCURVE",
"61 670 OFFCURVE",
"46 659 CURVE SMOOTH",
"31 647 OFFCURVE",
"24 627 OFFCURVE",
"24 600 CURVE SMOOTH",
"24 506 LINE SMOOTH",
"24 485 OFFCURVE",
"30 471 OFFCURVE",
"43 465 CURVE SMOOTH",
"47 463 OFFCURVE",
"51 462 OFFCURVE",
"55 462 CURVE SMOOTH"
);
},
{
nodes = (
"248 462 OFFCURVE",
"259 468 OFFCURVE",
"271 480 CURVE SMOOTH",
"346 558 LINE",
"346 561 LINE",
"349 564 OFFCURVE",
"351 569 OFFCURVE",
"352 574 CURVE",
"357 585 OFFCURVE",
"360 596 OFFCURVE",
"360 606 CURVE",
"359 616 LINE",
"356 629 OFFCURVE",
"351 640 OFFCURVE",
"344 649 CURVE SMOOTH",
"336 658 OFFCURVE",
"326 664 OFFCURVE",
"315 669 CURVE SMOOTH",
"304 674 OFFCURVE",
"292 676 OFFCURVE",
"280 676 CURVE SMOOTH",
"261 676 OFFCURVE",
"245 670 OFFCURVE",
"230 659 CURVE SMOOTH",
"215 647 OFFCURVE",
"208 627 OFFCURVE",
"208 600 CURVE SMOOTH",
"208 506 LINE SMOOTH",
"208 485 OFFCURVE",
"214 471 OFFCURVE",
"227 465 CURVE SMOOTH",
"231 463 OFFCURVE",
"235 462 OFFCURVE",
"239 462 CURVE SMOOTH"
);
}
);
width = 390;
}
);
unicode = 201D;
},
{
glyphname = quotedblleft;
layers = (
{
layerId = "9F8883BC-B634-401D-A38E-6E78924B331A";
paths = (
{
nodes = (
"309 455 OFFCURVE",
"325 461 OFFCURVE",
"340 473 CURVE SMOOTH",
"355 484 OFFCURVE",
"362 504 OFFCURVE",
"362 531 CURVE SMOOTH",
"362 625 LINE SMOOTH",
"362 646 OFFCURVE",
"356 660 OFFCURVE",
"343 667 CURVE SMOOTH",
"339 669 OFFCURVE",
"336 669 OFFCURVE",
"332 669 CURVE SMOOTH",
"322 669 OFFCURVE",
"311 663 OFFCURVE",
"299 651 CURVE SMOOTH",
"224 573 LINE",
"224 570 LINE",
"221 567 OFFCURVE",
"219 562 OFFCURVE",
"218 557 CURVE",
"213 547 OFFCURVE",
"211 536 OFFCURVE",
"211 527 CURVE SMOOTH",
"211 523 OFFCURVE",
"211 519 OFFCURVE",
"212 515 CURVE SMOOTH",
"214 502 OFFCURVE",
"219 492 OFFCURVE",
"227 483 CURVE SMOOTH",
"234 474 OFFCURVE",
"244 467 OFFCURVE",
"255 462 CURVE SMOOTH",
"266 457 OFFCURVE",
"278 455 OFFCURVE",
"290 455 CURVE SMOOTH"
);
},
{
nodes = (
"125 455 OFFCURVE",
"141 461 OFFCURVE",
"156 473 CURVE SMOOTH",
"171 484 OFFCURVE",
"178 504 OFFCURVE",
"178 531 CURVE SMOOTH",
"178 625 LINE SMOOTH",
"178 646 OFFCURVE",
"172 660 OFFCURVE",
"159 667 CURVE SMOOTH",
"155 669 OFFCURVE",
"152 669 OFFCURVE",
"148 669 CURVE SMOOTH",
"138 669 OFFCURVE",
"127 663 OFFCURVE",
"115 651 CURVE SMOOTH",
"40 573 LINE",
"40 570 LINE",
"37 567 OFFCURVE",
"35 562 OFFCURVE",
"34 557 CURVE",
"29 547 OFFCURVE",
"27 536 OFFCURVE",
"27 527 CURVE SMOOTH",
"27 523 OFFCURVE",
"27 519 OFFCURVE",
"28 515 CURVE SMOOTH",
"30 502 OFFCURVE",
"35 492 OFFCURVE",
"43 483 CURVE SMOOTH",
"50 474 OFFCURVE",
"60 467 OFFCURVE",
"71 462 CURVE SMOOTH",
"82 457 OFFCURVE",
"94 455 OFFCURVE",
"106 455 CURVE SMOOTH"
);
}
);
width = 390;
}
);
unicode = 201C;
},
{
glyphname = quoteleft;
layers = (
{
layerId = "9F8883BC-B634-401D-A38E-6E78924B331A";
paths = (
{
nodes = (
"125 455 OFFCURVE",
"141 461 OFFCURVE",
"156 473 CURVE SMOOTH",
"171 484 OFFCURVE",
"178 504 OFFCURVE",
"178 531 CURVE SMOOTH",
"178 625 LINE SMOOTH",
"178 646 OFFCURVE",
"172 660 OFFCURVE",
"159 667 CURVE SMOOTH",
"155 669 OFFCURVE",
"152 669 OFFCURVE",
"148 669 CURVE SMOOTH",
"138 669 OFFCURVE",
"127 663 OFFCURVE",
"115 651 CURVE SMOOTH",
"40 573 LINE",
"40 570 LINE",
"37 567 OFFCURVE",
"35 562 OFFCURVE",
"34 557 CURVE",
"29 547 OFFCURVE",
"27 536 OFFCURVE",
"27 527 CURVE SMOOTH",
"27 523 OFFCURVE",
"27 519 OFFCURVE",
"28 515 CURVE SMOOTH",
"30 502 OFFCURVE",
"35 492 OFFCURVE",
"43 483 CURVE SMOOTH",
"50 474 OFFCURVE",
"60 467 OFFCURVE",
"71 462 CURVE SMOOTH",
"82 457 OFFCURVE",
"94 455 OFFCURVE",
"106 455 CURVE SMOOTH"
);
}
);
width = 203;
}
);
unicode = 2018;
},
{
glyphname = quoteright;
layers = (
{
layerId = "9F8883BC-B634-401D-A38E-6E78924B331A";
paths = (
{
nodes = (
"64 462 OFFCURVE",
"75 468 OFFCURVE",
"87 480 CURVE SMOOTH",
"162 558 LINE",
"162 561 LINE",
"165 564 OFFCURVE",
"167 569 OFFCURVE",
"168 574 CURVE",
"173 585 OFFCURVE",
"176 596 OFFCURVE",
"176 606 CURVE",
"175 616 LINE",
"172 629 OFFCURVE",
"167 640 OFFCURVE",
"160 649 CURVE SMOOTH",
"152 658 OFFCURVE",
"142 664 OFFCURVE",
"131 669 CURVE SMOOTH",
"120 674 OFFCURVE",
"108 676 OFFCURVE",
"96 676 CURVE SMOOTH",
"77 676 OFFCURVE",
"61 670 OFFCURVE",
"46 659 CURVE SMOOTH",
"31 647 OFFCURVE",
"24 627 OFFCURVE",
"24 600 CURVE SMOOTH",
"24 506 LINE SMOOTH",
"24 485 OFFCURVE",
"30 471 OFFCURVE",
"43 465 CURVE SMOOTH",
"47 463 OFFCURVE",
"51 462 OFFCURVE",
"55 462 CURVE SMOOTH"
);
}
);
width = 203;
}
);
unicode = 2019;
},
{
glyphname = circumflexmod;
layers = (
{
layerId = "9F8883BC-B634-401D-A38E-6E78924B331A";
paths = (
{
nodes = (
"464 730 LINE",
"362 867 LINE",
"182 867 LINE",
"80 730 LINE",
"230 730 LINE",
"272 787 LINE",
"314 730 LINE"
);
}
);
width = 527;
}
);
unicode = 02C6;
},
{
glyphname = eth;
layers = (
{
layerId = "9F8883BC-B634-401D-A38E-6E78924B331A";
paths = (
{
nodes = (
"312 0 LINE SMOOTH",
"498 0 OFFCURVE",
"659 150 OFFCURVE",
"659 347 CURVE SMOOTH",
"659 539 OFFCURVE",
"504 694 OFFCURVE",
"312 694 CURVE SMOOTH",
"101 694 LINE",
"101 544 LINE",
"312 544 LINE SMOOTH",
"421 544 OFFCURVE",
"509 457 OFFCURVE",
"509 347 CURVE SMOOTH",
"509 238 OFFCURVE",
"422 150 OFFCURVE",
"312 150 CURVE SMOOTH",
"250 150 LINE",
"250 512 LINE",
"101 512 LINE",
"101 0 LINE"
);
},
{
nodes = (
"364 287 LINE",
"364 407 LINE",
"29 407 LINE",
"29 287 LINE"
);
}
);
width = 700;
}
);
unicode = 00F0;
},
{
glyphname = ccedilla;
layers = (
{
layerId = "9F8883BC-B634-401D-A38E-6E78924B331A";
paths = (
{
nodes = (
"502 0 LINE",
"502 150 LINE",
"350 150 LINE SMOOTH",
"241 150 OFFCURVE",
"153 237 OFFCURVE",
"153 346 CURVE SMOOTH",
"153 455 OFFCURVE",
"240 543 OFFCURVE",
"350 543 CURVE SMOOTH",
"502 543 LINE",
"502 693 LINE",
"350 693 LINE SMOOTH",
"158 693 OFFCURVE",
"3 539 OFFCURVE",
"3 346 CURVE SMOOTH",
"3 161 OFFCURVE",
"150 0 OFFCURVE",
"350 0 CURVE SMOOTH"
);
},
{
nodes = (
"277 -280 LINE SMOOTH",
"333 -280 OFFCURVE",
"380 -235 OFFCURVE",
"380 -178 CURVE SMOOTH",
"380 -84 LINE",
"255 -84 LINE",
"255 76 LINE",
"173 76 LINE",
"173 -157 LINE",
"298 -157 LINE",
"298 -178 LINE SMOOTH",
"298 -190 OFFCURVE",
"289 -199 OFFCURVE",
"277 -199 CURVE SMOOTH",
"173 -199 LINE",
"173 -280 LINE"
);
}
);
width = 554;
}
);
unicode = 00E7;
},
{
glyphname = mu;
layers = (
{
layerId = "9F8883BC-B634-401D-A38E-6E78924B331A";
paths = (
{
nodes = (
"173 -129 LINE",
"173 123 LINE",
"209 102 OFFCURVE",
"255 91 OFFCURVE",
"295 91 CURVE SMOOTH",
"338 91 OFFCURVE",
"381 100 OFFCURVE",
"420 123 CURVE",
"420 91 LINE",
"547 91 LINE",
"547 693 LINE",
"420 693 LINE",
"420 338 LINE",
"419 323 OFFCURVE",
"416 309 OFFCURVE",
"411 296 CURVE",
"391 252 OFFCURVE",
"347 221 OFFCURVE",
"300 221 CURVE SMOOTH",
"232 221 OFFCURVE",
"175 272 OFFCURVE",
"175 345 CURVE SMOOTH",
"175 693 LINE",
"46 693 LINE",
"46 -129 LINE"
);
}
);
width = 603;
}
);
unicode = 00B5;
},
{
glyphname = guilsinglright;
layers = (
{
layerId = "9F8883BC-B634-401D-A38E-6E78924B331A";
paths = (
{
nodes = (
"209 77 LINE",
"386 308 LINE",
"386 380 LINE",
"209 609 LINE",
"29 609 LINE",
"228 342 LINE",
"29 77 LINE"
);
}
);
width = 430;
}
);
unicode = 203A;
},
{
glyphname = guilsinglleft;
layers = (
{
layerId = "9F8883BC-B634-401D-A38E-6E78924B331A";
paths = (
{
nodes = (
"386 77 LINE",
"187 342 LINE",
"386 609 LINE",
"206 609 LINE",
"29 380 LINE",
"29 308 LINE",
"206 77 LINE"
);
}
);
width = 430;
}
);
unicode = 2039;
},
{
glyphname = asciitilde;
layers = (
{
layerId = "9F8883BC-B634-401D-A38E-6E78924B331A";
paths = (
{
nodes = (
"107 250 LINE",
"163 322 OFFCURVE",
"206 362 OFFCURVE",
"233 370 CURVE",
"230 369 LINE",
"237 369 OFFCURVE",
"242 369 OFFCURVE",
"245 371 CURVE",
"268 371 OFFCURVE",
"299 354 OFFCURVE",
"336 326 CURVE SMOOTH",
"402 276 OFFCURVE",
"452 256 OFFCURVE",
"500 256 CURVE SMOOTH",
"514 256 OFFCURVE",
"526 257 OFFCURVE",
"535 259 CURVE SMOOTH",
"592 273 OFFCURVE",
"638 299 OFFCURVE",
"727 416 CURVE",
"637 512 LINE",
"582 441 OFFCURVE",
"538 401 OFFCURVE",
"506 393 CURVE",
"480 393 OFFCURVE",
"457 400 OFFCURVE",
"408 438 CURVE SMOOTH",
"373 465 OFFCURVE",
"342 483 OFFCURVE",
"311 494 CURVE",
"312 494 LINE",
"290 503 OFFCURVE",
"268 507 OFFCURVE",
"245 507 CURVE SMOOTH",
"189 507 OFFCURVE",
"155 487 OFFCURVE",
"115 455 CURVE",
"115 456 LINE",
"90 435 OFFCURVE",
"59 402 OFFCURVE",
"17 347 CURVE"
);
}
);
width = 758;
}
);
unicode = 007E;
},
{
glyphname = atilde;
layers = (
{
layerId = "9F8883BC-B634-401D-A38E-6E78924B331A";
paths = (
{
nodes = (
"576 0 LINE",
"275 725 LINE",
"-28 0 LINE",
"134 0 LINE",
"275 337 LINE",
"306 262 OFFCURVE",
"325 217 OFFCURVE",
"354 150 CURVE",
"237 150 LINE",
"175 0 LINE"
);
},
{
nodes = (
"146 714 LINE",
"163 737 OFFCURVE",
"177 755 OFFCURVE",
"188 768 CURVE SMOOTH",
"205 789 OFFCURVE",
"207 792 OFFCURVE",
"217 792 CURVE",
"220 793 LINE",
"232 793 OFFCURVE",
"292 728 OFFCURVE",
"354 728 CURVE SMOOTH",
"365 728 OFFCURVE",
"371 729 OFFCURVE",
"376 730 CURVE SMOOTH",
"413 740 OFFCURVE",
"435 753 OFFCURVE",
"500 838 CURVE",
"425 921 LINE",
"392 874 OFFCURVE",
"368 850 OFFCURVE",
"355 843 CURVE",
"347 843 OFFCURVE",
"339 846 OFFCURVE",
"316 864 CURVE SMOOTH",
"275 896 OFFCURVE",
"249 907 OFFCURVE",
"218 907 CURVE SMOOTH",
"185 907 OFFCURVE",
"178 902 OFFCURVE",
"166 895 CURVE SMOOTH",
"144 882 OFFCURVE",
"124 866 OFFCURVE",
"72 798 CURVE"
);
}
);
width = 573;
}
);
unicode = 00E3;
},
{
glyphname = Atilde;
layers = (
{
layerId = "9F8883BC-B634-401D-A38E-6E78924B331A";
paths = (
{
nodes = (
"576 0 LINE",
"275 725 LINE",
"-28 0 LINE",
"134 0 LINE",
"275 337 LINE",
"306 262 OFFCURVE",
"325 217 OFFCURVE",
"354 150 CURVE",
"237 150 LINE",
"175 0 LINE"
);
},
{
nodes = (
"146 715 LINE",
"163 738 OFFCURVE",
"177 756 OFFCURVE",
"188 769 CURVE SMOOTH",
"205 790 OFFCURVE",
"207 793 OFFCURVE",
"217 793 CURVE",
"220 794 LINE",
"232 794 OFFCURVE",
"292 729 OFFCURVE",
"354 729 CURVE SMOOTH",
"365 729 OFFCURVE",
"371 730 OFFCURVE",
"376 731 CURVE SMOOTH",
"413 741 OFFCURVE",
"435 754 OFFCURVE",
"500 839 CURVE",
"425 922 LINE",
"392 875 OFFCURVE",
"368 851 OFFCURVE",
"355 844 CURVE",
"347 844 OFFCURVE",
"339 847 OFFCURVE",
"316 865 CURVE SMOOTH",
"275 897 OFFCURVE",
"249 908 OFFCURVE",
"218 908 CURVE SMOOTH",
"185 908 OFFCURVE",
"178 903 OFFCURVE",
"166 896 CURVE SMOOTH",
"144 883 OFFCURVE",
"124 867 OFFCURVE",
"72 799 CURVE"
);
}
);
width = 573;
}
);
unicode = 00C3;
},
{
glyphname = ntilde;
layers = (
{
layerId = "9F8883BC-B634-401D-A38E-6E78924B331A";
paths = (
{
nodes = (
"632 81 LINE",
"632 693 LINE",
"482 693 LINE",
"482 306 LINE"
);
},
{
nodes = (
"650 0 LINE",
"187 693 LINE",
"47 693 LINE",
"47 0 LINE",
"197 0 LINE",
"197 410 LINE",
"471 0 LINE"
);
},
{
nodes = (
"208 714 LINE",
"225 737 OFFCURVE",
"239 755 OFFCURVE",
"250 768 CURVE SMOOTH",
"267 789 OFFCURVE",
"269 792 OFFCURVE",
"279 792 CURVE",
"282 793 LINE",
"294 793 OFFCURVE",
"354 728 OFFCURVE",
"416 728 CURVE SMOOTH",
"427 728 OFFCURVE",
"433 729 OFFCURVE",
"438 730 CURVE SMOOTH",
"475 740 OFFCURVE",
"497 753 OFFCURVE",
"562 838 CURVE",
"487 921 LINE",
"454 874 OFFCURVE",
"430 850 OFFCURVE",
"417 843 CURVE",
"409 843 OFFCURVE",
"401 846 OFFCURVE",
"378 864 CURVE SMOOTH",
"337 896 OFFCURVE",
"311 907 OFFCURVE",
"280 907 CURVE SMOOTH",
"247 907 OFFCURVE",
"240 902 OFFCURVE",
"228 895 CURVE SMOOTH",
"206 882 OFFCURVE",
"186 866 OFFCURVE",
"134 798 CURVE"
);
}
);
width = 696;
}
);
unicode = 00F1;
},
{
glyphname = Ntilde;
layers = (
{
layerId = "9F8883BC-B634-401D-A38E-6E78924B331A";
paths = (
{
nodes = (
"632 81 LINE",
"632 693 LINE",
"482 693 LINE",
"482 306 LINE"
);
},
{
nodes = (
"650 0 LINE",
"187 693 LINE",
"47 693 LINE",
"47 0 LINE",
"197 0 LINE",
"197 410 LINE",
"471 0 LINE"
);
},
{
nodes = (
"208 715 LINE",
"225 738 OFFCURVE",
"239 756 OFFCURVE",
"250 769 CURVE SMOOTH",
"267 790 OFFCURVE",
"269 793 OFFCURVE",
"279 793 CURVE",
"282 794 LINE",
"294 794 OFFCURVE",
"354 729 OFFCURVE",
"416 729 CURVE SMOOTH",
"427 729 OFFCURVE",
"433 730 OFFCURVE",
"438 731 CURVE SMOOTH",
"475 741 OFFCURVE",
"497 754 OFFCURVE",
"562 839 CURVE",
"487 922 LINE",
"454 875 OFFCURVE",
"430 851 OFFCURVE",
"417 844 CURVE",
"409 844 OFFCURVE",
"401 847 OFFCURVE",
"378 865 CURVE SMOOTH",
"337 897 OFFCURVE",
"311 908 OFFCURVE",
"280 908 CURVE SMOOTH",
"247 908 OFFCURVE",
"240 903 OFFCURVE",
"228 896 CURVE SMOOTH",
"206 883 OFFCURVE",
"186 867 OFFCURVE",
"134 799 CURVE"
);
}
);
width = 696;
}
);
unicode = 00D1;
},
{
glyphname = otilde;
layers = (
{
layerId = "9F8883BC-B634-401D-A38E-6E78924B331A";
paths = (
{
nodes = (
"504 0 OFFCURVE",
"633 132 OFFCURVE",
"633 292 CURVE SMOOTH",
"633 401 LINE SMOOTH",
"633 520 OFFCURVE",
"562 624 OFFCURVE",
"455 670 CURVE SMOOTH",
"404 692 OFFCURVE",
"371 693 OFFCURVE",
"311 693 CURVE SMOOTH",
"152 693 OFFCURVE",
"18 565 OFFCURVE",
"18 401 CURVE SMOOTH",
"18 292 LINE SMOOTH",
"18 173 OFFCURVE",
"88 70 OFFCURVE",
"198 23 CURVE SMOOTH",
"249 1 OFFCURVE",
"282 0 OFFCURVE",
"341 0 CURVE SMOOTH"
);
},
{
nodes = (
"311 150 LINE SMOOTH",
"230 150 OFFCURVE",
"169 215 OFFCURVE",
"169 292 CURVE SMOOTH",
"169 401 LINE SMOOTH",
"169 481 OFFCURVE",
"231 544 OFFCURVE",
"311 544 CURVE SMOOTH",
"341 544 LINE SMOOTH",
"421 544 OFFCURVE",
"483 480 OFFCURVE",
"483 401 CURVE SMOOTH",
"483 292 LINE SMOOTH",
"483 211 OFFCURVE",
"418 150 OFFCURVE",
"341 150 CURVE SMOOTH"
);
},
{
nodes = (
"195 714 LINE",
"212 737 OFFCURVE",
"226 755 OFFCURVE",
"237 768 CURVE SMOOTH",
"254 789 OFFCURVE",
"256 792 OFFCURVE",
"266 792 CURVE",
"269 793 LINE",
"281 793 OFFCURVE",
"341 728 OFFCURVE",
"403 728 CURVE SMOOTH",
"414 728 OFFCURVE",
"420 729 OFFCURVE",
"425 730 CURVE SMOOTH",
"462 740 OFFCURVE",
"484 753 OFFCURVE",
"549 838 CURVE",
"474 921 LINE",
"441 874 OFFCURVE",
"417 850 OFFCURVE",
"404 843 CURVE",
"396 843 OFFCURVE",
"388 846 OFFCURVE",
"365 864 CURVE SMOOTH",
"324 896 OFFCURVE",
"298 907 OFFCURVE",
"267 907 CURVE SMOOTH",
"234 907 OFFCURVE",
"227 902 OFFCURVE",
"215 895 CURVE SMOOTH",
"193 882 OFFCURVE",
"173 866 OFFCURVE",
"121 798 CURVE"
);
}
);
width = 671;
}
);
unicode = 00F5;
},
{
glyphname = Otilde;
layers = (
{
layerId = "9F8883BC-B634-401D-A38E-6E78924B331A";
paths = (
{
nodes = (
"504 0 OFFCURVE",
"633 132 OFFCURVE",
"633 292 CURVE SMOOTH",
"633 401 LINE SMOOTH",
"633 520 OFFCURVE",
"562 624 OFFCURVE",
"455 670 CURVE SMOOTH",
"404 692 OFFCURVE",
"371 693 OFFCURVE",
"311 693 CURVE SMOOTH",
"152 693 OFFCURVE",
"18 565 OFFCURVE",
"18 401 CURVE SMOOTH",
"18 292 LINE SMOOTH",
"18 173 OFFCURVE",
"88 70 OFFCURVE",
"198 23 CURVE SMOOTH",
"249 1 OFFCURVE",
"282 0 OFFCURVE",
"341 0 CURVE SMOOTH"
);
},
{
nodes = (
"311 150 LINE SMOOTH",
"230 150 OFFCURVE",
"169 215 OFFCURVE",
"169 292 CURVE SMOOTH",
"169 401 LINE SMOOTH",
"169 481 OFFCURVE",
"231 544 OFFCURVE",
"311 544 CURVE SMOOTH",
"341 544 LINE SMOOTH",
"421 544 OFFCURVE",
"483 480 OFFCURVE",
"483 401 CURVE SMOOTH",
"483 292 LINE SMOOTH",
"483 211 OFFCURVE",
"418 150 OFFCURVE",
"341 150 CURVE SMOOTH"
);
},
{
nodes = (
"195 715 LINE",
"212 738 OFFCURVE",
"226 756 OFFCURVE",
"237 769 CURVE SMOOTH",
"254 790 OFFCURVE",
"256 793 OFFCURVE",
"266 793 CURVE",
"269 794 LINE",
"281 794 OFFCURVE",
"341 729 OFFCURVE",
"403 729 CURVE SMOOTH",
"414 729 OFFCURVE",
"420 730 OFFCURVE",
"425 731 CURVE SMOOTH",
"462 741 OFFCURVE",
"484 754 OFFCURVE",
"549 839 CURVE",
"474 922 LINE",
"441 875 OFFCURVE",
"417 851 OFFCURVE",
"404 844 CURVE",
"396 844 OFFCURVE",
"388 847 OFFCURVE",
"365 865 CURVE SMOOTH",
"324 897 OFFCURVE",
"298 908 OFFCURVE",
"267 908 CURVE SMOOTH",
"234 908 OFFCURVE",
"227 903 OFFCURVE",
"215 896 CURVE SMOOTH",
"193 883 OFFCURVE",
"173 867 OFFCURVE",
"121 799 CURVE"
);
}
);
width = 671;
}
);
unicode = 00D5;
},
{
glyphname = tildemod;
layers = (
{
layerId = "9F8883BC-B634-401D-A38E-6E78924B331A";
paths = (
{
nodes = (
"98 714 LINE",
"115 737 OFFCURVE",
"129 755 OFFCURVE",
"140 768 CURVE SMOOTH",
"157 789 OFFCURVE",
"159 792 OFFCURVE",
"169 792 CURVE",
"172 793 LINE",
"184 793 OFFCURVE",
"244 728 OFFCURVE",
"306 728 CURVE SMOOTH",
"317 728 OFFCURVE",
"323 729 OFFCURVE",
"328 730 CURVE SMOOTH",
"365 740 OFFCURVE",
"387 753 OFFCURVE",
"452 838 CURVE",
"377 921 LINE",
"344 874 OFFCURVE",
"320 850 OFFCURVE",
"307 843 CURVE",
"299 843 OFFCURVE",
"291 846 OFFCURVE",
"268 864 CURVE SMOOTH",
"227 896 OFFCURVE",
"201 907 OFFCURVE",
"170 907 CURVE SMOOTH",
"137 907 OFFCURVE",
"130 902 OFFCURVE",
"118 895 CURVE SMOOTH",
"96 882 OFFCURVE",
"76 866 OFFCURVE",
"24 798 CURVE"
);
}
);
width = 472;
}
);
unicode = 02DC;
},
{
glyphname = D;
layers = (
{
layerId = "9F8883BC-B634-401D-A38E-6E78924B331A";
paths = (
{
nodes = (
"258 0 LINE SMOOTH",
"444 0 OFFCURVE",
"605 150 OFFCURVE",
"605 347 CURVE SMOOTH",
"605 539 OFFCURVE",
"450 694 OFFCURVE",
"258 694 CURVE SMOOTH",
"47 694 LINE",
"47 544 LINE",
"258 544 LINE SMOOTH",
"367 544 OFFCURVE",
"455 457 OFFCURVE",
"455 347 CURVE SMOOTH",
"455 238 OFFCURVE",
"368 150 OFFCURVE",
"258 150 CURVE SMOOTH",
"196 150 LINE",
"196 512 LINE",
"47 512 LINE",
"47 0 LINE"
);
}
);
width = 637;
}
);
unicode = 0044;
},
{
glyphname = C;
layers = (
{
layerId = "9F8883BC-B634-401D-A38E-6E78924B331A";
paths = (
{
nodes = (
"502 0 LINE",
"502 150 LINE",
"350 150 LINE SMOOTH",
"241 150 OFFCURVE",
"153 237 OFFCURVE",
"153 346 CURVE SMOOTH",
"153 455 OFFCURVE",
"240 543 OFFCURVE",
"350 543 CURVE SMOOTH",
"502 543 LINE",
"502 693 LINE",
"350 693 LINE SMOOTH",
"158 693 OFFCURVE",
"3 539 OFFCURVE",
"3 346 CURVE SMOOTH",
"3 161 OFFCURVE",
"150 0 OFFCURVE",
"350 0 CURVE SMOOTH"
);
}
);
width = 554;
}
);
unicode = 0043;
},
{
glyphname = I;
layers = (
{
layerId = "9F8883BC-B634-401D-A38E-6E78924B331A";
paths = (
{
nodes = (
"207 0 LINE",
"207 693 LINE",
"57 693 LINE",
"57 0 LINE"
);
}
);
width = 260;
}
);
unicode = 0049;
},
{
glyphname = L;
layers = (
{
layerId = "9F8883BC-B634-401D-A38E-6E78924B331A";
paths = (
{
nodes = (
"433 0 LINE",
"433 150 LINE",
"194 150 LINE",
"194 693 LINE",
"44 693 LINE",
"44 0 LINE"
);
}
);
width = 437;
}
);
unicode = 004C;
},
{
glyphname = M;
layers = (
{
layerId = "9F8883BC-B634-401D-A38E-6E78924B331A";
paths = (
{
nodes = (
"733 0 LINE",
"733 694 LINE",
"591 694 LINE",
"406 250 LINE",
"486 55 LINE",
"584 287 LINE",
"584 0 LINE"
);
},
{
nodes = (
"480 0 LINE",
"192 694 LINE",
"49 694 LINE",
"49 0 LINE",
"199 0 LINE",
"199 287 LINE",
"320 0 LINE"
);
}
);
width = 801;
}
);
unicode = 004D;
},
{
glyphname = V;
layers = (
{
layerId = "9F8883BC-B634-401D-A38E-6E78924B331A";
paths = (
{
nodes = (
"455 60 LINE",
"712 693 LINE",
"552 693 LINE",
"373 253 LINE"
);
},
{
nodes = (
"441 0 LINE",
"152 693 LINE",
"-9 693 LINE",
"280 0 LINE"
);
}
);
width = 732;
}
);
unicode = 0056;
},
{
glyphname = X;
layers = (
{
layerId = "9F8883BC-B634-401D-A38E-6E78924B331A";
paths = (
{
nodes = (
"377 380 LINE",
"539 693 LINE",
"370 693 LINE",
"292 538 LINE"
);
},
{
nodes = (
"539 0 LINE",
"174 693 LINE",
"5 693 LINE",
"370 0 LINE"
);
},
{
nodes = (
"174 0 LINE",
"256 157 LINE",
"170 313 LINE",
"5 0 LINE"
);
}
);
width = 560;
}
);
unicode = 0058;
},
{
glyphname = Scommaaccent;
layers = (
{
layerId = "9F8883BC-B634-401D-A38E-6E78924B331A";
paths = (
{
nodes = (
"306 0 LINE SMOOTH",
"437 0 OFFCURVE",
"544 104 OFFCURVE",
"544 238 CURVE SMOOTH",
"544 368 LINE",
"393 368 LINE",
"393 238 LINE SMOOTH",
"393 188 OFFCURVE",
"354 150 OFFCURVE",
"306 150 CURVE SMOOTH",
"30 150 LINE",
"30 0 LINE"
);
},
{
nodes = (
"180 326 LINE",
"180 456 LINE SMOOTH",
"180 503 OFFCURVE",
"217 544 OFFCURVE",
"268 544 CURVE SMOOTH",
"544 544 LINE",
"544 694 LINE",
"268 694 LINE SMOOTH",
"138 694 OFFCURVE",
"30 590 OFFCURVE",
"30 456 CURVE SMOOTH",
"30 326 LINE"
);
},
{
nodes = (
"242 -268 OFFCURVE",
"253 -262 OFFCURVE",
"265 -250 CURVE SMOOTH",
"340 -172 LINE",
"340 -169 LINE",
"343 -166 OFFCURVE",
"345 -161 OFFCURVE",
"346 -156 CURVE",
"351 -145 OFFCURVE",
"354 -134 OFFCURVE",
"354 -124 CURVE",
"353 -114 LINE",
"350 -101 OFFCURVE",
"345 -90 OFFCURVE",
"338 -81 CURVE SMOOTH",
"330 -72 OFFCURVE",
"320 -66 OFFCURVE",
"309 -61 CURVE SMOOTH",
"298 -56 OFFCURVE",
"286 -54 OFFCURVE",
"274 -54 CURVE SMOOTH",
"255 -54 OFFCURVE",
"239 -60 OFFCURVE",
"224 -71 CURVE SMOOTH",
"209 -83 OFFCURVE",
"202 -103 OFFCURVE",
"202 -130 CURVE SMOOTH",
"202 -224 LINE SMOOTH",
"202 -245 OFFCURVE",
"208 -259 OFFCURVE",
"221 -265 CURVE SMOOTH",
"225 -267 OFFCURVE",
"229 -268 OFFCURVE",
"233 -268 CURVE SMOOTH"
);
}
);
width = 609;
}
);
unicode = 0218;
},
{
glyphname = ringmod;
layers = (
{
layerId = "9F8883BC-B634-401D-A38E-6E78924B331A";
paths = (
{
nodes = (
"216 722 OFFCURVE",
"274 778 OFFCURVE",
"274 847 CURVE SMOOTH",
"274 913 OFFCURVE",
"219 972 OFFCURVE",
"149 972 CURVE SMOOTH",
"79 972 OFFCURVE",
"24 913 OFFCURVE",
"24 847 CURVE SMOOTH",
"24 776 OFFCURVE",
"84 722 OFFCURVE",
"149 722 CURVE SMOOTH"
);
},
{
nodes = (
"112 782 OFFCURVE",
"84 812 OFFCURVE",
"84 847 CURVE SMOOTH",
"84 882 OFFCURVE",
"112 912 OFFCURVE",
"149 912 CURVE SMOOTH",
"186 912 OFFCURVE",
"214 882 OFFCURVE",
"214 847 CURVE SMOOTH",
"214 812 OFFCURVE",
"186 782 OFFCURVE",
"149 782 CURVE SMOOTH"
);
}
);
width = 293;
}
);
unicode = 02DA;
},
{
glyphname = dotaccentmod;
layers = (
{
layerId = "9F8883BC-B634-401D-A38E-6E78924B331A";
paths = (
{
nodes = (
"180 711 OFFCURVE",
"224 753 OFFCURVE",
"224 810 CURVE SMOOTH",
"224 866 OFFCURVE",
"180 910 OFFCURVE",
"124 910 CURVE SMOOTH",
"67 910 OFFCURVE",
"25 866 OFFCURVE",
"25 810 CURVE SMOOTH",
"25 754 OFFCURVE",
"68 711 OFFCURVE",
"124 711 CURVE SMOOTH"
);
}
);
width = 249;
}
);
unicode = 02D9;
},
{
glyphname = scommaaccent;
layers = (
{
layerId = "9F8883BC-B634-401D-A38E-6E78924B331A";
paths = (
{
nodes = (
"306 0 LINE SMOOTH",
"437 0 OFFCURVE",
"544 104 OFFCURVE",
"544 238 CURVE SMOOTH",
"544 368 LINE",
"393 368 LINE",
"393 238 LINE SMOOTH",
"393 188 OFFCURVE",
"354 150 OFFCURVE",
"306 150 CURVE SMOOTH",
"30 150 LINE",
"30 0 LINE"
);
},
{
nodes = (
"180 326 LINE",
"180 456 LINE SMOOTH",
"180 503 OFFCURVE",
"217 544 OFFCURVE",
"268 544 CURVE SMOOTH",
"544 544 LINE",
"544 694 LINE",
"268 694 LINE SMOOTH",
"138 694 OFFCURVE",
"30 590 OFFCURVE",
"30 456 CURVE SMOOTH",
"30 326 LINE"
);
},
{
nodes = (
"242 -268 OFFCURVE",
"253 -262 OFFCURVE",
"265 -250 CURVE SMOOTH",
"340 -172 LINE",
"340 -169 LINE",
"343 -166 OFFCURVE",
"345 -161 OFFCURVE",
"346 -156 CURVE",
"351 -145 OFFCURVE",
"354 -134 OFFCURVE",
"354 -124 CURVE",
"353 -114 LINE",
"350 -101 OFFCURVE",
"345 -90 OFFCURVE",
"338 -81 CURVE SMOOTH",
"330 -72 OFFCURVE",
"320 -66 OFFCURVE",
"309 -61 CURVE SMOOTH",
"298 -56 OFFCURVE",
"286 -54 OFFCURVE",
"274 -54 CURVE SMOOTH",
"255 -54 OFFCURVE",
"239 -60 OFFCURVE",
"224 -71 CURVE SMOOTH",
"209 -83 OFFCURVE",
"202 -103 OFFCURVE",
"202 -130 CURVE SMOOTH",
"202 -224 LINE SMOOTH",
"202 -245 OFFCURVE",
"208 -259 OFFCURVE",
"221 -265 CURVE SMOOTH",
"225 -267 OFFCURVE",
"229 -268 OFFCURVE",
"233 -268 CURVE SMOOTH"
);
}
);
width = 609;
}
);
unicode = 0219;
},
{
glyphname = tcommaaccent;
layers = (
{
layerId = "9F8883BC-B634-401D-A38E-6E78924B331A";
paths = (
{
nodes = (
"530 544 LINE",
"530 694 LINE",
"11 694 LINE",
"11 544 LINE"
);
},
{
nodes = (
"345 0 LINE",
"345 510 LINE",
"196 510 LINE",
"196 0 LINE"
);
},
{
nodes = (
"242 -268 OFFCURVE",
"253 -262 OFFCURVE",
"265 -250 CURVE SMOOTH",
"340 -172 LINE",
"340 -169 LINE",
"343 -166 OFFCURVE",
"345 -161 OFFCURVE",
"346 -156 CURVE",
"351 -145 OFFCURVE",
"354 -134 OFFCURVE",
"354 -124 CURVE",
"353 -114 LINE",
"350 -101 OFFCURVE",
"345 -90 OFFCURVE",
"338 -81 CURVE SMOOTH",
"330 -72 OFFCURVE",
"320 -66 OFFCURVE",
"309 -61 CURVE SMOOTH",
"298 -56 OFFCURVE",
"286 -54 OFFCURVE",
"274 -54 CURVE SMOOTH",
"255 -54 OFFCURVE",
"239 -60 OFFCURVE",
"224 -71 CURVE SMOOTH",
"209 -83 OFFCURVE",
"202 -103 OFFCURVE",
"202 -130 CURVE SMOOTH",
"202 -224 LINE SMOOTH",
"202 -245 OFFCURVE",
"208 -259 OFFCURVE",
"221 -265 CURVE SMOOTH",
"225 -267 OFFCURVE",
"229 -268 OFFCURVE",
"233 -268 CURVE SMOOTH"
);
}
);
width = 538;
}
);
unicode = 021B;
},
{
glyphname = Tcommaaccent;
layers = (
{
layerId = "9F8883BC-B634-401D-A38E-6E78924B331A";
paths = (
{
nodes = (
"530 544 LINE",
"530 694 LINE",
"11 694 LINE",
"11 544 LINE"
);
},
{
nodes = (
"345 0 LINE",
"345 510 LINE",
"196 510 LINE",
"196 0 LINE"
);
},
{
nodes = (
"242 -268 OFFCURVE",
"253 -262 OFFCURVE",
"265 -250 CURVE SMOOTH",
"340 -172 LINE",
"340 -169 LINE",
"343 -166 OFFCURVE",
"345 -161 OFFCURVE",
"346 -156 CURVE",
"351 -145 OFFCURVE",
"354 -134 OFFCURVE",
"354 -124 CURVE",
"353 -114 LINE",
"350 -101 OFFCURVE",
"345 -90 OFFCURVE",
"338 -81 CURVE SMOOTH",
"330 -72 OFFCURVE",
"320 -66 OFFCURVE",
"309 -61 CURVE SMOOTH",
"298 -56 OFFCURVE",
"286 -54 OFFCURVE",
"274 -54 CURVE SMOOTH",
"255 -54 OFFCURVE",
"239 -60 OFFCURVE",
"224 -71 CURVE SMOOTH",
"209 -83 OFFCURVE",
"202 -103 OFFCURVE",
"202 -130 CURVE SMOOTH",
"202 -224 LINE SMOOTH",
"202 -245 OFFCURVE",
"208 -259 OFFCURVE",
"221 -265 CURVE SMOOTH",
"225 -267 OFFCURVE",
"229 -268 OFFCURVE",
"233 -268 CURVE SMOOTH"
);
}
);
width = 538;
}
);
unicode = 021A;
},
{
glyphname = "Omega-grek";
layers = (
{
layerId = "9F8883BC-B634-401D-A38E-6E78924B331A";
paths = (
{
nodes = (
"796 1 LINE",
"796 151 LINE",
"689 151 LINE",
"715 193 OFFCURVE",
"726 244 OFFCURVE",
"726 292 CURVE SMOOTH",
"726 401 LINE SMOOTH",
"726 520 OFFCURVE",
"655 624 OFFCURVE",
"548 670 CURVE SMOOTH",
"497 692 OFFCURVE",
"464 693 OFFCURVE",
"404 693 CURVE SMOOTH",
"245 693 OFFCURVE",
"111 565 OFFCURVE",
"111 401 CURVE SMOOTH",
"111 292 LINE SMOOTH",
"111 239 OFFCURVE",
"124 193 OFFCURVE",
"147 151 CURVE",
"30 151 LINE",
"30 1 LINE",
"363 1 LINE",
"363 155 LINE",
"302 178 OFFCURVE",
"262 225 OFFCURVE",
"262 292 CURVE SMOOTH",
"262 401 LINE SMOOTH",
"262 481 OFFCURVE",
"324 544 OFFCURVE",
"404 544 CURVE SMOOTH",
"434 544 LINE SMOOTH",
"514 544 OFFCURVE",
"576 480 OFFCURVE",
"576 401 CURVE SMOOTH",
"576 292 LINE SMOOTH",
"576 219 OFFCURVE",
"524 165 OFFCURVE",
"460 152 CURVE",
"460 1 LINE"
);
}
);
width = 826;
}
);
unicode = 03A9;
},
{
glyphname = notequalto;
layers = (
{
layerId = "9F8883BC-B634-401D-A38E-6E78924B331A";
paths = (
{
nodes = (
"233 118 LINE",
"387 598 LINE",
"258 598 LINE",
"104 118 LINE"
);
},
{
nodes = (
"463 232 LINE",
"463 336 LINE",
"27 336 LINE",
"27 232 LINE"
);
},
{
nodes = (
"463 383 LINE",
"463 486 LINE",
"27 486 LINE",
"27 383 LINE"
);
}
);
width = 505;
}
);
unicode = 2260;
},
{
glyphname = infinity;
layers = (
{
layerId = "9F8883BC-B634-401D-A38E-6E78924B331A";
paths = (
{
nodes = (
"767 139 OFFCURVE",
"816 159 OFFCURVE",
"851 198 CURVE",
"851 197 LINE",
"881 228 OFFCURVE",
"901 284 OFFCURVE",
"901 353 CURVE SMOOTH",
"901 483 OFFCURVE",
"833 567 OFFCURVE",
"702 567 CURVE SMOOTH",
"597 567 OFFCURVE",
"515 530 OFFCURVE",
"463 469 CURVE",
"403 533 OFFCURVE",
"330 567 OFFCURVE",
"224 567 CURVE SMOOTH",
"85 567 OFFCURVE",
"24 476 OFFCURVE",
"24 353 CURVE SMOOTH",
"24 219 OFFCURVE",
"97 139 OFFCURVE",
"224 139 CURVE SMOOTH",
"294 139 OFFCURVE",
"354 155 OFFCURVE",
"405 186 CURVE",
"426 201 OFFCURVE",
"444 217 OFFCURVE",
"463 236 CURVE",
"518 175 OFFCURVE",
"593 139 OFFCURVE",
"702 139 CURVE SMOOTH"
);
},
{
nodes = (
"619 259 OFFCURVE",
"561 290 OFFCURVE",
"528 353 CURVE",
"561 415 OFFCURVE",
"619 446 OFFCURVE",
"702 446 CURVE SMOOTH",
"742 446 OFFCURVE",
"780 436 OFFCURVE",
"780 353 CURVE SMOOTH",
"780 270 OFFCURVE",
"742 259 OFFCURVE",
"702 259 CURVE SMOOTH"
);
},
{
nodes = (
"182 259 OFFCURVE",
"145 271 OFFCURVE",
"145 353 CURVE SMOOTH",
"145 436 OFFCURVE",
"183 446 OFFCURVE",
"224 446 CURVE SMOOTH",
"306 446 OFFCURVE",
"362 419 OFFCURVE",
"397 353 CURVE",
"365 290 OFFCURVE",
"307 259 OFFCURVE",
"224 259 CURVE SMOOTH"
);
}
);
width = 927;
}
);
unicode = 221E;
},
{
glyphname = narysummation;
layers = (
{
layerId = "9F8883BC-B634-401D-A38E-6E78924B331A";
paths = (
{
nodes = (
"552 -101 LINE",
"552 49 LINE",
"255 49 LINE",
"363 299 LINE",
"251 543 LINE",
"548 543 LINE",
"548 693 LINE",
"32 693 LINE",
"213 299 LINE",
"40 -101 LINE"
);
}
);
width = 577;
}
);
unicode = 2211;
},
{
glyphname = naryproduct;
layers = (
{
layerId = "9F8883BC-B634-401D-A38E-6E78924B331A";
paths = (
{
nodes = (
"539 -101 LINE",
"539 693 LINE",
"57 693 LINE",
"57 -101 LINE",
"207 -101 LINE",
"207 543 LINE",
"389 543 LINE",
"389 -101 LINE"
);
}
);
width = 577;
}
);
unicode = 220F;
},
{
glyphname = "pi-grek";
layers = (
{
layerId = "9F8883BC-B634-401D-A38E-6E78924B331A";
paths = (
{
nodes = (
"326 0 LINE",
"326 467 LINE",
"176 467 LINE",
"176 0 LINE"
);
},
{
nodes = (
"700 0 LINE",
"700 467 LINE",
"550 467 LINE",
"550 0 LINE"
);
},
{
nodes = (
"850 361 LINE",
"850 511 LINE",
"39 511 LINE",
"39 361 LINE"
);
}
);
width = 893;
}
);
unicode = 03C0;
},
{
glyphname = integral;
layers = (
{
layerId = "9F8883BC-B634-401D-A38E-6E78924B331A";
paths = (
{
nodes = (
"129 -216 LINE SMOOTH",
"259 -216 OFFCURVE",
"367 -112 OFFCURVE",
"367 22 CURVE SMOOTH",
"367 456 LINE SMOOTH",
"367 503 OFFCURVE",
"404 544 OFFCURVE",
"455 544 CURVE SMOOTH",
"546 544 LINE",
"546 694 LINE",
"455 694 LINE SMOOTH",
"325 694 OFFCURVE",
"217 590 OFFCURVE",
"217 456 CURVE SMOOTH",
"217 22 LINE SMOOTH",
"217 -25 OFFCURVE",
"180 -66 OFFCURVE",
"129 -66 CURVE SMOOTH",
"38 -66 LINE",
"38 -216 LINE"
);
}
);
width = 575;
}
);
unicode = 222B;
},
{
glyphname = lessthanorequalto;
layers = (
{
layerId = "9F8883BC-B634-401D-A38E-6E78924B331A";
paths = (
{
nodes = (
"345 164 LINE",
"412 248 LINE",
"190 432 LINE",
"412 598 LINE",
"345 682 LINE",
"47 456 LINE",
"47 407 LINE"
);
},
{
nodes = (
"419 0 LINE",
"419 112 LINE",
"46 112 LINE",
"46 0 LINE"
);
}
);
width = 461;
}
);
unicode = 2264;
},
{
glyphname = greaterthanorequalto;
layers = (
{
layerId = "9F8883BC-B634-401D-A38E-6E78924B331A";
paths = (
{
nodes = (
"419 0 LINE",
"419 112 LINE",
"46 112 LINE",
"46 0 LINE"
);
},
{
nodes = (
"120 164 LINE",
"418 407 LINE",
"418 456 LINE",
"120 682 LINE",
"53 598 LINE",
"275 432 LINE",
"53 248 LINE"
);
}
);
width = 461;
}
);
unicode = 2265;
},
{
glyphname = fraction;
layers = (
{
layerId = "9F8883BC-B634-401D-A38E-6E78924B331A";
paths = (
{
nodes = (
"224 0 LINE",
"556 693 LINE",
"389 693 LINE",
"57 0 LINE"
);
}
);
width = 594;
}
);
unicode = 2044;
},
{
glyphname = dagger;
layers = (
{
layerId = "9F8883BC-B634-401D-A38E-6E78924B331A";
paths = (
{
nodes = (
"249 -87 LINE",
"249 772 LINE",
"132 772 LINE",
"132 -87 LINE"
);
},
{
nodes = (
"359 374 LINE",
"359 494 LINE",
"24 494 LINE",
"24 374 LINE"
);
}
);
width = 394;
}
);
unicode = 2020;
},
{
glyphname = fhook;
layers = (
{
layerId = "9F8883BC-B634-401D-A38E-6E78924B331A";
paths = (
{
nodes = (
"64 -149 LINE SMOOTH",
"214 -149 OFFCURVE",
"338 -19 OFFCURVE",
"338 134 CURVE SMOOTH",
"338 499 LINE SMOOTH",
"338 563 OFFCURVE",
"388 618 OFFCURVE",
"455 618 CURVE SMOOTH",
"554 618 LINE",
"554 782 LINE",
"455 782 LINE SMOOTH",
"305 782 OFFCURVE",
"179 654 OFFCURVE",
"179 499 CURVE SMOOTH",
"179 134 LINE SMOOTH",
"179 68 OFFCURVE",
"127 15 OFFCURVE",
"64 15 CURVE SMOOTH",
"27 15 LINE",
"27 -149 LINE"
);
},
{
nodes = (
"474 386 LINE",
"474 506 LINE",
"94 506 LINE",
"94 386 LINE"
);
}
);
width = 575;
}
);
unicode = 0192;
},
{
glyphname = almostequalto;
layers = (
{
layerId = "9F8883BC-B634-401D-A38E-6E78924B331A";
paths = (
{
nodes = (
"107 78 LINE",
"163 150 OFFCURVE",
"206 190 OFFCURVE",
"233 198 CURVE",
"230 197 LINE",
"237 197 OFFCURVE",
"242 197 OFFCURVE",
"245 199 CURVE",
"268 199 OFFCURVE",
"299 182 OFFCURVE",
"336 154 CURVE SMOOTH",
"402 104 OFFCURVE",
"452 84 OFFCURVE",
"500 84 CURVE SMOOTH",
"514 84 OFFCURVE",
"526 85 OFFCURVE",
"535 87 CURVE SMOOTH",
"592 101 OFFCURVE",
"638 127 OFFCURVE",
"727 244 CURVE",
"637 340 LINE",
"582 269 OFFCURVE",
"538 229 OFFCURVE",
"506 221 CURVE",
"480 221 OFFCURVE",
"457 228 OFFCURVE",
"408 266 CURVE SMOOTH",
"373 293 OFFCURVE",
"342 311 OFFCURVE",
"311 322 CURVE",
"312 322 LINE",
"290 331 OFFCURVE",
"268 335 OFFCURVE",
"245 335 CURVE SMOOTH",
"189 335 OFFCURVE",
"155 315 OFFCURVE",
"115 283 CURVE",
"115 284 LINE",
"90 263 OFFCURVE",
"59 230 OFFCURVE",
"17 175 CURVE"
);
},
{
nodes = (
"114 339 LINE",
"170 411 OFFCURVE",
"213 451 OFFCURVE",
"240 459 CURVE",
"237 458 LINE",
"244 458 OFFCURVE",
"249 458 OFFCURVE",
"252 460 CURVE",
"275 460 OFFCURVE",
"306 443 OFFCURVE",
"343 415 CURVE SMOOTH",
"409 365 OFFCURVE",
"459 345 OFFCURVE",
"507 345 CURVE SMOOTH",
"521 345 OFFCURVE",
"533 346 OFFCURVE",
"542 348 CURVE SMOOTH",
"599 362 OFFCURVE",
"645 388 OFFCURVE",
"734 505 CURVE",
"644 601 LINE",
"589 530 OFFCURVE",
"545 490 OFFCURVE",
"513 482 CURVE",
"487 482 OFFCURVE",
"464 489 OFFCURVE",
"415 527 CURVE SMOOTH",
"380 554 OFFCURVE",
"349 572 OFFCURVE",
"318 583 CURVE",
"319 583 LINE",
"297 592 OFFCURVE",
"275 596 OFFCURVE",
"252 596 CURVE SMOOTH",
"196 596 OFFCURVE",
"162 576 OFFCURVE",
"122 544 CURVE",
"122 545 LINE",
"97 524 OFFCURVE",
"66 491 OFFCURVE",
"24 436 CURVE"
);
}
);
width = 758;
}
);
unicode = 2248;
},
{
glyphname = increment;
layers = (
{
layerId = "9F8883BC-B634-401D-A38E-6E78924B331A";
paths = (
{
nodes = (
"576 0 LINE",
"275 725 LINE",
"-28 0 LINE"
);
},
{
nodes = (
"197 150 LINE",
"275 337 LINE",
"306 262 OFFCURVE",
"325 217 OFFCURVE",
"354 150 CURVE"
);
}
);
width = 573;
}
);
unicode = 2206;
},
{
glyphname = idotless;
layers = (
{
layerId = "9F8883BC-B634-401D-A38E-6E78924B331A";
paths = (
{
nodes = (
"282 0 LINE",
"282 693 LINE",
"35 693 LINE",
"35 543 LINE",
"132 543 LINE",
"132 0 LINE"
);
}
);
width = 318;
}
);
unicode = 0131;
},
{
glyphname = daggerdbl;
layers = (
{
layerId = "9F8883BC-B634-401D-A38E-6E78924B331A";
paths = (
{
nodes = (
"304 -87 LINE",
"304 772 LINE",
"187 772 LINE",
"187 -87 LINE"
);
},
{
nodes = (
"464 97 LINE",
"464 201 LINE",
"28 201 LINE",
"28 97 LINE"
);
},
{
nodes = (
"464 505 LINE",
"464 608 LINE",
"28 608 LINE",
"28 505 LINE"
);
}
);
width = 492;
}
);
unicode = 2021;
},
{
glyphname = perthousand;
layers = (
{
layerId = "9F8883BC-B634-401D-A38E-6E78924B331A";
paths = (
{
nodes = (
"880 0 OFFCURVE",
"955 77 OFFCURVE",
"955 172 CURVE SMOOTH",
"955 236 LINE SMOOTH",
"955 259 OFFCURVE",
"951 282 OFFCURVE",
"942 303 CURVE SMOOTH",
"910 375 OFFCURVE",
"850 407 OFFCURVE",
"766 407 CURVE SMOOTH",
"671 407 OFFCURVE",
"593 332 OFFCURVE",
"593 236 CURVE SMOOTH",
"593 172 LINE SMOOTH",
"593 148 OFFCURVE",
"598 126 OFFCURVE",
"607 105 CURVE SMOOTH",
"637 32 OFFCURVE",
"698 0 OFFCURVE",
"783 0 CURVE SMOOTH"
);
},
{
nodes = (
"316 286 OFFCURVE",
"391 363 OFFCURVE",
"391 458 CURVE SMOOTH",
"391 522 LINE SMOOTH",
"391 545 OFFCURVE",
"387 568 OFFCURVE",
"378 589 CURVE SMOOTH",
"346 661 OFFCURVE",
"286 693 OFFCURVE",
"202 693 CURVE SMOOTH",
"107 693 OFFCURVE",
"29 618 OFFCURVE",
"29 522 CURVE SMOOTH",
"29 458 LINE SMOOTH",
"29 434 OFFCURVE",
"34 412 OFFCURVE",
"43 391 CURVE SMOOTH",
"73 318 OFFCURVE",
"134 286 OFFCURVE",
"219 286 CURVE SMOOTH"
);
},
{
nodes = (
"291 0 LINE",
"801 600 LINE",
"702 693 LINE",
"179 85 LINE"
);
},
{
nodes = (
"763 120 LINE SMOOTH",
"731 120 OFFCURVE",
"707 147 OFFCURVE",
"707 184 CURVE SMOOTH",
"707 232 LINE SMOOTH",
"707 267 OFFCURVE",
"730 296 OFFCURVE",
"763 296 CURVE SMOOTH",
"775 296 LINE SMOOTH",
"807 296 OFFCURVE",
"832 267 OFFCURVE",
"832 232 CURVE SMOOTH",
"832 184 LINE SMOOTH",
"832 146 OFFCURVE",
"805 120 OFFCURVE",
"775 120 CURVE SMOOTH"
);
},
{
nodes = (
"199 406 LINE SMOOTH",
"167 406 OFFCURVE",
"143 433 OFFCURVE",
"143 470 CURVE SMOOTH",
"143 518 LINE SMOOTH",
"143 553 OFFCURVE",
"166 582 OFFCURVE",
"199 582 CURVE SMOOTH",
"211 582 LINE SMOOTH",
"243 582 OFFCURVE",
"268 553 OFFCURVE",
"268 518 CURVE SMOOTH",
"268 470 LINE SMOOTH",
"268 432 OFFCURVE",
"241 406 OFFCURVE",
"211 406 CURVE SMOOTH"
);
},
{
nodes = (
"1279 0 OFFCURVE",
"1354 77 OFFCURVE",
"1354 172 CURVE SMOOTH",
"1354 236 LINE SMOOTH",
"1354 259 OFFCURVE",
"1350 282 OFFCURVE",
"1341 303 CURVE SMOOTH",
"1309 375 OFFCURVE",
"1249 407 OFFCURVE",
"1165 407 CURVE SMOOTH",
"1070 407 OFFCURVE",
"992 332 OFFCURVE",
"992 236 CURVE SMOOTH",
"992 172 LINE SMOOTH",
"992 148 OFFCURVE",
"997 126 OFFCURVE",
"1006 105 CURVE SMOOTH",
"1036 32 OFFCURVE",
"1097 0 OFFCURVE",
"1182 0 CURVE SMOOTH"
);
},
{
nodes = (
"1162 120 LINE SMOOTH",
"1130 120 OFFCURVE",
"1106 147 OFFCURVE",
"1106 184 CURVE SMOOTH",
"1106 232 LINE SMOOTH",
"1106 267 OFFCURVE",
"1129 296 OFFCURVE",
"1162 296 CURVE SMOOTH",
"1174 296 LINE SMOOTH",
"1206 296 OFFCURVE",
"1231 267 OFFCURVE",
"1231 232 CURVE SMOOTH",
"1231 184 LINE SMOOTH",
"1231 146 OFFCURVE",
"1204 120 OFFCURVE",
"1174 120 CURVE SMOOTH"
);
}
);
width = 1379;
}
);
unicode = 2030;
},
{
glyphname = fi;
layers = (
{
layerId = "9F8883BC-B634-401D-A38E-6E78924B331A";
paths = (
{
nodes = (
"655 0 LINE",
"655 416 LINE",
"286 416 LINE",
"286 456 LINE SMOOTH",
"286 503 OFFCURVE",
"323 544 OFFCURVE",
"374 544 CURVE SMOOTH",
"511 544 LINE",
"511 694 LINE",
"374 694 LINE SMOOTH",
"244 694 OFFCURVE",
"136 590 OFFCURVE",
"136 456 CURVE SMOOTH",
"136 416 LINE",
"40 416 LINE",
"40 266 LINE",
"136 266 LINE",
"136 0 LINE",
"286 0 LINE",
"286 266 LINE",
"505 266 LINE",
"505 0 LINE"
);
}
);
width = 685;
}
);
unicode = FB01;
},
{
glyphname = fl;
layers = (
{
layerId = "9F8883BC-B634-401D-A38E-6E78924B331A";
paths = (
{
nodes = (
"655 0 LINE",
"655 693 LINE",
"374 694 LINE",
"244 694 OFFCURVE",
"136 590 OFFCURVE",
"136 456 CURVE SMOOTH",
"136 416 LINE",
"40 416 LINE",
"40 266 LINE",
"136 266 LINE",
"136 0 LINE",
"286 0 LINE",
"286 266 LINE",
"452 266 LINE",
"452 416 LINE",
"286 416 LINE",
"286 456 LINE SMOOTH",
"286 503 OFFCURVE",
"323 544 OFFCURVE",
"374 544 CURVE SMOOTH",
"506 544 LINE",
"505 0 LINE"
);
}
);
width = 687;
}
);
unicode = FB02;
},
{
glyphname = colon;
layers = (
{
layerId = "9F8883BC-B634-401D-A38E-6E78924B331A";
paths = (
{
nodes = (
"132 0 OFFCURVE",
"164 34 OFFCURVE",
"164 75 CURVE SMOOTH",
"164 119 OFFCURVE",
"130 150 OFFCURVE",
"88 150 CURVE SMOOTH",
"49 150 OFFCURVE",
"14 119 OFFCURVE",
"14 75 CURVE SMOOTH",
"14 33 OFFCURVE",
"48 0 OFFCURVE",
"88 0 CURVE SMOOTH"
);
},
{
nodes = (
"130 544 OFFCURVE",
"164 576 OFFCURVE",
"164 620 CURVE SMOOTH",
"164 661 OFFCURVE",
"132 694 OFFCURVE",
"88 694 CURVE SMOOTH",
"49 694 OFFCURVE",
"14 662 OFFCURVE",
"14 620 CURVE SMOOTH",
"14 576 OFFCURVE",
"49 544 OFFCURVE",
"88 544 CURVE SMOOTH"
);
}
);
width = 189;
}
);
unicode = 003A;
},
{
glyphname = period;
layers = (
{
layerId = "9F8883BC-B634-401D-A38E-6E78924B331A";
paths = (
{
nodes = (
"114 0 OFFCURVE",
"149 32 OFFCURVE",
"149 75 CURVE SMOOTH",
"149 119 OFFCURVE",
"115 150 OFFCURVE",
"74 150 CURVE SMOOTH",
"33 150 OFFCURVE",
"-1 119 OFFCURVE",
"-1 75 CURVE SMOOTH",
"-1 32 OFFCURVE",
"34 0 OFFCURVE",
"74 0 CURVE SMOOTH"
);
}
);
width = 151;
}
);
unicode = 002E;
},
{
glyphname = hyphenminus;
layers = (
{
layerId = "9F8883BC-B634-401D-A38E-6E78924B331A";
paths = (
{
nodes = (
"362 287 LINE",
"362 407 LINE",
"27 407 LINE",
"27 287 LINE"
);
}
);
width = 399;
}
);
unicode = 002D;
},
{
glyphname = exclam;
layers = (
{
layerId = "9F8883BC-B634-401D-A38E-6E78924B331A";
paths = (
{
nodes = (
"203 271 LINE",
"203 693 LINE",
"53 693 LINE",
"53 271 LINE"
);
},
{
nodes = (
"169 0 OFFCURVE",
"203 31 OFFCURVE",
"203 74 CURVE SMOOTH",
"203 118 OFFCURVE",
"169 150 OFFCURVE",
"128 150 CURVE SMOOTH",
"87 150 OFFCURVE",
"53 118 OFFCURVE",
"53 74 CURVE SMOOTH",
"53 31 OFFCURVE",
"87 0 OFFCURVE",
"128 0 CURVE SMOOTH"
);
}
);
width = 273;
}
);
unicode = 0021;
},
{
glyphname = quotedbl;
layers = (
{
layerId = "9F8883BC-B634-401D-A38E-6E78924B331A";
paths = (
{
nodes = (
"207 359 LINE",
"207 693 LINE",
"57 693 LINE",
"57 359 LINE"
);
},
{
nodes = (
"425 359 LINE",
"425 693 LINE",
"275 693 LINE",
"275 359 LINE"
);
}
);
width = 478;
}
);
unicode = 0022;
},
{
glyphname = numbersign;
layers = (
{
layerId = "9F8883BC-B634-401D-A38E-6E78924B331A";
paths = (
{
nodes = (
"257 0 LINE",
"321 608 LINE",
"179 608 LINE",
"115 0 LINE"
);
},
{
nodes = (
"507 0 LINE",
"571 608 LINE",
"429 608 LINE",
"365 0 LINE"
);
},
{
nodes = (
"650 371 LINE",
"650 515 LINE",
"71 515 LINE",
"71 371 LINE"
);
},
{
nodes = (
"619 114 LINE",
"619 257 LINE",
"40 257 LINE",
"40 114 LINE"
);
}
);
width = 694;
}
);
unicode = 0023;
},
{
glyphname = dollar;
layers = (
{
layerId = "9F8883BC-B634-401D-A38E-6E78924B331A";
paths = (
{
nodes = (
"306 0 LINE SMOOTH",
"437 0 OFFCURVE",
"544 104 OFFCURVE",
"544 238 CURVE SMOOTH",
"544 368 LINE",
"393 368 LINE",
"393 238 LINE SMOOTH",
"393 188 OFFCURVE",
"354 150 OFFCURVE",
"306 150 CURVE SMOOTH",
"30 150 LINE",
"30 0 LINE"
);
},
{
nodes = (
"180 326 LINE",
"180 456 LINE SMOOTH",
"180 503 OFFCURVE",
"217 544 OFFCURVE",
"268 544 CURVE SMOOTH",
"544 544 LINE",
"544 694 LINE",
"268 694 LINE SMOOTH",
"138 694 OFFCURVE",
"30 590 OFFCURVE",
"30 456 CURVE SMOOTH",
"30 326 LINE"
);
},
{
nodes = (
"342 -87 LINE",
"342 772 LINE",
"225 772 LINE",
"225 -87 LINE"
);
}
);
width = 609;
}
);
unicode = 0024;
},
{
glyphname = ampersand;
layers = (
{
layerId = "9F8883BC-B634-401D-A38E-6E78924B331A";
paths = (
{
nodes = (
"558 0 LINE",
"558 272 LINE",
"648 272 LINE",
"648 422 LINE",
"401 422 LINE",
"401 150 LINE",
"242 150 LINE SMOOTH",
"208 150 OFFCURVE",
"181 175 OFFCURVE",
"181 211 CURVE SMOOTH",
"181 244 OFFCURVE",
"206 272 OFFCURVE",
"242 272 CURVE SMOOTH",
"344 272 LINE",
"344 421 LINE",
"242 421 LINE SMOOTH",
"206 421 OFFCURVE",
"181 449 OFFCURVE",
"181 482 CURVE SMOOTH",
"181 516 OFFCURVE",
"206 544 OFFCURVE",
"242 544 CURVE SMOOTH",
"526 544 LINE",
"526 693 LINE",
"242 693 LINE SMOOTH",
"109 693 OFFCURVE",
"31 582 OFFCURVE",
"31 480 CURVE SMOOTH",
"31 433 OFFCURVE",
"44 387 OFFCURVE",
"80 348 CURVE",
"44 307 OFFCURVE",
"32 258 OFFCURVE",
"32 213 CURVE SMOOTH",
"32 107 OFFCURVE",
"112 0 OFFCURVE",
"242 0 CURVE SMOOTH"
);
}
);
width = 674;
}
);
unicode = 0026;
},
{
glyphname = quotesingle;
layers = (
{
layerId = "9F8883BC-B634-401D-A38E-6E78924B331A";
paths = (
{
nodes = (
"195 397 LINE",
"195 693 LINE",
"45 693 LINE",
"45 397 LINE"
);
}
);
width = 236;
}
);
unicode = 0027;
},
{
glyphname = parenleft;
layers = (
{
layerId = "9F8883BC-B634-401D-A38E-6E78924B331A";
paths = (
{
nodes = (
"303 -186 LINE",
"303 -36 LINE",
"267 -36 LINE SMOOTH",
"219 -36 OFFCURVE",
"180 2 OFFCURVE",
"180 52 CURVE SMOOTH",
"180 653 LINE SMOOTH",
"180 703 OFFCURVE",
"219 741 OFFCURVE",
"267 741 CURVE SMOOTH",
"303 741 LINE",
"303 891 LINE",
"267 891 LINE SMOOTH",
"136 891 OFFCURVE",
"29 787 OFFCURVE",
"29 653 CURVE SMOOTH",
"29 52 LINE SMOOTH",
"29 -81 OFFCURVE",
"135 -186 OFFCURVE",
"267 -186 CURVE SMOOTH"
);
}
);
width = 227;
}
);
unicode = 0028;
},
{
glyphname = parenright;
layers = (
{
layerId = "9F8883BC-B634-401D-A38E-6E78924B331A";
paths = (
{
nodes = (
"-52 -186 LINE SMOOTH",
"79 -186 OFFCURVE",
"186 -82 OFFCURVE",
"186 52 CURVE SMOOTH",
"186 653 LINE SMOOTH",
"186 786 OFFCURVE",
"80 891 OFFCURVE",
"-52 891 CURVE SMOOTH",
"-88 891 LINE",
"-88 741 LINE",
"-52 741 LINE SMOOTH",
"-4 741 OFFCURVE",
"35 703 OFFCURVE",
"35 653 CURVE SMOOTH",
"35 52 LINE SMOOTH",
"35 2 OFFCURVE",
"-4 -36 OFFCURVE",
"-52 -36 CURVE SMOOTH",
"-88 -36 LINE",
"-88 -186 LINE"
);
}
);
width = 230;
}
);
unicode = 0029;
},
{
glyphname = asterisk;
layers = (
{
layerId = "9F8883BC-B634-401D-A38E-6E78924B331A";
paths = (
{
nodes = (
"371 46 LINE",
"371 639 LINE",
"246 639 LINE",
"246 46 LINE"
);
},
{
nodes = (
"498 109 LINE",
"578 206 LINE",
"117 580 LINE",
"38 482 LINE"
);
},
{
nodes = (
"118 109 LINE",
"578 482 LINE",
"499 580 LINE",
"38 206 LINE"
);
}
);
width = 598;
}
);
unicode = 002A;
},
{
glyphname = plus;
layers = (
{
layerId = "9F8883BC-B634-401D-A38E-6E78924B331A";
paths = (
{
nodes = (
"502 293 LINE",
"502 410 LINE",
"31 410 LINE",
"31 293 LINE"
);
},
{
nodes = (
"332 116 LINE",
"332 587 LINE",
"216 587 LINE",
"216 116 LINE"
);
}
);
width = 536;
}
);
unicode = 002B;
},
{
glyphname = slash;
layers = (
{
layerId = "9F8883BC-B634-401D-A38E-6E78924B331A";
paths = (
{
nodes = (
"224 0 LINE",
"556 693 LINE",
"389 693 LINE",
"57 0 LINE"
);
}
);
width = 594;
}
);
unicode = 002F;
},
{
glyphname = bracketleft;
layers = (
{
layerId = "9F8883BC-B634-401D-A38E-6E78924B331A";
paths = (
{
nodes = (
"397 -152 LINE",
"397 -40 LINE",
"207 -40 LINE",
"207 726 LINE",
"397 726 LINE",
"397 838 LINE",
"57 838 LINE",
"57 -152 LINE"
);
}
);
width = 254;
}
);
unicode = 005B;
},
{
glyphname = backslash;
layers = (
{
layerId = "9F8883BC-B634-401D-A38E-6E78924B331A";
paths = (
{
nodes = (
"556 0 LINE",
"224 693 LINE",
"57 693 LINE",
"389 0 LINE"
);
}
);
width = 594;
}
);
unicode = 005C;
},
{
glyphname = bracketright;
layers = (
{
layerId = "9F8883BC-B634-401D-A38E-6E78924B331A";
paths = (
{
nodes = (
"206 -152 LINE",
"206 838 LINE",
"-134 838 LINE",
"-134 726 LINE",
"56 726 LINE",
"56 -40 LINE",
"-134 -40 LINE",
"-134 -152 LINE"
);
}
);
width = 254;
}
);
unicode = 005D;
},
{
glyphname = asciicircum;
layers = (
{
layerId = "9F8883BC-B634-401D-A38E-6E78924B331A";
paths = (
{
nodes = (
"648 280 LINE",
"409 693 LINE",
"257 693 LINE",
"18 280 LINE",
"197 280 LINE",
"333 513 LINE",
"469 280 LINE"
);
}
);
width = 667;
}
);
unicode = 005E;
},
{
glyphname = underscore;
layers = (
{
layerId = "9F8883BC-B634-401D-A38E-6E78924B331A";
paths = (
{
nodes = (
"634 -166 LINE",
"634 -38 LINE",
"34 -38 LINE",
"34 -166 LINE"
);
}
);
width = 664;
}
);
unicode = 005F;
},
{
glyphname = braceleft;
layers = (
{
layerId = "9F8883BC-B634-401D-A38E-6E78924B331A";
paths = (
{
nodes = (
"426 -264 LINE",
"426 -114 LINE",
"390 -114 LINE SMOOTH",
"342 -114 OFFCURVE",
"303 -76 OFFCURVE",
"303 -26 CURVE SMOOTH",
"303 183 LINE SMOOTH",
"303 248 OFFCURVE",
"280 301 OFFCURVE",
"241 344 CURVE",
"280 387 OFFCURVE",
"303 441 OFFCURVE",
"303 506 CURVE SMOOTH",
"303 700 LINE SMOOTH",
"303 750 OFFCURVE",
"342 788 OFFCURVE",
"390 788 CURVE SMOOTH",
"426 788 LINE",
"426 938 LINE",
"390 938 LINE SMOOTH",
"323 938 OFFCURVE",
"264 911 OFFCURVE",
"222 869 CURVE SMOOTH",
"180 827 OFFCURVE",
"152 781 OFFCURVE",
"152 656 CURVE SMOOTH",
"152 506 LINE SMOOTH",
"152 463 OFFCURVE",
"124 428 OFFCURVE",
"86 420 CURVE",
"65 421 LINE",
"29 421 LINE",
"29 268 LINE",
"87 268 LINE",
"122 260 OFFCURVE",
"152 227 OFFCURVE",
"152 183 CURVE SMOOTH",
"152 -26 LINE SMOOTH",
"152 -159 OFFCURVE",
"258 -264 OFFCURVE",
"390 -264 CURVE SMOOTH"
);
}
);
width = 347;
}
);
unicode = 007B;
},
{
glyphname = bar;
layers = (
{
layerId = "9F8883BC-B634-401D-A38E-6E78924B331A";
paths = (
{
nodes = (
"158 -87 LINE",
"158 772 LINE",
"41 772 LINE",
"41 -87 LINE"
);
}
);
width = 200;
}
);
unicode = 007C;
},
{
glyphname = braceright;
layers = (
{
layerId = "9F8883BC-B634-401D-A38E-6E78924B331A";
paths = (
{
nodes = (
"-52 -264 LINE SMOOTH",
"79 -264 OFFCURVE",
"186 -160 OFFCURVE",
"186 -26 CURVE SMOOTH",
"186 183 LINE SMOOTH",
"186 227 OFFCURVE",
"216 260 OFFCURVE",
"251 268 CURVE",
"309 268 LINE",
"309 421 LINE",
"273 421 LINE",
"252 420 LINE",
"214 428 OFFCURVE",
"186 463 OFFCURVE",
"186 506 CURVE SMOOTH",
"186 656 LINE SMOOTH",
"186 719 OFFCURVE",
"180 764 OFFCURVE",
"168 793 CURVE SMOOTH",
"131 878 OFFCURVE",
"48 938 OFFCURVE",
"-52 938 CURVE SMOOTH",
"-88 938 LINE",
"-88 788 LINE",
"-52 788 LINE SMOOTH",
"-4 788 OFFCURVE",
"35 750 OFFCURVE",
"35 700 CURVE SMOOTH",
"35 506 LINE SMOOTH",
"35 441 OFFCURVE",
"58 387 OFFCURVE",
"97 344 CURVE",
"58 301 OFFCURVE",
"35 248 OFFCURVE",
"35 183 CURVE SMOOTH",
"35 -26 LINE SMOOTH",
"35 -76 OFFCURVE",
"-4 -114 OFFCURVE",
"-52 -114 CURVE SMOOTH",
"-88 -114 LINE",
"-88 -264 LINE"
);
}
);
width = 347;
}
);
unicode = 007D;
},
{
glyphname = arabicquestionmark;
layers = (
{
layerId = "9F8883BC-B634-401D-A38E-6E78924B331A";
paths = (
{
nodes = (
"301 0 OFFCURVE",
"332 34 OFFCURVE",
"332 75 CURVE SMOOTH",
"332 119 OFFCURVE",
"298 150 OFFCURVE",
"258 150 CURVE SMOOTH",
"217 150 OFFCURVE",
"183 119 OFFCURVE",
"183 75 CURVE SMOOTH",
"183 32 OFFCURVE",
"218 0 OFFCURVE",
"258 0 CURVE SMOOTH"
);
},
{
nodes = (
"170 272 LINE",
"170 455 LINE SMOOTH",
"170 504 OFFCURVE",
"208 544 OFFCURVE",
"258 544 CURVE SMOOTH",
"496 544 LINE",
"496 693 LINE",
"258 693 LINE SMOOTH",
"128 693 OFFCURVE",
"19 588 OFFCURVE",
"19 455 CURVE SMOOTH",
"19 272 LINE"
);
}
);
width = 548;
}
);
unicode = 061F;
},
{
glyphname = Gbreve;
layers = (
{
layerId = "9F8883BC-B634-401D-A38E-6E78924B331A";
paths = (
{
nodes = (
"550 0 LINE",
"550 150 LINE",
"366 150 LINE SMOOTH",
"257 150 OFFCURVE",
"169 237 OFFCURVE",
"169 347 CURVE SMOOTH",
"169 456 OFFCURVE",
"256 544 OFFCURVE",
"366 544 CURVE SMOOTH",
"550 544 LINE",
"550 694 LINE",
"366 694 LINE SMOOTH",
"181 694 OFFCURVE",
"20 547 OFFCURVE",
"20 347 CURVE SMOOTH",
"20 161 OFFCURVE",
"168 0 OFFCURVE",
"366 0 CURVE SMOOTH"
);
},
{
nodes = (
"550 181 LINE",
"550 422 LINE",
"216 422 LINE",
"205 391 OFFCURVE",
"200 369 OFFCURVE",
"200 347 CURVE SMOOTH",
"200 328 OFFCURVE",
"205 304 OFFCURVE",
"218 272 CURVE",
"399 272 LINE",
"399 181 LINE"
);
},
{
nodes = (
"386 725 OFFCURVE",
"456 784 OFFCURVE",
"464 866 CURVE",
"351 866 LINE",
"342 845 OFFCURVE",
"324 835 OFFCURVE",
"299 835 CURVE SMOOTH",
"276 835 OFFCURVE",
"256 848 OFFCURVE",
"247 866 CURVE",
"134 866 LINE",
"147 789 OFFCURVE",
"217 725 OFFCURVE",
"299 725 CURVE SMOOTH"
);
}
);
width = 599;
}
);
unicode = 011E;
},
{
glyphname = gbreve;
layers = (
{
layerId = "9F8883BC-B634-401D-A38E-6E78924B331A";
paths = (
{
nodes = (
"550 0 LINE",
"550 150 LINE",
"366 150 LINE SMOOTH",
"257 150 OFFCURVE",
"169 237 OFFCURVE",
"169 347 CURVE SMOOTH",
"169 456 OFFCURVE",
"256 544 OFFCURVE",
"366 544 CURVE SMOOTH",
"550 544 LINE",
"550 694 LINE",
"366 694 LINE SMOOTH",
"181 694 OFFCURVE",
"20 547 OFFCURVE",
"20 347 CURVE SMOOTH",
"20 161 OFFCURVE",
"168 0 OFFCURVE",
"366 0 CURVE SMOOTH"
);
},
{
nodes = (
"550 181 LINE",
"550 422 LINE",
"216 422 LINE",
"205 391 OFFCURVE",
"200 369 OFFCURVE",
"200 347 CURVE SMOOTH",
"200 328 OFFCURVE",
"205 304 OFFCURVE",
"218 272 CURVE",
"399 272 LINE",
"399 181 LINE"
);
},
{
nodes = (
"386 724 OFFCURVE",
"456 783 OFFCURVE",
"464 865 CURVE",
"351 865 LINE",
"342 844 OFFCURVE",
"324 834 OFFCURVE",
"299 834 CURVE SMOOTH",
"276 834 OFFCURVE",
"256 847 OFFCURVE",
"247 865 CURVE",
"134 865 LINE",
"147 788 OFFCURVE",
"217 724 OFFCURVE",
"299 724 CURVE SMOOTH"
);
}
);
width = 599;
}
);
unicode = 011F;
},
{
glyphname = Idotaccent;
layers = (
{
layerId = "9F8883BC-B634-401D-A38E-6E78924B331A";
paths = (
{
nodes = (
"207 0 LINE",
"207 693 LINE",
"57 693 LINE",
"57 0 LINE"
);
},
{
nodes = (
"185 712 OFFCURVE",
"229 754 OFFCURVE",
"229 811 CURVE SMOOTH",
"229 867 OFFCURVE",
"185 911 OFFCURVE",
"129 911 CURVE SMOOTH",
"72 911 OFFCURVE",
"30 867 OFFCURVE",
"30 811 CURVE SMOOTH",
"30 755 OFFCURVE",
"73 712 OFFCURVE",
"129 712 CURVE SMOOTH"
);
}
);
width = 260;
}
);
unicode = 0130;
},
{
glyphname = Emacron;
layers = (
{
layerId = "9F8883BC-B634-401D-A38E-6E78924B331A";
paths = (
{
nodes = (
"517 0 LINE",
"517 150 LINE",
"360 150 LINE SMOOTH",
"250 150 OFFCURVE",
"164 239 OFFCURVE",
"164 347 CURVE SMOOTH",
"164 456 OFFCURVE",
"251 544 OFFCURVE",
"360 544 CURVE SMOOTH",
"517 544 LINE",
"517 694 LINE",
"360 694 LINE SMOOTH",
"168 694 OFFCURVE",
"14 538 OFFCURVE",
"14 347 CURVE SMOOTH",
"14 161 OFFCURVE",
"162 0 OFFCURVE",
"360 0 CURVE SMOOTH"
);
},
{
nodes = (
"517 272 LINE",
"517 422 LINE",
"211 422 LINE",
"200 391 OFFCURVE",
"195 369 OFFCURVE",
"195 347 CURVE SMOOTH",
"195 328 OFFCURVE",
"200 304 OFFCURVE",
"213 272 CURVE"
);
},
{
nodes = (
"439 763 LINE",
"439 891 LINE",
"131 891 LINE",
"131 763 LINE"
);
}
);
width = 570;
}
);
unicode = 0112;
},
{
glyphname = edotaccent;
layers = (
{
layerId = "9F8883BC-B634-401D-A38E-6E78924B331A";
paths = (
{
nodes = (
"517 0 LINE",
"517 150 LINE",
"360 150 LINE SMOOTH",
"250 150 OFFCURVE",
"164 239 OFFCURVE",
"164 347 CURVE SMOOTH",
"164 456 OFFCURVE",
"251 544 OFFCURVE",
"360 544 CURVE SMOOTH",
"517 544 LINE",
"517 694 LINE",
"360 694 LINE SMOOTH",
"168 694 OFFCURVE",
"14 538 OFFCURVE",
"14 347 CURVE SMOOTH",
"14 161 OFFCURVE",
"162 0 OFFCURVE",
"360 0 CURVE SMOOTH"
);
},
{
nodes = (
"517 272 LINE",
"517 422 LINE",
"211 422 LINE",
"200 391 OFFCURVE",
"195 369 OFFCURVE",
"195 347 CURVE SMOOTH",
"195 328 OFFCURVE",
"200 304 OFFCURVE",
"213 272 CURVE"
);
},
{
nodes = (
"340 711 OFFCURVE",
"384 753 OFFCURVE",
"384 810 CURVE SMOOTH",
"384 866 OFFCURVE",
"340 910 OFFCURVE",
"284 910 CURVE SMOOTH",
"227 910 OFFCURVE",
"185 866 OFFCURVE",
"185 810 CURVE SMOOTH",
"185 754 OFFCURVE",
"228 711 OFFCURVE",
"284 711 CURVE SMOOTH"
);
}
);
width = 570;
}
);
unicode = 0117;
},
{
glyphname = emacron;
layers = (
{
layerId = "9F8883BC-B634-401D-A38E-6E78924B331A";
paths = (
{
nodes = (
"517 0 LINE",
"517 150 LINE",
"360 150 LINE SMOOTH",
"250 150 OFFCURVE",
"164 239 OFFCURVE",
"164 347 CURVE SMOOTH",
"164 456 OFFCURVE",
"251 544 OFFCURVE",
"360 544 CURVE SMOOTH",
"517 544 LINE",
"517 694 LINE",
"360 694 LINE SMOOTH",
"168 694 OFFCURVE",
"14 538 OFFCURVE",
"14 347 CURVE SMOOTH",
"14 161 OFFCURVE",
"162 0 OFFCURVE",
"360 0 CURVE SMOOTH"
);
},
{
nodes = (
"517 272 LINE",
"517 422 LINE",
"211 422 LINE",
"200 391 OFFCURVE",
"195 369 OFFCURVE",
"195 347 CURVE SMOOTH",
"195 328 OFFCURVE",
"200 304 OFFCURVE",
"213 272 CURVE"
);
},
{
nodes = (
"439 762 LINE",
"439 890 LINE",
"131 890 LINE",
"131 762 LINE"
);
}
);
width = 570;
}
);
unicode = 0113;
},
{
glyphname = Amacron;
layers = (
{
layerId = "9F8883BC-B634-401D-A38E-6E78924B331A";
paths = (
{
nodes = (
"576 0 LINE",
"275 725 LINE",
"-28 0 LINE",
"134 0 LINE",
"275 337 LINE",
"306 262 OFFCURVE",
"325 217 OFFCURVE",
"354 150 CURVE",
"237 150 LINE",
"175 0 LINE"
);
},
{
nodes = (
"424 763 LINE",
"424 891 LINE",
"116 891 LINE",
"116 763 LINE"
);
}
);
width = 573;
}
);
unicode = 0100;
},
{
glyphname = amacron;
layers = (
{
layerId = "9F8883BC-B634-401D-A38E-6E78924B331A";
paths = (
{
nodes = (
"576 0 LINE",
"275 725 LINE",
"-28 0 LINE",
"134 0 LINE",
"275 337 LINE",
"306 262 OFFCURVE",
"325 217 OFFCURVE",
"354 150 CURVE",
"237 150 LINE",
"175 0 LINE"
);
},
{
nodes = (
"440 762 LINE",
"440 890 LINE",
"132 890 LINE",
"132 762 LINE"
);
}
);
width = 573;
}
);
unicode = 0101;
},
{
glyphname = imacron;
layers = (
{
layerId = "9F8883BC-B634-401D-A38E-6E78924B331A";
paths = (
{
nodes = (
"282 0 LINE",
"282 693 LINE",
"35 693 LINE",
"35 543 LINE",
"132 543 LINE",
"132 0 LINE"
);
},
{
nodes = (
"313 762 LINE",
"313 890 LINE",
"5 890 LINE",
"5 762 LINE"
);
}
);
width = 318;
}
);
unicode = 012B;
},
{
glyphname = omacron;
layers = (
{
layerId = "9F8883BC-B634-401D-A38E-6E78924B331A";
paths = (
{
nodes = (
"504 0 OFFCURVE",
"633 132 OFFCURVE",
"633 292 CURVE SMOOTH",
"633 401 LINE SMOOTH",
"633 520 OFFCURVE",
"562 624 OFFCURVE",
"455 670 CURVE SMOOTH",
"404 692 OFFCURVE",
"371 693 OFFCURVE",
"311 693 CURVE SMOOTH",
"152 693 OFFCURVE",
"18 565 OFFCURVE",
"18 401 CURVE SMOOTH",
"18 292 LINE SMOOTH",
"18 173 OFFCURVE",
"88 70 OFFCURVE",
"198 23 CURVE SMOOTH",
"249 1 OFFCURVE",
"282 0 OFFCURVE",
"341 0 CURVE SMOOTH"
);
},
{
nodes = (
"311 150 LINE SMOOTH",
"230 150 OFFCURVE",
"169 215 OFFCURVE",
"169 292 CURVE SMOOTH",
"169 401 LINE SMOOTH",
"169 481 OFFCURVE",
"231 544 OFFCURVE",
"311 544 CURVE SMOOTH",
"341 544 LINE SMOOTH",
"421 544 OFFCURVE",
"483 480 OFFCURVE",
"483 401 CURVE SMOOTH",
"483 292 LINE SMOOTH",
"483 211 OFFCURVE",
"418 150 OFFCURVE",
"341 150 CURVE SMOOTH"
);
},
{
nodes = (
"489 762 LINE",
"489 890 LINE",
"181 890 LINE",
"181 762 LINE"
);
}
);
width = 671;
}
);
unicode = 014D;
},
{
glyphname = Kcedilla;
layers = (
{
layerId = "9F8883BC-B634-401D-A38E-6E78924B331A";
paths = (
{
nodes = (
"617 0 LINE",
"545 106 OFFCURVE",
"458 239 OFFCURVE",
"385 347 CURVE",
"617 694 LINE",
"437 694 LINE",
"206 347 LINE",
"437 0 LINE"
);
},
{
nodes = (
"196 0 LINE",
"196 694 LINE",
"47 694 LINE",
"47 0 LINE"
);
},
{
nodes = (
"242 -268 OFFCURVE",
"253 -262 OFFCURVE",
"265 -250 CURVE SMOOTH",
"340 -172 LINE",
"340 -169 LINE",
"343 -166 OFFCURVE",
"345 -161 OFFCURVE",
"346 -156 CURVE",
"351 -145 OFFCURVE",
"354 -134 OFFCURVE",
"354 -124 CURVE",
"353 -114 LINE",
"350 -101 OFFCURVE",
"345 -90 OFFCURVE",
"338 -81 CURVE SMOOTH",
"330 -72 OFFCURVE",
"320 -66 OFFCURVE",
"309 -61 CURVE SMOOTH",
"298 -56 OFFCURVE",
"286 -54 OFFCURVE",
"274 -54 CURVE SMOOTH",
"255 -54 OFFCURVE",
"239 -60 OFFCURVE",
"224 -71 CURVE SMOOTH",
"209 -83 OFFCURVE",
"202 -103 OFFCURVE",
"202 -130 CURVE SMOOTH",
"202 -224 LINE SMOOTH",
"202 -245 OFFCURVE",
"208 -259 OFFCURVE",
"221 -265 CURVE SMOOTH",
"225 -267 OFFCURVE",
"229 -268 OFFCURVE",
"233 -268 CURVE SMOOTH"
);
}
);
width = 636;
}
);
unicode = 0136;
},
{
glyphname = kcedilla;
layers = (
{
layerId = "9F8883BC-B634-401D-A38E-6E78924B331A";
paths = (
{
nodes = (
"617 0 LINE",
"545 106 OFFCURVE",
"458 239 OFFCURVE",
"385 347 CURVE",
"617 694 LINE",
"437 694 LINE",
"206 347 LINE",
"437 0 LINE"
);
},
{
nodes = (
"196 0 LINE",
"196 694 LINE",
"47 694 LINE",
"47 0 LINE"
);
},
{
nodes = (
"242 -268 OFFCURVE",
"253 -262 OFFCURVE",
"265 -250 CURVE SMOOTH",
"340 -172 LINE",
"340 -169 LINE",
"343 -166 OFFCURVE",
"345 -161 OFFCURVE",
"346 -156 CURVE",
"351 -145 OFFCURVE",
"354 -134 OFFCURVE",
"354 -124 CURVE",
"353 -114 LINE",
"350 -101 OFFCURVE",
"345 -90 OFFCURVE",
"338 -81 CURVE SMOOTH",
"330 -72 OFFCURVE",
"320 -66 OFFCURVE",
"309 -61 CURVE SMOOTH",
"298 -56 OFFCURVE",
"286 -54 OFFCURVE",
"274 -54 CURVE SMOOTH",
"255 -54 OFFCURVE",
"239 -60 OFFCURVE",
"224 -71 CURVE SMOOTH",
"209 -83 OFFCURVE",
"202 -103 OFFCURVE",
"202 -130 CURVE SMOOTH",
"202 -224 LINE SMOOTH",
"202 -245 OFFCURVE",
"208 -259 OFFCURVE",
"221 -265 CURVE SMOOTH",
"225 -267 OFFCURVE",
"229 -268 OFFCURVE",
"233 -268 CURVE SMOOTH"
);
}
);
width = 636;
}
);
unicode = 0137;
},
